<?xml version="1.0" standalone="no"?>
<!DOCTYPE svg PUBLIC "-//W3C//DTD SVG 1.1//EN" "http://www.w3.org/Graphics/SVG/1.1/DTD/svg11.dtd" >
<svg>
<metadata>
Created by FontForge 20120731 at Wed Oct 29 02:36:52 2014
 By Orthosie Webhosting
Copyright (c) 2014 Indian Type Foundry (info@indiantypefoundry.com)
</metadata>
<defs>
<font id="KhandSemibold" horiz-adv-x="218" >
  <font-face 
    font-family="KhandSemibold"
    font-weight="600"
    font-stretch="normal"
    units-per-em="1000"
    panose-1="2 0 0 0 0 0 0 0 0 0"
    ascent="800"
    descent="-200"
    x-height="582"
    cap-height="685"
    bbox="-466 -447 1830 999"
    underline-thickness="50"
    underline-position="-50"
    unicode-range="U+000D-FB02"
  />
<missing-glyph horiz-adv-x="750" 
d="M234 651v-601h282v601h-282zM180 0v701h390v-701h-390z" />
    <glyph glyph-name="fi" unicode="fi" horiz-adv-x="483" 
d="M429 582v-582h-121v486h-114v-486h-121v486h-57v96h57v15q0 157 199 157q69 0 129 -14v-95q-50 13 -108 13t-78.5 -14t-20.5 -46v-16h235z" />
    <glyph glyph-name="fl" unicode="fl" horiz-adv-x="483" 
d="M429 737v-737h-119v658q-24 2 -35 2q-44 0 -63 -15t-19 -47v-16h70v-96h-69v-486h-121v486h-57v96h57v15q0 157 191 157q63 0 128 -17h37z" />
    <glyph glyph-name=".notdef" horiz-adv-x="750" 
d="M234 651v-601h282v601h-282zM180 0v701h390v-701h-390z" />
    <glyph glyph-name=".null" horiz-adv-x="0" 
 />
    <glyph glyph-name="nonmarkingreturn" horiz-adv-x="333" 
 />
    <glyph glyph-name="NULL" horiz-adv-x="0" 
 />
    <glyph glyph-name="NULL" horiz-adv-x="0" 
 />
    <glyph glyph-name="CR" unicode="&#xd;" horiz-adv-x="0" 
 />
    <glyph glyph-name="space" unicode=" " horiz-adv-x="187" 
 />
    <glyph glyph-name="exclam" unicode="!" horiz-adv-x="299" 
d="M82 57.5q0 66.5 68.5 66.5t68.5 -66.5t-68.5 -66.5t-68.5 66.5zM85 685h129l-16 -482h-97z" />
    <glyph glyph-name="quotedbl" unicode="&#x22;" horiz-adv-x="436" 
d="M83 765h104v-250h-104v250zM245 765h104v-250h-104v250z" />
    <glyph glyph-name="numbersign" unicode="#" horiz-adv-x="592" 
d="M553 407h-86l-20 -136h72v-94h-85l-26 -177h-105l26 177h-112l-26 -177h-105l25 177h-74v94h88l19 136h-74v94h88l25 177h106l-26 -177h112l26 177h105l-26 -177h73v-94zM342 271l20 136h-112l-20 -136h112z" />
    <glyph glyph-name="dollar" unicode="$" horiz-adv-x="420" 
d="M396 213v-59q0 -125 -139 -152v-63h-113v57q-72 4 -113 21v116q64 -27 145 -27q99 0 99 62v26q0 26 -10.5 40.5t-38.5 29.5l-110 60q-93 51 -93 147v62q0 124 129 150v60h113v-54q61 -5 97 -18v-115q-58 23 -137 23t-79 -60v-27q0 -30 11 -46.5t43 -33.5l115 -65
q81 -44 81 -134z" />
    <glyph glyph-name="percent" unicode="%" horiz-adv-x="663" 
d="M365 154q0 161 131.5 161t131.5 -161t-131.5 -161t-131.5 161zM542 153.5q0 82.5 -46.5 82.5t-46.5 -82.5t46.5 -82.5t46.5 82.5zM35 531q0 161 131.5 161t131.5 -161t-131.5 -161t-131.5 161zM212 531.5q0 82.5 -46.5 82.5t-46.5 -82.5t46.5 -82.5t46.5 82.5zM441 685
h83l-303 -685h-82z" />
    <glyph glyph-name="ampersand" unicode="&#x26;" horiz-adv-x="486" 
d="M476 406v-103h-47v-139q0 -79 -45.5 -125t-140.5 -46t-142.5 46t-47.5 125v80q0 89 73 114q-71 24 -71 114v58q0 76 52.5 118.5t159.5 42.5q78 0 126 -16v-113q-46 18 -111.5 18t-86 -15.5t-20.5 -46.5v-44q0 -35 14.5 -51.5t49.5 -16.5h75v63h115v-63h47zM314 167v136
h-75q-66 0 -66 -66v-70q0 -68 70.5 -68t70.5 68z" />
    <glyph glyph-name="quotesingle" unicode="'" horiz-adv-x="278" 
d="M83 765h111v-250h-111v250z" />
    <glyph glyph-name="parenleft" unicode="(" horiz-adv-x="329" 
d="M170 332q0 -135 29.5 -264.5t74.5 -228.5h-105q-45 94 -74.5 225.5t-29.5 268t29.5 267.5t74.5 225h105q-45 -99 -74.5 -228.5t-29.5 -264.5z" />
    <glyph glyph-name="parenright" unicode=")" horiz-adv-x="329" 
d="M233.5 600q29.5 -131 29.5 -267.5t-29.5 -268t-74.5 -225.5h-105q45 97 74.5 227.5t29.5 266t-29.5 265t-74.5 227.5h105q45 -94 74.5 -225z" />
    <glyph glyph-name="asterisk" unicode="*" horiz-adv-x="533" 
d="M211 724v94h111v-94q0 -35 -8 -62q26 16 57 26l89 30l34 -105l-89 -29q-31 -10 -62 -12q21 -16 43 -46l55 -75l-89 -65l-56 75q-21 30 -30 54q-11 -28 -30 -54l-55 -75l-89 65l55 75q22 30 43 46q-32 2 -62 12l-89 29l34 105l89 -29q32 -11 56 -26q-7 28 -7 61z" />
    <glyph glyph-name="plus" unicode="+" horiz-adv-x="482" 
d="M436 381v-103h-140v-146h-111v146h-141v103h141v145h111v-145h140z" />
    <glyph glyph-name="comma" unicode="," horiz-adv-x="192" 
d="M116 122q52 0 52 -47q0 -37 -30.5 -99t-60.5 -106h-65l44 252h60z" />
    <glyph glyph-name="hyphen" unicode="-" horiz-adv-x="280" 
d="M41 381h204v-103h-204v103z" />
    <glyph glyph-name="period" unicode="." horiz-adv-x="210" 
d="M104 -9q-68 0 -68 66.5t68 66.5t68 -66.5t-68 -66.5z" />
    <glyph glyph-name="slash" unicode="/" horiz-adv-x="428" 
d="M296 826h106l-260 -987h-107z" />
    <glyph glyph-name="zero" unicode="0" horiz-adv-x="460" 
d="M296 520q0 33 -14.5 50t-51.5 17t-51.5 -17t-14.5 -50v-355q0 -33 14.5 -50t51.5 -17t51.5 17t14.5 50v355zM44 524q0 79 45.5 125t140.5 46t140.5 -46t45.5 -125v-363q0 -79 -45.5 -125t-140.5 -46t-140.5 46t-45.5 125v363z" />
    <glyph glyph-name="one" unicode="1" horiz-adv-x="305" 
d="M251 685v-685h-122v544l-115 -84v133l125 92h112z" />
    <glyph glyph-name="two" unicode="2" horiz-adv-x="426" 
d="M185 690q202 0 202 -158v-59q0 -98 -76 -152l-85 -68q-42 -33 -54 -52.5t-12 -56.5v-37h222v-107h-344v156q0 59 23.5 97t68.5 70l93 75q25 19 34 38.5t9 55.5v27q0 29 -17.5 44.5t-78 15.5t-119.5 -25v116q60 20 134 20z" />
    <glyph glyph-name="three" unicode="3" horiz-adv-x="410" 
d="M159 691q104 0 154.5 -41.5t50.5 -117.5v-69q0 -93 -70 -115q72 -13 72 -106v-88q0 -76 -50.5 -118t-143 -42t-147.5 20v115q61 -25 121.5 -25t80 16t19.5 46v61q0 32 -15.5 46.5t-52.5 14.5h-74v111h73q36 0 51 17t15 50v54q0 61 -85 61q-71 0 -118 -17v113
q47 14 119 14z" />
    <glyph glyph-name="four" unicode="4" horiz-adv-x="441" 
d="M436 226v-106h-66v-120h-114v120h-246v111l200 454h160v-459h66zM260 226v337l-146 -337h146z" />
    <glyph glyph-name="five" unicode="5" horiz-adv-x="433" 
d="M51 685h322v-112h-202v-153q31 3 64 3q77 0 117.5 -39t40.5 -113v-118q0 -75 -50 -117t-153 -42q-72 0 -143 22v114q75 -26 139 -26q86 0 86 61v90q0 32 -15.5 46t-56.5 14q-12 0 -149 -10v380z" />
    <glyph glyph-name="six" unicode="6" horiz-adv-x="452" 
d="M296 279q0 59 -63 59q-46 0 -69 -13v-162q0 -33 14.5 -50t51.5 -17t51.5 17t14.5 50v116zM44 513q0 80 49.5 128.5t156.5 48.5q81 0 136 -20v-114q-56 23 -134 23q-88 0 -88 -78v-73q31 14 100 14t110.5 -40t41.5 -113v-128q0 -79 -45.5 -125t-140.5 -46t-140.5 46
t-45.5 125v352z" />
    <glyph glyph-name="seven" unicode="7" horiz-adv-x="364" 
d="M5 685h341v-96l-79 -242q-40 -123 -40 -245v-102h-122v111q0 133 42 254l66 209h-208v111z" />
    <glyph glyph-name="eight" unicode="8" horiz-adv-x="468" 
d="M423 528v-69q0 -83 -55 -118q56 -35 56 -118v-66q0 -78 -47.5 -122.5t-143 -44.5t-142.5 44.5t-47 122.5v66q0 82 55 118q-54 35 -54 118v69q0 78 46.5 122.5t142 44.5t142.5 -44.5t47 -122.5zM304 526q0 65 -70 65t-70 -65v-70q0 -68 70 -68t70 68v70zM305 159v68
q0 67 -71 67t-71 -67v-68q0 -65 71 -65t71 65z" />
    <glyph glyph-name="nine" unicode="9" horiz-adv-x="452" 
d="M288 522q0 33 -14 50t-51.5 17t-52 -17t-14.5 -50v-121q0 -63 63 -63q50 0 69 14v170zM36 524q0 79 46 125t140.5 46t140 -46t45.5 -125v-367q0 -76 -51.5 -119t-147 -43t-150.5 20v115q61 -25 145 -25t84 64v80q-33 -15 -103 -15t-109.5 40.5t-39.5 114.5v135z" />
    <glyph glyph-name="colon" unicode=":" horiz-adv-x="236" 
d="M104 -9q-68 0 -68 66.5t68 66.5t68 -66.5t-68 -66.5zM36 408q0 66 68 66t68 -66t-68 -66t-68 66z" />
    <glyph glyph-name="semicolon" unicode=";" horiz-adv-x="239" 
d="M36 408q0 66 68 66t68 -66t-68 -66t-68 66zM116 122q52 0 52 -47q0 -37 -30.5 -99t-60.5 -106h-65l44 252h60z" />
    <glyph glyph-name="less" unicode="&#x3c;" horiz-adv-x="492" 
d="M437 530v-108l-286 -93l286 -93v-108l-400 146v110z" />
    <glyph glyph-name="equal" unicode="=" horiz-adv-x="476" 
d="M35 283h401v-103h-401v103zM35 478h401v-103h-401v103z" />
    <glyph glyph-name="greater" unicode="&#x3e;" horiz-adv-x="489" 
d="M46 530l401 -146v-110l-401 -146v108l287 93l-287 93v108z" />
    <glyph glyph-name="question" unicode="?" horiz-adv-x="407" 
d="M85 57.5q0 66.5 68.5 66.5t68.5 -66.5t-68.5 -66.5t-68.5 66.5zM160 695q201 0 201 -158v-89q0 -78 -35 -118t-118 -41l-6 -86h-99l-6 177h57q50 0 70.5 16.5t20.5 53.5v76q0 31 -17 45t-81.5 14t-117.5 -22v115q60 17 131 17z" />
    <glyph glyph-name="at" unicode="@" horiz-adv-x="894" 
d="M542 -129h-90q-223 0 -310 115q-42 56 -60 127t-18 167.5t18.5 168t61.5 127.5q87 115 309 115q225 0 309 -111q42 -56 59.5 -126.5t17.5 -167.5q0 -146 -48.5 -208.5t-141.5 -62.5t-130 57q-35 -22 -100 -22q-114 0 -114 114v23q0 48 22.5 76t70.5 45l98 34v58
q0 23 -10.5 34t-51 11t-110.5 -19v82q67 16 121 16q144 0 144 -120v-229q0 -38 15.5 -54.5t55.5 -16.5t59 39t19 122.5t-5 126.5t-22 85t-47 67q-68 54 -211 54t-211 -56q-30 -26 -47.5 -69t-23 -86.5t-5.5 -114t10 -122t39 -96.5q56 -89 238 -89h89v-94zM407.5 136
q9.5 -8 35 -8t53.5 16v116l-56 -18q-24 -8 -33 -18.5t-9 -34.5v-25q0 -20 9.5 -28z" />
    <glyph glyph-name="A" unicode="A" horiz-adv-x="470" 
d="M344 0l-33 171h-154l-32 -171h-115l142 685h167l141 -685h-116zM176 273h115l-58 304z" />
    <glyph glyph-name="B" unicode="B" horiz-adv-x="483" 
d="M433 529v-62q0 -95 -70 -121q76 -23 76 -123v-67q0 -156 -166 -156h-219v685h213q166 0 166 -156zM249 583h-75v-185h75q66 0 66 62v62q0 61 -66 61zM321 163v67q0 62 -66 62h-81v-190h81q66 0 66 61z" />
    <glyph glyph-name="C" unicode="C" horiz-adv-x="405" 
d="M44 531q0 75 51.5 117t155.5 42q68 0 122 -15v-110q-60 17 -114.5 17t-74 -15.5t-19.5 -45.5v-357q0 -61 87 -61q73 0 124 16v-109q-54 -15 -127 -15q-205 0 -205 158v378z" />
    <glyph glyph-name="D" unicode="D" horiz-adv-x="483" 
d="M319 528q0 57 -62 57h-83v-481h83q62 0 62 64v360zM54 685h218q80 0 123.5 -39.5t43.5 -113.5v-373q0 -159 -161 -159h-224v685z" />
    <glyph glyph-name="E" unicode="E" horiz-adv-x="412" 
d="M54 685h329v-105h-209v-181h181v-105h-181v-189h209v-105h-329v685z" />
    <glyph glyph-name="F" unicode="F" horiz-adv-x="391" 
d="M54 685h320v-105h-199v-202h186v-107h-186v-271h-121v685z" />
    <glyph glyph-name="G" unicode="G" horiz-adv-x="461" 
d="M44 527q0 76 54.5 119.5t147.5 43.5t147 -18v-114q-61 22 -132 22q-96 0 -96 -65v-351q0 -61 80 -61q35 0 56 13v240h118v-320q-78 -41 -175 -41t-148.5 40.5t-51.5 117.5v374z" />
    <glyph glyph-name="H" unicode="H" horiz-adv-x="518" 
d="M342 685h122v-685h-122v283h-167v-283h-121v685h121v-295h167v295z" />
    <glyph glyph-name="I" unicode="I" horiz-adv-x="229" 
d="M54 685h121v-685h-121v685z" />
    <glyph glyph-name="J" unicode="J" horiz-adv-x="233" 
d="M58 685h121v-481q0 -131 -34 -249l-31 -104h-127l30 104q41 140 41 248v482z" />
    <glyph glyph-name="K" unicode="K" horiz-adv-x="466" 
d="M54 685h120v-685h-120v685zM317 685h129l-132 -335l142 -350h-133l-135 348z" />
    <glyph glyph-name="L" unicode="L" horiz-adv-x="373" 
d="M54 685h121v-583h193v-102h-314v685z" />
    <glyph glyph-name="M" unicode="M" horiz-adv-x="635" 
d="M581 685v-685h-116v284q0 101 14 203l-112 -310h-100l-113 310q15 -93 15 -203v-284h-115v685h128l135 -380l135 380h129z" />
    <glyph glyph-name="N" unicode="N" horiz-adv-x="520" 
d="M347 685h119v-685h-121q-147 375 -168 436.5t-23 67.5q0 -2 5 -37q13 -91 13 -225v-242h-118v685h123q127 -321 147 -378t29.5 -87.5t11.5 -35.5q0 4 -5 38q-13 100 -13 227v236z" />
    <glyph glyph-name="O" unicode="O" horiz-adv-x="477" 
d="M313 518q0 68 -74.5 68t-74.5 -68v-351q0 -68 74.5 -68t74.5 68v351zM44 524q0 78 49 124.5t145 46.5t145.5 -46.5t49.5 -124.5v-363q0 -78 -49.5 -124.5t-145.5 -46.5t-145 46.5t-49 124.5v363z" />
    <glyph glyph-name="P" unicode="P" horiz-adv-x="458" 
d="M306 520q0 60 -63 60h-68v-264h68q63 0 63 61v143zM54 685h202q81 0 125.5 -40t44.5 -113v-167q0 -73 -44.5 -113t-125.5 -40h-81v-212h-121v685z" />
    <glyph glyph-name="Q" unicode="Q" horiz-adv-x="477" 
d="M238 -10q-96 0 -145 46.5t-49 124.5v363q0 78 49 124.5t145 46.5t145.5 -46.5t49.5 -124.5v-363q0 -89 -62 -135l113 -118h-144l-78 83q-8 -1 -24 -1zM164 518v-351q0 -68 74.5 -68t74.5 68v351q0 68 -74.5 68t-74.5 -68z" />
    <glyph glyph-name="R" unicode="R" horiz-adv-x="472" 
d="M174 258v-258h-120v685h202q81 0 125.5 -39.5t44.5 -112.5v-117q0 -116 -84 -146l108 -270h-132l-95 258h-49zM174 582v-227h70q33 0 47.5 14.5t14.5 47.5v107q0 58 -62 58h-70z" />
    <glyph glyph-name="S" unicode="S" horiz-adv-x="420" 
d="M23 533q0 75 50 116t143.5 41t145.5 -19v-115q-58 23 -137 23t-79 -60v-27q0 -30 11 -46.5t43 -33.5l115 -65q81 -44 81 -134v-59q0 -76 -55 -117.5t-157 -41.5t-153 22v116q64 -27 145 -27q99 0 99 62v26q0 26 -10.5 40.5t-38.5 29.5l-110 60q-93 51 -93 147v62z" />
    <glyph glyph-name="T" unicode="T" horiz-adv-x="389" 
d="M382 685v-105h-127v-580h-121v580h-127v105h375z" />
    <glyph glyph-name="U" unicode="U" horiz-adv-x="484" 
d="M315 685h120v-524q0 -78 -49 -124.5t-144.5 -46.5t-144 46.5t-48.5 124.5v524h120v-518q0 -68 73 -68t73 68v518z" />
    <glyph glyph-name="V" unicode="V" horiz-adv-x="460" 
d="M327 685h125l-137 -685h-168l-139 685h123l58 -308q9 -51 24.5 -155t18.5 -115q4 19 19 125t21 144z" />
    <glyph glyph-name="W" unicode="W" horiz-adv-x="599" 
d="M482 685h106l-99 -685h-116q-55 347 -60.5 394.5t-11.5 107.5q-8 -111 -23 -205l-48 -297h-122l-97 685h107l45 -293l20 -187q16 138 65 480h106l41 -293l22 -182q8 102 20 182z" />
    <glyph glyph-name="X" unicode="X" horiz-adv-x="439" 
d="M301 685h130l-148 -344l148 -341h-130l-80 214l-82 -214h-131l147 341l-147 344h130l83 -216z" />
    <glyph glyph-name="Y" unicode="Y" horiz-adv-x="454" 
d="M288 0h-121v220l-165 465h123l46 -134q37 -113 58 -204q25 101 58 205l45 133h121l-165 -465v-220z" />
    <glyph glyph-name="Z" unicode="Z" horiz-adv-x="409" 
d="M28 685h355v-98l-234 -485h235v-102h-361v102l230 481h-225v102z" />
    <glyph glyph-name="bracketleft" unicode="[" horiz-adv-x="344" 
d="M184 -70h121v-94h-219v1002h219v-94h-121v-814z" />
    <glyph glyph-name="backslash" unicode="\" horiz-adv-x="451" 
d="M37 838h110l271 -1002h-112z" />
    <glyph glyph-name="bracketright" unicode="]" horiz-adv-x="344" 
d="M39 838h219v-1002h-219v94h121v814h-121v94z" />
    <glyph glyph-name="asciicircum" unicode="^" horiz-adv-x="394" 
d="M390 392h-118l-76 240l-76 -240h-119l125 317h140z" />
    <glyph glyph-name="underscore" unicode="_" horiz-adv-x="531" 
d="M7 -5h517v-96h-517v96z" />
    <glyph glyph-name="grave" unicode="`" horiz-adv-x="350" 
d="M107 737h94l42 -112h-67z" />
    <glyph glyph-name="a" unicode="a" horiz-adv-x="433" 
d="M142 168v-29q0 -51 53 -51q41 0 72 22v146l-71 -20q-33 -9 -43.5 -23t-10.5 -45zM53 568q57 19 151 19t137 -41.5t43 -124.5v-421h-114v42q-39 -45 -109.5 -45t-103.5 35t-33 107v34q0 61 29 96t94 53l121 33v67q-1 31 -18 45t-78 14t-119 -21v108z" />
    <glyph glyph-name="b" unicode="b" horiz-adv-x="457" 
d="M291 431q0 43 -46 43q-36 0 -70 -17v-346h56q60 0 60 53v267zM54 737h120v-171q52 19 110.5 19t93.5 -32.5t35 -95.5v-310q0 -73 -41 -110t-110 -37h-208v737z" />
    <glyph glyph-name="c" unicode="c" horiz-adv-x="374" 
d="M44 425q0 162 186 162q64 0 117 -14v-112q-50 16 -97 16t-66 -14t-19 -47v-250q0 -33 18.5 -47t66.5 -14t98 16v-111q-52 -15 -118 -15q-186 0 -186 162v268z" />
    <glyph glyph-name="d" unicode="d" horiz-adv-x="456" 
d="M282 474h-52q-65 0 -65 -63v-257q0 -48 48 -48q43 0 69 20v348zM281 737h121v-737h-117v39q-43 -43 -108 -43t-99 36.5t-34 102.5v279q0 79 44.5 123.5t129.5 44.5h63v155z" />
    <glyph glyph-name="e" unicode="e" horiz-adv-x="434" 
d="M44 159v274q0 74 44.5 116.5t134.5 42.5t132.5 -42.5t42.5 -116.5v-192h-237v-73q0 -36 21 -52t80 -16t121 19v-107q-62 -18 -138 -18q-201 0 -201 165zM161 335h125v97q0 59 -62.5 59t-62.5 -59v-97z" />
    <glyph glyph-name="f" unicode="f" horiz-adv-x="287" 
d="M73 599q0 157 163 157q23 0 51 -5v-95q-15 3 -34 3q-59 0 -59 -58v-19h90v-96h-90v-486h-121v486h-57v96h57v17z" />
    <glyph glyph-name="g" unicode="g" horiz-adv-x="452" 
d="M441 532h-34q-13 0 -31 -4q24 -36 24 -89v-83q0 -72 -44.5 -112.5t-133.5 -41.5q-37 0 -37 -34q0 -17 11 -24t38 -7h56q147 0 147 -122v-21q0 -68 -49.5 -106t-150.5 -38h-38q-114 0 -175 39v111q70 -48 172 -48h27q57 0 79 11t22 34v7q0 18 -10.5 26t-38.5 8h-60
q-137 0 -137 88v16q0 59 54 71q-101 31 -101 143v83q0 73 46 113t126 40t122 -21q21 70 101 70h15v-109zM280 356v82q0 57 -64.5 57t-64.5 -57v-82q0 -56 64.5 -56t64.5 56z" />
    <glyph glyph-name="h" unicode="h" horiz-adv-x="459" 
d="M54 737h120v-170q46 18 103 18t95 -31.5t38 -96.5v-457h-123v431q0 43 -44 43q-36 0 -68 -16v-458h-121v737z" />
    <glyph glyph-name="i" unicode="i" horiz-adv-x="229" 
d="M46 683q0 66 68.5 66t68.5 -66t-68.5 -66t-68.5 66zM54 571h121v-571h-121v571z" />
    <glyph glyph-name="j" unicode="j" horiz-adv-x="229" 
d="M46 683q0 66 68.5 66t68.5 -66t-68.5 -66t-68.5 66zM54 571h121v-555q0 -77 -41.5 -122.5t-121.5 -45.5q-21 0 -33 3v110q16 -2 24 -2q51 0 51 57v555z" />
    <glyph glyph-name="k" unicode="k" horiz-adv-x="422" 
d="M54 737h117v-737h-117v737zM279 582h121l-101 -277l114 -305h-128l-105 310z" />
    <glyph glyph-name="l" unicode="l" horiz-adv-x="229" 
d="M54 737h121v-737h-121v737z" />
    <glyph glyph-name="m" unicode="m" horiz-adv-x="693" 
d="M378 548q68 37 132.5 37t99 -32.5t34.5 -95.5v-457h-122v431q0 43 -44 43q-36 0 -71 -21q3 -9 3 -22v-431h-123v431q0 43 -44 43q-34 0 -68 -19v-455h-121v582h114v-26q58 29 116.5 29t93.5 -37z" />
    <glyph glyph-name="n" unicode="n" horiz-adv-x="459" 
d="M168 556q58 29 115 29t92 -32.5t35 -95.5v-457h-123v431q0 43 -44 43q-34 0 -68 -19v-455h-121v582h114v-26z" />
    <glyph glyph-name="o" unicode="o" horiz-adv-x="447" 
d="M284 430q0 59 -60.5 59t-60.5 -59v-278q0 -59 60.5 -59t60.5 59v278zM44 433q0 74 44.5 116.5t135 42.5t135 -42.5t44.5 -116.5v-284q0 -74 -44.5 -116.5t-135 -42.5t-135 42.5t-44.5 116.5v284z" />
    <glyph glyph-name="p" unicode="p" horiz-adv-x="457" 
d="M291 431q0 43 -46 43q-36 0 -70 -19v-344h57q59 0 59 54v266zM168 556q61 29 118 29t92 -32.5t35 -95.5v-309q0 -73 -41 -110.5t-110 -37.5h-87v-149h-121v731h114v-26z" />
    <glyph glyph-name="q" unicode="q" horiz-adv-x="456" 
d="M282 474h-51q-66 0 -66 -66v-249q0 -52 51 -52q39 0 66 19v348zM219 582h183v-731h-120v167q-38 -19 -97 -19q-141 0 -141 148v265q0 79 44.5 124.5t130.5 45.5z" />
    <glyph glyph-name="r" unicode="r" horiz-adv-x="307" 
d="M282 585h20v-112h-27q-52 0 -100 -30v-443h-121v582h114v-41q29 19 40 25q33 19 74 19z" />
    <glyph glyph-name="s" unicode="s" horiz-adv-x="378" 
d="M24 434q0 77 45 115t147 38q66 0 118 -16v-107q-46 16 -102.5 16t-73 -12.5t-16.5 -40.5v-14q0 -20 9.5 -31.5t37.5 -28.5l83 -49q83 -49 83 -127v-26q0 -156 -204 -156q-72 0 -126 14v109q49 -15 108 -15t80.5 13t21.5 39v14q0 20 -11.5 32t-48.5 33l-75 44
q-76 44 -76 127v29z" />
    <glyph glyph-name="t" unicode="t" horiz-adv-x="308" 
d="M182 685v-103h104v-102h-104v-331q0 -47 50 -47q25 0 61 12v-107q-42 -14 -83 -14q-148 0 -148 145v342h-57v102h62l36 103h79z" />
    <glyph glyph-name="u" unicode="u" horiz-adv-x="461" 
d="M287 582h120v-582h-114v27q-49 -28 -112.5 -28t-97.5 35t-34 101v447h122v-426q0 -48 48 -48q35 0 68 19v455z" />
    <glyph glyph-name="v" unicode="v" horiz-adv-x="418" 
d="M290 582h119l-125 -582h-147l-127 582h121l42 -212q26 -135 38 -277q11 125 38 275z" />
    <glyph glyph-name="w" unicode="w" horiz-adv-x="614" 
d="M482 582h123l-96 -582h-142q-47 332 -58 420q-14 -114 -59 -420h-141l-99 582h125l50 -433l66 433h115l67 -435z" />
    <glyph glyph-name="x" unicode="x" horiz-adv-x="391" 
d="M254 582h130l-127 -289l128 -293h-131l-58 179l-59 -179h-130l125 293l-125 289h130l59 -173z" />
    <glyph glyph-name="y" unicode="y" horiz-adv-x="425" 
d="M295 582h117l-146 -731h-116l29 149h-46l-120 582h119l44 -220q26 -133 38 -269q11 120 38 267z" />
    <glyph glyph-name="z" unicode="z" horiz-adv-x="348" 
d="M24 582h301v-77l-175 -403h177v-102h-307v78l176 402h-172v102z" />
    <glyph glyph-name="braceleft" unicode="{" horiz-adv-x="389" 
d="M236 673v-194q0 -65 -19.5 -101t-70.5 -45q51 -9 70.5 -42.5t19.5 -98.5v-202q0 -49 55 -49h34v-103h-42q-72 0 -111.5 42.5t-39.5 114.5v222q0 31 -18.5 47.5t-53.5 16.5h-4v103h4q72 0 72 63v221q0 72 40 115t111 43h42v-103h-34q-55 0 -55 -50z" />
    <glyph glyph-name="bar" unicode="|" 
d="M67 851h83v-1026h-83v1026z" />
    <glyph glyph-name="braceright" unicode="}" horiz-adv-x="387" 
d="M325 384h4v-103h-4q-35 0 -53.5 -16.5t-18.5 -47.5v-222q0 -72 -40 -114.5t-112 -42.5h-41v103h33q56 0 56 49v202q0 65 19 98.5t71 42.5q-52 9 -71 44.5t-19 101.5v194q0 50 -56 50h-33v103h41q72 0 112 -43t40 -115v-221q0 -63 72 -63z" />
    <glyph glyph-name="asciitilde" unicode="~" horiz-adv-x="550" 
d="M524 376q0 -55 -28 -86q-50 -56 -162 -19l-122 44q-36 17 -60.5 5.5t-17.5 -51.5h-105q-5 23 -5 48q0 55 28 86q51 55 162 19l122 -44q37 -17 61 -6t17 52h105q5 -21 5 -48z" />
    <glyph glyph-name="uni00A0" unicode="&#xa0;" horiz-adv-x="187" 
 />
    <glyph glyph-name="exclamdown" unicode="&#xa1;" horiz-adv-x="299" 
d="M214 -103h-129l16 482h97zM82 524.5q0 66.5 68.5 66.5t68.5 -66.5t-68.5 -66.5t-68.5 66.5z" />
    <glyph glyph-name="cent" unicode="&#xa2;" horiz-adv-x="387" 
d="M282 -71h-111v72q-123 24 -123 156v268q0 133 127 157v72h111v-69q35 -4 65 -12v-112q-50 16 -97 16t-66 -14t-19 -47v-250q0 -33 18.5 -47t66.5 -14t98 16v-111q-38 -11 -70 -13v-68z" />
    <glyph glyph-name="sterling" unicode="&#xa3;" horiz-adv-x="497" 
d="M446 105v-105h-395v103q51 17 62 50q6 18 6 44v101h-63v102h63v104q0 90 51.5 137.5t149.5 47.5q71 0 117 -16v-112q-53 17 -105.5 17t-72.5 -20.5t-20 -62.5v-95h150v-102h-150v-84q0 -46 -12 -69t-35 -40h254z" />
    <glyph glyph-name="currency" unicode="&#xa4;" horiz-adv-x="460" 
d="M417 393v-101q0 -51 -17 -85l47 -46l-70 -70l-50 49q-40 -16 -94.5 -16t-96.5 16l-49 -49l-70 70l47 47q-17 34 -17 84v101q0 51 17 85l-47 46l70 70l50 -49q40 16 94.5 16t96.5 -16l50 49l70 -70l-48 -47q17 -34 17 -84zM163 390v-95q0 -67 69 -67q37 0 53 17t16 50v95
q0 67 -69 67q-37 0 -53 -17t-16 -50z" />
    <glyph glyph-name="yen" unicode="&#xa5;" horiz-adv-x="528" 
d="M486 433v-94h-114l-27 -72h141v-94h-159v-173h-120v173h-164v94h146l-27 72h-119v94h85l-88 245h122l75 -217l32 -102l31 102l74 217h120l-89 -245h81z" />
    <glyph glyph-name="brokenbar" unicode="&#xa6;" 
d="M67 211h83v-386h-83v386zM67 851h83v-385h-83v385z" />
    <glyph glyph-name="section" unicode="&#xa7;" horiz-adv-x="389" 
d="M154 274v-22q0 -20 10 -31.5t39 -27.5l83 -50q83 -49 83 -127v-10q0 -156 -204 -156q-72 0 -126 14v109q43 -15 106 -15t83.5 11.5t20.5 34.5t-11.5 35.5t-48.5 34.5l-74 43q-76 45 -76 128v29h115zM31 537q0 76 45.5 114t146.5 38q70 0 118 -15v-107q-50 15 -104.5 15
t-71 -11.5t-16.5 -36t9 -35.5t37 -26l84 -48q83 -46 83 -127v-29h-117v21q0 19 -12.5 31.5t-50.5 34.5l-75 43q-76 46 -76 128v10z" />
    <glyph glyph-name="dieresis" unicode="&#xa8;" horiz-adv-x="350" 
d="M203 680q0 48 50.5 48t50.5 -48t-50.5 -48t-50.5 48zM46 680q0 48 50.5 48t50.5 -48t-50.5 -48t-50.5 48z" />
    <glyph glyph-name="copyright" unicode="&#xa9;" horiz-adv-x="700" 
d="M567.5 250.5q3.5 32.5 3.5 82t-3 81t-15.5 66.5t-35.5 54q-53 44 -167 44q-113 0 -166 -44q-24 -20 -36.5 -54.5t-15.5 -66.5t-3 -82t3.5 -82t16 -66.5t35.5 -53.5q55 -44 166 -44q112 0 164 45q24 20 37 54t16.5 66.5zM226 391q0 120 134 120q14 0 77 -9v-77
q-42 9 -74.5 9t-41.5 -11t-9 -34v-114q0 -15 2 -23q7 -21 46.5 -21t76.5 7v-76q-63 -9 -77 -9q-134 0 -134 120v118zM40 331q0 77 13.5 133.5t46.5 103.5q68 95 250 95q213 0 274 -131q36 -76 36 -201q0 -76 -14 -132.5t-47.5 -103t-95.5 -71t-153 -24.5t-153.5 24t-96 70.5
t-47 103t-13.5 133.5z" />
    <glyph glyph-name="ordfeminine" unicode="&#xaa;" horiz-adv-x="334" 
d="M113 425v-25q0 -25 11 -36t44.5 -11t55.5 19v122l-60 -15q-28 -8 -39.5 -20.5t-11.5 -33.5zM167 744q136 0 136 -109v-349h-79v36q-28 -33 -84 -33q-105 0 -105 110v33q0 45 27.5 70t86.5 43l75 19v70q-2 39 -58 39t-112 -16v72q46 15 113 15z" />
    <glyph glyph-name="guillemotleft" unicode="&#xab;" horiz-adv-x="573" 
d="M181 505h121l-122 -183l122 -183h-121l-121 183zM394 505h121l-122 -183l122 -183h-121l-121 183z" />
    <glyph glyph-name="logicalnot" unicode="&#xac;" horiz-adv-x="503" 
d="M53 390h396v-216h-122v109h-274v107z" />
    <glyph glyph-name="uni00AD" unicode="&#xad;" horiz-adv-x="280" 
d="M41 381h204v-103h-204v103z" />
    <glyph glyph-name="registered" unicode="&#xae;" horiz-adv-x="570" 
d="M134 700q48 60 173.5 60t173 -59t47.5 -175.5t-48 -176t-173.5 -59.5t-173 59t-47.5 175t48 176zM218.5 356q33.5 -11 88 -11t88.5 11.5t49.5 37.5t20 54t4.5 77t-4.5 77.5t-20 55t-49 37.5t-79.5 11t-73.5 -5t-45 -17t-28.5 -25.5t-16 -36.5q-8 -37 -8 -92t4.5 -83
t20 -54t49 -37zM224 663h80q97 0 97 -86q0 -53 -34 -75l46 -112h-62l-35 98h-35v-98h-57v273zM281 535h17q27 0 37 8t10 33t-9.5 32t-31.5 7h-23v-80z" />
    <glyph glyph-name="macron" unicode="&#xaf;" horiz-adv-x="350" 
d="M50 714h250v-66h-250v66z" />
    <glyph glyph-name="degree" unicode="&#xb0;" horiz-adv-x="414" 
d="M270 665q0 38 -14 57.5t-49 19.5t-48.5 -19.5t-13.5 -57.5t13.5 -57.5t48.5 -19.5t49 19.5t14 57.5zM46 665q0 77 39 122.5t122 45.5t122.5 -45.5t39.5 -122.5t-39.5 -122.5t-122.5 -45.5t-122 45.5t-39 122.5z" />
    <glyph glyph-name="plusminus" unicode="&#xb1;" horiz-adv-x="475" 
d="M436 119l1 -103h-392l-1 103h392zM185 167v111h-141v103h141v110h111v-110h140v-103h-140v-111h-111z" />
    <glyph glyph-name="twosuperior" unicode="&#xb2;" horiz-adv-x="297" 
d="M150 744q121 0 121 -107v-39q0 -60 -49 -95l-68 -50q-29 -20 -35.5 -30t-6.5 -36v-26h159v-72h-238v103q0 40 13.5 62.5t45.5 44.5l73 52q18 13 23 24.5t5 34.5v25q0 20 -10 29t-50 9t-90 -12v72q39 11 107 11z" />
    <glyph glyph-name="threesuperior" unicode="&#xb3;" horiz-adv-x="296" 
d="M135 744q122 0 122 -106v-47q0 -54 -36 -74q36 -19 36 -75v-50q0 -108 -122 -108q-69 0 -107 12v73q51 -13 90.5 -13t50 9t10.5 29v48q0 19 -8 28.5t-33 9.5h-48v72h48q25 0 33 10t8 29v44q0 20 -10.5 29t-46.5 9t-91 -12v73q40 10 104 10z" />
    <glyph glyph-name="acute" unicode="&#xb4;" horiz-adv-x="350" 
d="M149 737h94l-69 -112h-67z" />
    <glyph glyph-name="uni00B5" unicode="&#xb5;" horiz-adv-x="461" 
d="M287 582h120v-582h-114v27q-32 -22 -81 -25q-20 -1 -41 3v-154h-122v731h122v-465q16 -8 49.5 -8t66.5 19v454z" />
    <glyph glyph-name="paragraph" unicode="&#xb6;" horiz-adv-x="441" 
d="M229 685h150v-685h-121v381h-29q-81 0 -125 40t-44 112.5t44.5 112t124.5 39.5z" />
    <glyph glyph-name="periodcentered" unicode="&#xb7;" horiz-adv-x="260" 
d="M67 345.5q0 62.5 62.5 62.5t62.5 -62.5t-62.5 -62.5t-62.5 62.5z" />
    <glyph glyph-name="cedilla" unicode="&#xb8;" horiz-adv-x="350" 
d="M229 -58q19 -17 19 -51.5t-26 -56t-61.5 -21.5t-59.5 6v56q12 -6 37 -6q39 0 39 28t-40 29h-11l17 80h54l-10 -45q23 -2 42 -19z" />
    <glyph glyph-name="onesuperior" unicode="&#xb9;" horiz-adv-x="217" 
d="M175 738v-450h-78v365l-84 -62v88l81 59h81z" />
    <glyph glyph-name="ordmasculine" unicode="&#xba;" horiz-adv-x="326" 
d="M223 636q0 37 -50.5 37t-50.5 -37v-241q0 -38 50.5 -38t50.5 38v241zM44 633q0 113 129 113t129 -113v-236q0 -113 -129 -113t-129 113v236z" />
    <glyph glyph-name="guillemotright" unicode="&#xbb;" horiz-adv-x="571" 
d="M48 505h121l121 -183l-121 -183h-121l122 183zM261 505h121l121 -183l-121 -183h-121l122 183z" />
    <glyph glyph-name="onequarter" unicode="&#xbc;" horiz-adv-x="813" 
d="M521 685h79l-377 -685h-79zM638 154v230l-95 -230h95zM715 450v-296h45v-70h-45v-84h-77v84h-168v74l124 292h121zM202 685v-450h-78v365l-84 -62v88l81 59h81z" />
    <glyph glyph-name="onehalf" unicode="&#xbd;" horiz-adv-x="818" 
d="M521 685h79l-377 -685h-79zM202 685v-450h-78v365l-84 -62v88l81 59h81zM631 455q121 0 121 -107v-39q0 -60 -49 -95l-68 -50q-29 -20 -35.5 -30t-6.5 -36v-26h159v-72h-238v103q0 40 13.5 62.5t45.5 44.5l73 52q18 13 23 24.5t5 34.5v25q0 20 -10 29t-50 9t-90 -12v72
q38 11 107 11z" />
    <glyph glyph-name="threequarters" unicode="&#xbe;" horiz-adv-x="842" 
d="M148 691q120 0 122 -106v-47q0 -55 -37 -74q37 -20 37 -76v-50q0 -107 -123 -107q-65 0 -107 11v73q57 -13 93.5 -13t47 9t10.5 29v48q0 19 -8 28.5t-33 9.5h-48v73h48q25 0 33 10t8 29v43q0 20 -10 29t-49 9t-88 -11v72q33 11 104 11zM555 685h79l-376 -685h-79z
M667 154v230l-96 -230h96zM744 450v-296h45v-70h-45v-84h-77v84h-169v74l125 292h121z" />
    <glyph glyph-name="questiondown" unicode="&#xbf;" horiz-adv-x="407" 
d="M305 525.5q0 -66.5 -68.5 -66.5t-68.5 66.5t68.5 66.5t68.5 -66.5zM230 -112q-201 0 -201 158v89q0 78 35 118t118 41l6 86h99l6 -177h-57q-50 0 -70.5 -16.5t-20.5 -53.5v-76q0 -31 17 -45t81.5 -14t117.5 22v-115q-59 -17 -131 -17z" />
    <glyph glyph-name="Agrave" unicode="&#xc0;" horiz-adv-x="470" 
d="M344 0l-33 171h-154l-32 -171h-115l142 685h167l141 -685h-116zM176 273h115l-58 304zM265 725h-67l-69 112h94z" />
    <glyph glyph-name="Aacute" unicode="&#xc1;" horiz-adv-x="470" 
d="M344 0l-33 171h-154l-32 -171h-115l142 685h167l141 -685h-116zM176 273h115l-58 304zM333 837l-69 -112h-67l42 112h94z" />
    <glyph glyph-name="Acircumflex" unicode="&#xc2;" horiz-adv-x="470" 
d="M344 0l-33 171h-154l-32 -171h-115l142 685h167l141 -685h-116zM176 273h115l-58 304zM239 781l-39 -56h-62l56 112h89l56 -112h-61z" />
    <glyph glyph-name="Atilde" unicode="&#xc3;" horiz-adv-x="470" 
d="M344 0l-33 171h-154l-32 -171h-115l142 685h167l141 -685h-116zM176 273h115l-58 304zM163 735v-6h-68v6q0 44 20 69.5t54.5 25.5t68 -19.5t43.5 -19.5q21 0 21 34v7h68v-9q0 -43 -20.5 -68t-53 -25t-66.5 20t-45 20q-22 0 -22 -35z" />
    <glyph glyph-name="Adieresis" unicode="&#xc4;" horiz-adv-x="470" 
d="M344 0l-33 171h-154l-32 -171h-115l142 685h167l141 -685h-116zM176 273h115l-58 304zM205 780q0 -48 -50.5 -48t-50.5 48t50.5 48t50.5 -48zM362 780q0 -48 -50.5 -48t-50.5 48t50.5 48t50.5 -48z" />
    <glyph glyph-name="Aring" unicode="&#xc5;" horiz-adv-x="470" 
d="M344 0l-33 171h-154l-32 -171h-115l142 685h167l141 -685h-116zM176 273h115l-58 304zM290.5 725q-20.5 -22 -57 -22t-57.5 22t-21 55.5t21 55t57.5 21.5t57 -21.5t20.5 -55t-20.5 -55.5zM233 811q-14 0 -22.5 -8.5t-8.5 -21.5q0 -32 31 -32t31 32q0 13 -8.5 21.5
t-22.5 8.5z" />
    <glyph glyph-name="AE" unicode="&#xc6;" horiz-adv-x="700" 
d="M676 580h-208v-181h181v-105h-181v-189h208v-105h-321v171h-168l-66 -171h-118l280 685h393v-105zM355 273v332l-128 -332h128z" />
    <glyph glyph-name="Ccedilla" unicode="&#xc7;" horiz-adv-x="405" 
d="M289 -58q19 -17 19 -51.5t-26 -56t-61.5 -21.5t-59.5 6v56q12 -6 37 -6q39 0 39 28t-40 29h-11l15 72q-157 17 -157 155v378q0 75 51.5 117t155.5 42q68 0 122 -15v-110q-60 17 -114.5 17t-74 -15.5t-19.5 -45.5v-357q0 -61 87 -61q73 0 124 16v-109q-47 -13 -121 -15
l-8 -34q23 -2 42 -19z" />
    <glyph glyph-name="Egrave" unicode="&#xc8;" horiz-adv-x="412" 
d="M117 837h94l42 -112h-67zM54 685h329v-105h-209v-181h181v-105h-181v-189h209v-105h-329v685z" />
    <glyph glyph-name="Eacute" unicode="&#xc9;" horiz-adv-x="412" 
d="M54 685h329v-105h-209v-181h181v-105h-181v-189h209v-105h-329v685zM225 837h94l-69 -112h-67z" />
    <glyph glyph-name="Ecircumflex" unicode="&#xca;" horiz-adv-x="412" 
d="M383 580h-209v-181h181v-105h-181v-189h209v-105h-329v685h329v-105zM212 781l-39 -56h-62l56 112h89l56 -112h-61z" />
    <glyph glyph-name="Edieresis" unicode="&#xcb;" horiz-adv-x="412" 
d="M54 685h329v-105h-209v-181h181v-105h-181v-189h209v-105h-329v685zM248 780q0 48 50.5 48t50.5 -48t-50.5 -48t-50.5 48zM91 780q0 48 50.5 48t50.5 -48t-50.5 -48t-50.5 48z" />
    <glyph glyph-name="Igrave" unicode="&#xcc;" horiz-adv-x="412" 
d="M116 837h94l42 -112h-67zM54 685h329v-105h-209v-181h181v-105h-181v-189h209v-105h-329v685z" />
    <glyph glyph-name="Iacute" unicode="&#xcd;" horiz-adv-x="412" 
d="M54 685h329v-105h-209v-181h181v-105h-181v-189h209v-105h-329v685zM225 837h94l-69 -112h-67z" />
    <glyph glyph-name="Icircumflex" unicode="&#xce;" horiz-adv-x="229" 
d="M54 0v685h121v-685h-121zM116 781l-39 -56h-62l56 112h89l56 -112h-61z" />
    <glyph glyph-name="Idieresis" unicode="&#xcf;" horiz-adv-x="229" 
d="M142 780q0 48 50.5 48t50.5 -48t-50.5 -48t-50.5 48zM-15 780q0 48 50.5 48t50.5 -48t-50.5 -48t-50.5 48zM54 685h121v-685h-121v685z" />
    <glyph glyph-name="Eth" unicode="&#xd0;" horiz-adv-x="487" 
d="M61 685h218q80 0 123.5 -39.5t43.5 -113.5v-373q0 -159 -161 -159h-224v287h-68v100h68v298zM326 168v360q0 57 -62 57h-83v-198h76v-100h-76v-183h83q62 0 62 64z" />
    <glyph glyph-name="Ntilde" unicode="&#xd1;" horiz-adv-x="520" 
d="M336 832h68v-9q0 -43 -20.5 -68t-53 -25t-66.5 20t-45 20q-22 0 -22 -35v-6h-68v6q0 44 20 69.5t54.5 25.5t68 -19.5t43.5 -19.5q21 0 21 34v7zM347 685h119v-685h-121q-147 375 -168 436.5t-23 67.5q0 -2 5 -37q13 -91 13 -225v-242h-118v685h123q127 -321 147 -378
t29.5 -87.5t11.5 -35.5q0 4 -5 38q-13 100 -13 227v236z" />
    <glyph glyph-name="Ograve" unicode="&#xd2;" horiz-adv-x="477" 
d="M132 837h94l42 -112h-67zM313 518q0 68 -74.5 68t-74.5 -68v-351q0 -68 74.5 -68t74.5 68v351zM44 524q0 78 49 124.5t145 46.5t145.5 -46.5t49.5 -124.5v-363q0 -78 -49.5 -124.5t-145.5 -46.5t-145 46.5t-49 124.5v363z" />
    <glyph glyph-name="Oacute" unicode="&#xd3;" horiz-adv-x="477" 
d="M313 518q0 68 -74.5 68t-74.5 -68v-351q0 -68 74.5 -68t74.5 68v351zM44 524q0 78 49 124.5t145 46.5t145.5 -46.5t49.5 -124.5v-363q0 -78 -49.5 -124.5t-145.5 -46.5t-145 46.5t-49 124.5v363zM252 837h94l-69 -112h-67z" />
    <glyph glyph-name="Ocircumflex" unicode="&#xd4;" horiz-adv-x="477" 
d="M44 161v363q0 78 49 124.5t145 46.5t145.5 -46.5t49.5 -124.5v-363q0 -78 -49.5 -124.5t-145.5 -46.5t-145 46.5t-49 124.5zM313 167v351q0 68 -74.5 68t-74.5 -68v-351q0 -68 74.5 -68t74.5 68zM240 781l-39 -56h-62l56 112h89l56 -112h-61z" />
    <glyph glyph-name="Otilde" unicode="&#xd5;" horiz-adv-x="477" 
d="M306 832h68v-9q0 -43 -20.5 -68t-53 -25t-66.5 20t-45 20q-22 0 -22 -35v-6h-68v6q0 44 20 69.5t54.5 25.5t68 -19.5t43.5 -19.5q21 0 21 34v7zM313 518q0 68 -74.5 68t-74.5 -68v-351q0 -68 74.5 -68t74.5 68v351zM44 524q0 78 49 124.5t145 46.5t145.5 -46.5
t49.5 -124.5v-363q0 -78 -49.5 -124.5t-145.5 -46.5t-145 46.5t-49 124.5v363z" />
    <glyph glyph-name="Odieresis" unicode="&#xd6;" horiz-adv-x="477" 
d="M313 518q0 68 -74.5 68t-74.5 -68v-351q0 -68 74.5 -68t74.5 68v351zM44 524q0 78 49 124.5t145 46.5t145.5 -46.5t49.5 -124.5v-363q0 -78 -49.5 -124.5t-145.5 -46.5t-145 46.5t-49 124.5v363zM266 780q0 48 50.5 48t50.5 -48t-50.5 -48t-50.5 48zM109 780
q0 48 50.5 48t50.5 -48t-50.5 -48t-50.5 48z" />
    <glyph glyph-name="multiply" unicode="&#xd7;" horiz-adv-x="448" 
d="M409 218l-73 -73l-113 113l-113 -113l-72 73l113 113l-112 112l73 72l112 -111l111 111l73 -72l-112 -112z" />
    <glyph glyph-name="Oslash" unicode="&#xd8;" horiz-adv-x="477" 
d="M433 524v-363q0 -78 -49.5 -124.5t-145.5 -46.5q-69 0 -114 25l-7 -15h-76l29 63q-26 41 -26 98v363q0 78 49 124.5t145 46.5q68 0 115 -25l7 15h76l-30 -63q27 -42 27 -98zM164 518v-254l138 296q-20 26 -64 26q-74 0 -74 -68zM313 167v254l-138 -296q18 -26 63 -26
q75 0 75 68z" />
    <glyph glyph-name="Ugrave" unicode="&#xd9;" horiz-adv-x="484" 
d="M140 837h94l42 -112h-67zM315 685h120v-524q0 -78 -49 -124.5t-144.5 -46.5t-144 46.5t-48.5 124.5v524h120v-518q0 -68 73 -68t73 68v518z" />
    <glyph glyph-name="Uacute" unicode="&#xda;" horiz-adv-x="484" 
d="M315 685h120v-524q0 -78 -49 -124.5t-144.5 -46.5t-144 46.5t-48.5 124.5v524h120v-518q0 -68 73 -68t73 68v518zM250 837h94l-69 -112h-67z" />
    <glyph glyph-name="Ucircumflex" unicode="&#xdb;" horiz-adv-x="484" 
d="M315 685h120v-524q0 -78 -49 -124.5t-144.5 -46.5t-144 46.5t-48.5 124.5v524h120v-518q0 -68 73 -68t73 68v518zM242 781l-39 -56h-62l56 112h89l56 -112h-61z" />
    <glyph glyph-name="Udieresis" unicode="&#xdc;" horiz-adv-x="484" 
d="M315 685h120v-524q0 -78 -49 -124.5t-144.5 -46.5t-144 46.5t-48.5 124.5v524h120v-518q0 -68 73 -68t73 68v518zM269 780q0 48 50.5 48t50.5 -48t-50.5 -48t-50.5 48zM112 780q0 48 50.5 48t50.5 -48t-50.5 -48t-50.5 48z" />
    <glyph glyph-name="Yacute" unicode="&#xdd;" horiz-adv-x="454" 
d="M234 838h94l-69 -112h-67zM288 0h-121v220l-165 465h123l46 -134q37 -113 58 -204q25 101 58 205l45 133h121l-165 -465v-220z" />
    <glyph glyph-name="Thorn" unicode="&#xde;" horiz-adv-x="444" 
d="M180 575h78q80 0 124.5 -40t44.5 -113v-159q0 -73 -44.5 -112.5t-124.5 -39.5h-78v-111h-116v685h116v-110zM312 275v136q0 61 -63 61h-69v-258h69q63 0 63 61z" />
    <glyph glyph-name="germandbls" unicode="&#xdf;" horiz-adv-x="557" 
d="M54 533q0 92 51.5 141t145.5 49t147.5 -45t53.5 -124q0 -38 -16 -71t-31.5 -57t-15.5 -40v-11q0 -31 73 -78q76 -53 76 -120v-30q0 -151 -192 -151q-53 0 -113 14v108q53 -16 102.5 -16t68 13t18.5 41v12q0 20 -16 36.5t-53 42.5q-43 28 -64.5 54.5t-21.5 60.5v18
q0 34 32.5 85.5t32.5 82.5q0 69 -77 69q-45 0 -66 -22.5t-21 -71.5v-523h-114v533z" />
    <glyph glyph-name="agrave" unicode="&#xe0;" horiz-adv-x="433" 
d="M108 737h94l42 -112h-67zM142 168v-29q0 -51 53 -51q41 0 72 22v146l-71 -20q-33 -9 -43.5 -23t-10.5 -45zM53 568q57 19 151 19t137 -41.5t43 -124.5v-421h-114v42q-39 -45 -109.5 -45t-103.5 35t-33 107v34q0 61 29 96t94 53l121 33v67q-1 31 -18 45t-78 14t-119 -21
v108z" />
    <glyph glyph-name="aacute" unicode="&#xe1;" horiz-adv-x="433" 
d="M214 737h94l-69 -112h-67zM142 168v-29q0 -51 53 -51q41 0 72 22v146l-71 -20q-33 -9 -43.5 -23t-10.5 -45zM53 568q57 19 151 19t137 -41.5t43 -124.5v-421h-114v42q-39 -45 -109.5 -45t-103.5 35t-33 107v34q0 61 29 96t94 53l121 33v67q-1 31 -18 45t-78 14t-119 -21
v108z" />
    <glyph glyph-name="acircumflex" unicode="&#xe2;" horiz-adv-x="433" 
d="M53 568q57 19 151 19t137 -41.5t43 -124.5v-421h-114v42q-39 -45 -109.5 -45t-103.5 35t-33 107v34q0 61 29 96t94 53l121 33v67q-1 31 -18 45t-78 14t-119 -21v108zM142 168v-29q0 -51 53 -51q41 0 72 22v146l-71 -20q-33 -9 -43.5 -23t-10.5 -45zM215 681l-39 -56h-62
l56 112h89l56 -112h-61z" />
    <glyph glyph-name="atilde" unicode="&#xe3;" horiz-adv-x="433" 
d="M281 732h68v-9q0 -43 -20.5 -68t-53 -25t-66.5 20t-45 20q-22 0 -22 -35v-6h-68v6q0 44 20 69.5t54.5 25.5t68 -19.5t43.5 -19.5q21 0 21 34v7zM142 168v-29q0 -51 53 -51q41 0 72 22v146l-71 -20q-33 -9 -43.5 -23t-10.5 -45zM53 568q57 19 151 19t137 -41.5t43 -124.5
v-421h-114v42q-39 -45 -109.5 -45t-103.5 35t-33 107v34q0 61 29 96t94 53l121 33v67q-1 31 -18 45t-78 14t-119 -21v108z" />
    <glyph glyph-name="adieresis" unicode="&#xe4;" horiz-adv-x="433" 
d="M238 680q0 48 50.5 48t50.5 -48t-50.5 -48t-50.5 48zM81 680q0 48 50.5 48t50.5 -48t-50.5 -48t-50.5 48zM142 168v-29q0 -51 53 -51q41 0 72 22v146l-71 -20q-33 -9 -43.5 -23t-10.5 -45zM53 568q57 19 151 19t137 -41.5t43 -124.5v-421h-114v42q-39 -45 -109.5 -45
t-103.5 35t-33 107v34q0 61 29 96t94 53l121 33v67q-1 31 -18 45t-78 14t-119 -21v108z" />
    <glyph glyph-name="aring" unicode="&#xe5;" horiz-adv-x="433" 
d="M240 681q0 13 -8.5 21.5t-22.5 8.5t-22.5 -8.5t-8.5 -21.5q0 -32 31 -32t31 32zM152 625q-21 22 -21 55.5t21 55t57.5 21.5t57 -21.5t20.5 -55t-20.5 -55.5t-57 -22t-57.5 22zM142 168v-29q0 -51 53 -51q41 0 72 22v146l-71 -20q-33 -9 -43.5 -23t-10.5 -45zM53 568
q57 19 151 19t137 -41.5t43 -124.5v-421h-114v42q-39 -45 -109.5 -45t-103.5 35t-33 107v34q0 61 29 96t94 53l121 33v67q-1 31 -18 45t-78 14t-119 -21v108z" />
    <glyph glyph-name="ae" unicode="&#xe6;" horiz-adv-x="653" 
d="M509 432q0 59 -62 59q-32 0 -48.5 -15.5t-16.5 -43.5v-97h127v97zM142 168v-29q0 -51 53 -51q42 0 74 21v148l-73 -20q-33 -9 -43.5 -23.5t-10.5 -45.5zM322 554q48 38 131 38t126 -42.5t43 -116.5v-192h-240v-73q0 -37 23 -52.5t81 -15.5t120 19v-107
q-62 -18 -147.5 -18t-134.5 38q-52 -36 -149 -36q-148 0 -148 142v35q0 61 28.5 96t91.5 54l120 36v69q0 26 -17 39.5t-80 13.5t-117 -22v108q66 20 145.5 20t123.5 -33z" />
    <glyph glyph-name="ccedilla" unicode="&#xe7;" horiz-adv-x="374" 
d="M270 -58q19 -17 19 -51.5t-26 -56t-61.5 -21.5t-59.5 6v56q12 -6 37 -6q39 0 39 28t-40 29h-11l15 72q-138 19 -138 159v268q0 162 186 162q64 0 117 -14v-112q-50 16 -97 16t-66 -14t-19 -47v-250q0 -33 18.5 -47t66.5 -14t98 16v-111q-50 -15 -112 -15l-8 -34
q23 -2 42 -19z" />
    <glyph glyph-name="egrave" unicode="&#xe8;" horiz-adv-x="434" 
d="M44 159v274q0 74 44.5 116.5t134.5 42.5t132.5 -42.5t42.5 -116.5v-192h-237v-73q0 -36 21 -52t80 -16t121 19v-107q-62 -18 -138 -18q-201 0 -201 165zM161 335h125v97q0 59 -62.5 59t-62.5 -59v-97zM258 625h-67l-69 112h94z" />
    <glyph glyph-name="eacute" unicode="&#xe9;" horiz-adv-x="434" 
d="M44 159v274q0 74 44.5 116.5t134.5 42.5t132.5 -42.5t42.5 -116.5v-192h-237v-73q0 -36 21 -52t80 -16t121 19v-107q-62 -18 -138 -18q-201 0 -201 165zM161 335h125v97q0 59 -62.5 59t-62.5 -59v-97zM325 737l-69 -112h-67l42 112h94z" />
    <glyph glyph-name="ecircumflex" unicode="&#xea;" horiz-adv-x="434" 
d="M44 159v274q0 74 44.5 116.5t134.5 42.5t132.5 -42.5t42.5 -116.5v-192h-237v-73q0 -36 21 -52t80 -16t121 19v-107q-62 -18 -138 -18q-201 0 -201 165zM161 335h125v97q0 59 -62.5 59t-62.5 -59v-97zM228 681l-39 -56h-62l56 112h89l56 -112h-61z" />
    <glyph glyph-name="edieresis" unicode="&#xeb;" horiz-adv-x="434" 
d="M44 159v274q0 74 44.5 116.5t134.5 42.5t132.5 -42.5t42.5 -116.5v-192h-237v-73q0 -36 21 -52t80 -16t121 19v-107q-62 -18 -138 -18q-201 0 -201 165zM161 335h125v97q0 59 -62.5 59t-62.5 -59v-97zM196 680q0 -48 -50.5 -48t-50.5 48t50.5 48t50.5 -48zM353 680
q0 -48 -50.5 -48t-50.5 48t50.5 48t50.5 -48z" />
    <glyph glyph-name="igrave" unicode="&#xec;" horiz-adv-x="229" 
d="M6 737h94l42 -112h-67zM54 571h121v-571h-121v571z" />
    <glyph glyph-name="iacute" unicode="&#xed;" horiz-adv-x="229" 
d="M121 737h94l-69 -112h-67zM54 571h121v-571h-121v571z" />
    <glyph glyph-name="icircumflex" unicode="&#xee;" horiz-adv-x="229" 
d="M54 0v571h121v-571h-121zM116 681l-39 -56h-62l56 112h89l56 -112h-61z" />
    <glyph glyph-name="idieresis" unicode="&#xef;" horiz-adv-x="229" 
d="M142 680q0 48 50.5 48t50.5 -48t-50.5 -48t-50.5 48zM-15 680q0 48 50.5 48t50.5 -48t-50.5 -48t-50.5 48zM54 571h121v-571h-121v571z" />
    <glyph glyph-name="eth" unicode="&#xf0;" horiz-adv-x="453" 
d="M407 309v-154q0 -76 -45.5 -119t-134 -43t-133.5 42.5t-45 118.5v155q0 148 145 148q52 0 81 -35q-16 62 -55 127l-108 -48v65l75 34q-24 34 -70 85h139q22 -27 32 -40l100 45v-66l-66 -30q85 -142 85 -285zM291 157v191q-15 17 -56 17t-55.5 -14t-14.5 -46v-147
q0 -60 63 -60t63 59z" />
    <glyph glyph-name="ntilde" unicode="&#xf1;" horiz-adv-x="459" 
d="M300 732h68v-9q0 -43 -20.5 -68t-53 -25t-66.5 20t-45 20q-22 0 -22 -35v-6h-68v6q0 44 20 69.5t54.5 25.5t68 -19.5t43.5 -19.5q21 0 21 34v7zM168 556q58 29 115 29t92 -32.5t35 -95.5v-457h-123v431q0 43 -44 43q-34 0 -68 -19v-455h-121v582h114v-26z" />
    <glyph glyph-name="ograve" unicode="&#xf2;" horiz-adv-x="447" 
d="M127 737h94l42 -112h-67zM284 430q0 59 -60.5 59t-60.5 -59v-278q0 -59 60.5 -59t60.5 59v278zM44 433q0 74 44.5 116.5t135 42.5t135 -42.5t44.5 -116.5v-284q0 -74 -44.5 -116.5t-135 -42.5t-135 42.5t-44.5 116.5v284z" />
    <glyph glyph-name="oacute" unicode="&#xf3;" horiz-adv-x="447" 
d="M284 430q0 59 -60.5 59t-60.5 -59v-278q0 -59 60.5 -59t60.5 59v278zM44 433q0 74 44.5 116.5t135 42.5t135 -42.5t44.5 -116.5v-284q0 -74 -44.5 -116.5t-135 -42.5t-135 42.5t-44.5 116.5v284zM236 737h94l-69 -112h-67z" />
    <glyph glyph-name="ocircumflex" unicode="&#xf4;" horiz-adv-x="447" 
d="M44 149v284q0 74 44.5 116.5t135 42.5t135 -42.5t44.5 -116.5v-284q0 -74 -44.5 -116.5t-135 -42.5t-135 42.5t-44.5 116.5zM284 152v278q0 59 -60.5 59t-60.5 -59v-278q0 -59 60.5 -59t60.5 59zM227 681l-39 -56h-62l56 112h89l56 -112h-61z" />
    <glyph glyph-name="otilde" unicode="&#xf5;" horiz-adv-x="447" 
d="M295 732h68v-9q0 -43 -20.5 -68t-53 -25t-66.5 20t-45 20q-22 0 -22 -35v-6h-68v6q0 44 20 69.5t54.5 25.5t68 -19.5t43.5 -19.5q21 0 21 34v7zM284 430q0 59 -60.5 59t-60.5 -59v-278q0 -59 60.5 -59t60.5 59v278zM44 433q0 74 44.5 116.5t135 42.5t135 -42.5
t44.5 -116.5v-284q0 -74 -44.5 -116.5t-135 -42.5t-135 42.5t-44.5 116.5v284z" />
    <glyph glyph-name="odieresis" unicode="&#xf6;" horiz-adv-x="447" 
d="M284 430q0 59 -60.5 59t-60.5 -59v-278q0 -59 60.5 -59t60.5 59v278zM44 433q0 74 44.5 116.5t135 42.5t135 -42.5t44.5 -116.5v-284q0 -74 -44.5 -116.5t-135 -42.5t-135 42.5t-44.5 116.5v284zM256 680q0 48 50.5 48t50.5 -48t-50.5 -48t-50.5 48zM99 680q0 48 50.5 48
t50.5 -48t-50.5 -48t-50.5 48z" />
    <glyph glyph-name="divide" unicode="&#xf7;" horiz-adv-x="475" 
d="M175 499.5q0 62.5 62.5 62.5t62.5 -62.5t-62.5 -62.5t-62.5 62.5zM175 156.5q0 62.5 62.5 62.5t62.5 -62.5t-62.5 -62.5t-62.5 62.5zM41 380h392v-103h-392v103z" />
    <glyph glyph-name="oslash" unicode="&#xf8;" horiz-adv-x="447" 
d="M403 433v-284q0 -74 -44.5 -116.5t-127.5 -42.5t-128 31l-12 -21h-58l33 60q-22 35 -22 89v284q0 74 44.5 116.5t128 42.5t129.5 -33l13 23h58l-35 -62q21 -36 21 -87zM163 430v-198l120 214q-8 43 -59 43q-61 0 -61 -59zM284 152v193l-119 -213q10 -39 59 -39
q60 0 60 59z" />
    <glyph glyph-name="ugrave" unicode="&#xf9;" horiz-adv-x="461" 
d="M119 737h94l42 -112h-67zM287 582h120v-582h-114v27q-49 -28 -112.5 -28t-97.5 35t-34 101v447h122v-426q0 -48 48 -48q35 0 68 19v455z" />
    <glyph glyph-name="uacute" unicode="&#xfa;" horiz-adv-x="461" 
d="M287 582h120v-582h-114v27q-49 -28 -112.5 -28t-97.5 35t-34 101v447h122v-426q0 -48 48 -48q35 0 68 19v455zM239 737h94l-69 -112h-67z" />
    <glyph glyph-name="ucircumflex" unicode="&#xfb;" horiz-adv-x="461" 
d="M287 582h120v-582h-114v27q-49 -28 -112.5 -28t-97.5 35t-34 101v447h122v-426q0 -48 48 -48q35 0 68 19v455zM231 681l-39 -56h-62l56 112h89l56 -112h-61z" />
    <glyph glyph-name="udieresis" unicode="&#xfc;" horiz-adv-x="461" 
d="M287 582h120v-582h-114v27q-49 -28 -112.5 -28t-97.5 35t-34 101v447h122v-426q0 -48 48 -48q35 0 68 19v455zM257 680q0 48 50.5 48t50.5 -48t-50.5 -48t-50.5 48zM100 680q0 48 50.5 48t50.5 -48t-50.5 -48t-50.5 48z" />
    <glyph glyph-name="yacute" unicode="&#xfd;" horiz-adv-x="425" 
d="M216 737h94l-69 -112h-67zM295 582h117l-146 -731h-116l29 149h-46l-120 582h119l44 -220q26 -133 38 -269q11 120 38 267z" />
    <glyph glyph-name="thorn" unicode="&#xfe;" horiz-adv-x="460" 
d="M291 432q0 43 -46 43q-34 0 -70 -18v-349h57q59 0 59 54v270zM54 737h120v-178q57 26 113 26t91 -32.5t35 -95.5v-309q0 -73 -41 -110.5t-110 -37.5h-87v-164h-121v901z" />
    <glyph glyph-name="ydieresis" unicode="&#xff;" horiz-adv-x="425" 
d="M295 582h117l-146 -731h-116l29 149h-46l-120 582h119l44 -220q26 -133 38 -269q11 120 38 267zM240 680q0 48 50.5 48t50.5 -48t-50.5 -48t-50.5 48zM83 680q0 48 50.5 48t50.5 -48t-50.5 -48t-50.5 48z" />
    <glyph glyph-name="Amacron" unicode="&#x100;" horiz-adv-x="470" 
d="M344 0l-33 171h-154l-32 -171h-115l142 685h167l141 -685h-116zM176 273h115l-58 304zM358 814v-66h-250v66h250z" />
    <glyph glyph-name="amacron" unicode="&#x101;" horiz-adv-x="433" 
d="M92 714h250v-66h-250v66zM142 168v-29q0 -51 53 -51q41 0 72 22v146l-71 -20q-33 -9 -43.5 -23t-10.5 -45zM53 568q57 19 151 19t137 -41.5t43 -124.5v-421h-114v42q-39 -45 -109.5 -45t-103.5 35t-33 107v34q0 61 29 96t94 53l121 33v67q-1 31 -18 45t-78 14t-119 -21
v108z" />
    <glyph glyph-name="Abreve" unicode="&#x102;" horiz-adv-x="470" 
d="M344 0l-33 171h-154l-32 -171h-115l142 685h167l141 -685h-116zM176 273h115l-58 304zM282 837h67q0 -50 -32.5 -81t-83.5 -31t-83 31t-33 81h67q0 -24 13 -38.5t36 -14.5t36 14.5t13 38.5z" />
    <glyph glyph-name="abreve" unicode="&#x103;" horiz-adv-x="433" 
d="M261 737h67q0 -50 -32.5 -81t-83.5 -31t-83 31t-33 81h67q0 -24 13 -38.5t36 -14.5t36 14.5t13 38.5zM142 168v-29q0 -51 53 -51q41 0 72 22v146l-71 -20q-33 -9 -43.5 -23t-10.5 -45zM53 568q57 19 151 19t137 -41.5t43 -124.5v-421h-114v42q-39 -45 -109.5 -45
t-103.5 35t-33 107v34q0 61 29 96t94 53l121 33v67q-1 31 -18 45t-78 14t-119 -21v108z" />
    <glyph glyph-name="Aogonek" unicode="&#x104;" horiz-adv-x="470" 
d="M417 -94q0 -36 32 -36h11v-61h-20q-43 0 -66.5 20t-23.5 55q0 64 64 116h-70l-33 171h-154l-32 -171h-115l142 685h167l141 -685q-43 -40 -43 -94zM176 273h115l-58 304z" />
    <glyph glyph-name="aogonek" unicode="&#x105;" horiz-adv-x="433" 
d="M53 568q57 19 151 19t137 -41.5t43 -124.5v-421h-2q-43 -40 -43 -94q0 -36 32 -36h11v-61h-20q-43 0 -66.5 20t-23.5 55q0 64 64 116h-66v42q-39 -45 -109.5 -45t-103.5 35t-33 107v34q0 61 29 96t94 53l121 33v67q-1 31 -18 45t-78 14t-119 -21v108zM142 168v-29
q0 -51 53 -51q41 0 72 22v146l-71 -20q-33 -9 -43.5 -23t-10.5 -45z" />
    <glyph glyph-name="Cacute" unicode="&#x106;" horiz-adv-x="405" 
d="M44 531q0 75 51.5 117t155.5 42q68 0 122 -15v-110q-60 17 -114.5 17t-74 -15.5t-19.5 -45.5v-357q0 -61 87 -61q73 0 124 16v-109q-54 -15 -127 -15q-205 0 -205 158v378zM248 837h94l-69 -112h-67z" />
    <glyph glyph-name="cacute" unicode="&#x107;" horiz-adv-x="374" 
d="M44 425q0 162 186 162q64 0 117 -14v-112q-50 16 -97 16t-66 -14t-19 -47v-250q0 -33 18.5 -47t66.5 -14t98 16v-111q-52 -15 -118 -15q-186 0 -186 162v268zM235 737h94l-69 -112h-67z" />
    <glyph glyph-name="Ccaron" unicode="&#x10c;" horiz-adv-x="405" 
d="M165 521v-357q0 -61 87 -61q73 0 124 16v-109q-54 -15 -127 -15q-205 0 -205 158v378q0 75 51.5 117t155.5 42q68 0 122 -15v-110q-60 17 -114.5 17t-74 -15.5t-19.5 -45.5zM192 725l-56 112h62l39 -56l39 56h61l-56 -112h-89z" />
    <glyph glyph-name="ccaron" unicode="&#x10d;" horiz-adv-x="374" 
d="M165 416v-250q0 -33 18.5 -47t66.5 -14t98 16v-111q-52 -15 -118 -15q-186 0 -186 162v268q0 162 186 162q64 0 117 -14v-112q-50 16 -97 16t-66 -14t-19 -47zM181 625l-56 112h62l39 -56l39 56h61l-56 -112h-89z" />
    <glyph glyph-name="Dcaron" unicode="&#x10e;" horiz-adv-x="483" 
d="M54 685h218q80 0 123.5 -39.5t43.5 -113.5v-373q0 -159 -161 -159h-224v685zM319 168v360q0 57 -62 57h-83v-481h83q62 0 62 64zM186 725l-56 112h62l39 -56l39 56h61l-56 -112h-89z" />
    <glyph glyph-name="dcaron" unicode="&#x10f;" horiz-adv-x="476" 
d="M506 736q32 0 32 -29q0 -21 -18.5 -56t-35.5 -57h-43l26 142h39zM282 474h-52q-65 0 -65 -63v-257q0 -48 48 -48q43 0 69 20v348zM281 737h121v-737h-117v39q-43 -43 -108 -43t-99 36.5t-34 102.5v279q0 79 44.5 123.5t129.5 44.5h63v155z" />
    <glyph glyph-name="Dcroat" unicode="&#x110;" horiz-adv-x="487" 
d="M61 685h218q80 0 123.5 -39.5t43.5 -113.5v-373q0 -159 -161 -159h-224v289h-63v100h63v296zM326 168v360q0 57 -62 57h-83v-196h73v-100h-73v-185h83q62 0 62 64z" />
    <glyph glyph-name="dcroat" unicode="&#x111;" horiz-adv-x="458" 
d="M444 690v-57h-40v-633h-117v39q-43 -43 -108 -43t-99 36.5t-34 102.5v279q0 79 44.5 123.5t129.5 44.5h63v51h-126v57h126v47h121v-47h40zM284 474h-52q-65 0 -65 -63v-257q0 -48 48 -48q43 0 69 20v348z" />
    <glyph glyph-name="Emacron" unicode="&#x112;" horiz-adv-x="412" 
d="M91 814h250v-66h-250v66zM54 685h329v-105h-209v-181h181v-105h-181v-189h209v-105h-329v685z" />
    <glyph glyph-name="emacron" unicode="&#x113;" horiz-adv-x="434" 
d="M44 159v274q0 74 44.5 116.5t134.5 42.5t132.5 -42.5t42.5 -116.5v-192h-237v-73q0 -36 21 -52t80 -16t121 19v-107q-62 -18 -138 -18q-201 0 -201 165zM161 335h125v97q0 59 -62.5 59t-62.5 -59v-97zM347 714v-66h-250v66h250z" />
    <glyph glyph-name="Edotaccent" unicode="&#x116;" horiz-adv-x="412" 
d="M170 789q0 48 50.5 48t50.5 -48t-50.5 -48t-50.5 48zM54 685h329v-105h-209v-181h181v-105h-181v-189h209v-105h-329v685z" />
    <glyph glyph-name="edotaccent" unicode="&#x117;" horiz-adv-x="434" 
d="M44 159v274q0 74 44.5 116.5t134.5 42.5t132.5 -42.5t42.5 -116.5v-192h-237v-73q0 -36 21 -52t80 -16t121 19v-107q-62 -18 -138 -18q-201 0 -201 165zM161 335h125v97q0 59 -62.5 59t-62.5 -59v-97zM275 689q0 -48 -50.5 -48t-50.5 48t50.5 48t50.5 -48z" />
    <glyph glyph-name="Eogonek" unicode="&#x118;" horiz-adv-x="412" 
d="M383 580h-209v-181h181v-105h-181v-189h209v-105h-1q-43 -40 -43 -94q0 -36 32 -36h11v-61h-20q-43 0 -66.5 20t-23.5 55q0 64 64 116h-282v685h329v-105z" />
    <glyph glyph-name="eogonek" unicode="&#x119;" horiz-adv-x="434" 
d="M44 159v274q0 74 44.5 116.5t134.5 42.5t132.5 -42.5t42.5 -116.5v-192h-237v-73q0 -36 21 -52t80 -16t121 19v-107l-4 -1q-40 -38 -40 -91q0 -36 32 -36h11v-61h-20q-43 0 -66.5 20t-23.5 55q0 52 46 100q-38 -4 -73 -4q-201 0 -201 165zM161 335h125v97q0 59 -62.5 59
t-62.5 -59v-97z" />
    <glyph glyph-name="Ecaron" unicode="&#x11a;" horiz-adv-x="412" 
d="M383 580h-209v-181h181v-105h-181v-189h209v-105h-329v685h329v-105zM171 725l-56 112h62l39 -56l39 56h61l-56 -112h-89z" />
    <glyph glyph-name="ecaron" unicode="&#x11b;" horiz-adv-x="434" 
d="M44 159v274q0 74 44.5 116.5t134.5 42.5t132.5 -42.5t42.5 -116.5v-192h-237v-73q0 -36 21 -52t80 -16t121 19v-107q-62 -18 -138 -18q-201 0 -201 165zM161 335h125v97q0 59 -62.5 59t-62.5 -59v-97zM180 625l-56 112h62l39 -56l39 56h61l-56 -112h-89z" />
    <glyph glyph-name="Gbreve" unicode="&#x11e;" horiz-adv-x="461" 
d="M292 837h67q0 -50 -32.5 -81t-83.5 -31t-83 31t-33 81h67q0 -24 13 -38.5t36 -14.5t36 14.5t13 38.5zM44 527q0 76 54.5 119.5t147.5 43.5t147 -18v-114q-61 22 -132 22q-96 0 -96 -65v-351q0 -61 80 -61q35 0 56 13v240h118v-320q-78 -41 -175 -41t-148.5 40.5
t-51.5 117.5v374z" />
    <glyph glyph-name="gbreve" unicode="&#x11f;" horiz-adv-x="452" 
d="M441 532h-34q-13 0 -31 -4q24 -36 24 -89v-83q0 -72 -44.5 -112.5t-133.5 -41.5q-37 0 -37 -34q0 -17 11 -24t38 -7h56q147 0 147 -122v-21q0 -68 -49.5 -106t-150.5 -38h-38q-114 0 -175 39v111q70 -48 172 -48h27q57 0 79 11t22 34v7q0 18 -10.5 26t-38.5 8h-60
q-137 0 -137 88v16q0 59 54 71q-101 31 -101 143v83q0 73 46 113t126 40t122 -21q21 70 101 70h15v-109zM280 356v82q0 57 -64.5 57t-64.5 -57v-82q0 -56 64.5 -56t64.5 56zM262 737h67q0 -50 -32.5 -81t-83.5 -31t-83 31t-33 81h67q0 -24 13 -38.5t36 -14.5t36 14.5
t13 38.5z" />
    <glyph glyph-name="uni0122" unicode="&#x122;" horiz-adv-x="461" 
d="M260 -61q32 0 32 -30q0 -21 -18.5 -55.5t-35.5 -56.5h-42l25 142h39zM44 527q0 76 54.5 119.5t147.5 43.5t147 -18v-114q-61 22 -132 22q-96 0 -96 -65v-351q0 -61 80 -61q35 0 56 13v240h118v-320q-78 -41 -175 -41t-148.5 40.5t-51.5 117.5v374z" />
    <glyph glyph-name="uni0123" unicode="&#x123;" horiz-adv-x="452" 
d="M441 532h-34q-13 0 -31 -4q24 -36 24 -89v-83q0 -72 -44.5 -112.5t-133.5 -41.5q-37 0 -37 -34q0 -17 11 -24t38 -7h56q147 0 147 -122v-21q0 -68 -49.5 -106t-150.5 -38h-38q-114 0 -175 39v111q70 -48 172 -48h27q57 0 79 11t22 34v7q0 18 -10.5 26t-38.5 8h-60
q-137 0 -137 88v16q0 59 54 71q-101 31 -101 143v83q0 73 46 113t126 40t122 -21q21 70 101 70h15v-109zM280 356v82q0 57 -64.5 57t-64.5 -57v-82q0 -56 64.5 -56t64.5 56zM208 625q-32 0 -32 29q0 21 18.5 56t35.5 57h43l-26 -142h-39z" />
    <glyph glyph-name="Imacron" unicode="&#x12a;" horiz-adv-x="229" 
d="M-7 814h250v-66h-250v66zM54 685h121v-685h-121v685z" />
    <glyph glyph-name="imacron" unicode="&#x12b;" horiz-adv-x="229" 
d="M-10 714h250v-66h-250v66zM54 571h121v-571h-121v571z" />
    <glyph glyph-name="Iogonek" unicode="&#x12e;" horiz-adv-x="229" 
d="M175 685v-685q-43 -40 -43 -94q0 -36 32 -36h11v-61h-20q-43 0 -66.5 20t-23.5 55q0 64 64 116h-75v685h121z" />
    <glyph glyph-name="iogonek" unicode="&#x12f;" horiz-adv-x="229" 
d="M54 0v571h121v-571h-1q-43 -40 -43 -94q0 -36 32 -36h11v-61h-20q-43 0 -66.5 20t-23.5 55q0 64 64 116h-74zM183 683q0 -66 -68.5 -66t-68.5 66t68.5 66t68.5 -66z" />
    <glyph glyph-name="Idotaccent" unicode="&#x130;" horiz-adv-x="229" 
d="M62 789q0 48 50.5 48t50.5 -48t-50.5 -48t-50.5 48zM54 685h121v-685h-121v685z" />
    <glyph glyph-name="dotlessi" unicode="&#x131;" horiz-adv-x="229" 
d="M54 571h121v-571h-121v571z" />
    <glyph glyph-name="uni0136" unicode="&#x136;" horiz-adv-x="466" 
d="M255 -61q32 0 32 -30q0 -39 -53 -112h-43l25 142h39zM54 685h120v-685h-120v685zM317 685h129l-132 -335l142 -350h-133l-135 348z" />
    <glyph glyph-name="uni0137" unicode="&#x137;" horiz-adv-x="422" 
d="M224 -61q32 0 32 -30q0 -39 -53 -112h-43l25 142h39zM54 737h117v-737h-117v737zM279 582h121l-101 -277l114 -305h-128l-105 310z" />
    <glyph glyph-name="Lacute" unicode="&#x139;" horiz-adv-x="373" 
d="M54 685h121v-583h193v-102h-314v685zM120 837h94l-69 -112h-67z" />
    <glyph glyph-name="lacute" unicode="&#x13a;" horiz-adv-x="229" 
d="M54 737h121v-737h-121v737zM122 887h94l-69 -112h-67z" />
    <glyph glyph-name="uni013B" unicode="&#x13b;" horiz-adv-x="373" 
d="M211 -61q32 0 32 -30q0 -21 -18.5 -55.5t-35.5 -56.5h-43l26 142h39zM54 685h121v-583h193v-102h-314v685z" />
    <glyph glyph-name="uni013C" unicode="&#x13c;" horiz-adv-x="229" 
d="M120 -61q32 0 32 -30q0 -21 -18.5 -55.5t-35.5 -56.5h-42l25 142h39zM54 737h121v-737h-121v737z" />
    <glyph glyph-name="Lcaron" unicode="&#x13d;" horiz-adv-x="373" 
d="M175 102h193v-102h-314v685h121v-583zM66 725l-56 112h62l39 -56l39 56h61l-56 -112h-89z" />
    <glyph glyph-name="lcaron" unicode="&#x13e;" horiz-adv-x="229" 
d="M277 736q32 0 32 -29q0 -21 -18.5 -56t-35.5 -57h-42l25 142h39zM54 737h121v-737h-121v737z" />
    <glyph glyph-name="Lslash" unicode="&#x141;" horiz-adv-x="374" 
d="M182 102h193v-102h-314v269l-55 -24v83l55 24v333h121v-279l91 40v-83l-91 -40v-221z" />
    <glyph glyph-name="lslash" unicode="&#x142;" horiz-adv-x="232" 
d="M176 0h-121v407l-48 -22v83l48 22v247h121v-192l49 22v-83l-49 -22v-462z" />
    <glyph glyph-name="Nacute" unicode="&#x143;" horiz-adv-x="520" 
d="M347 685h119v-685h-121q-147 375 -168 436.5t-23 67.5q0 -2 5 -37q13 -91 13 -225v-242h-118v685h123q127 -321 147 -378t29.5 -87.5t11.5 -35.5q0 4 -5 38q-13 100 -13 227v236zM259 837h94l-69 -112h-67z" />
    <glyph glyph-name="nacute" unicode="&#x144;" horiz-adv-x="459" 
d="M168 556q58 29 115 29t92 -32.5t35 -95.5v-457h-123v431q0 43 -44 43q-34 0 -68 -19v-455h-121v582h114v-26zM229 737h94l-69 -112h-67z" />
    <glyph glyph-name="uni0145" unicode="&#x145;" horiz-adv-x="520" 
d="M259 -61q32 0 32 -30q0 -21 -18.5 -55.5t-35.5 -56.5h-42l25 142h39zM347 685h119v-685h-121q-147 375 -168 436.5t-23 67.5q0 -2 5 -37q13 -91 13 -225v-242h-118v685h123q127 -321 147 -378t29.5 -87.5t11.5 -35.5q0 4 -5 38q-13 100 -13 227v236z" />
    <glyph glyph-name="uni0146" unicode="&#x146;" horiz-adv-x="459" 
d="M235 -61q32 0 32 -30q0 -21 -18.5 -55.5t-35.5 -56.5h-43l26 142h39zM168 556q58 29 115 29t92 -32.5t35 -95.5v-457h-123v431q0 43 -44 43q-34 0 -68 -19v-455h-121v582h114v-26z" />
    <glyph glyph-name="Ncaron" unicode="&#x147;" horiz-adv-x="520" 
d="M347 685h119v-685h-121q-147 375 -168 436.5t-23 67.5q0 -2 5 -37q13 -91 13 -225v-242h-118v685h123q127 -321 147 -378t29.5 -87.5t11.5 -35.5q0 4 -5 38q-13 100 -13 227v236zM210 725l-56 112h62l39 -56l39 56h61l-56 -112h-89z" />
    <glyph glyph-name="ncaron" unicode="&#x148;" horiz-adv-x="459" 
d="M168 582v-26q58 29 115 29t92 -32.5t35 -95.5v-457h-123v431q0 43 -44 43q-34 0 -68 -19v-455h-121v582h114zM179 625l-56 112h62l39 -56l39 56h61l-56 -112h-89z" />
    <glyph glyph-name="Omacron" unicode="&#x14c;" horiz-adv-x="477" 
d="M313 518q0 68 -74.5 68t-74.5 -68v-351q0 -68 74.5 -68t74.5 68v351zM44 524q0 78 49 124.5t145 46.5t145.5 -46.5t49.5 -124.5v-363q0 -78 -49.5 -124.5t-145.5 -46.5t-145 46.5t-49 124.5v363zM115 814h250v-66h-250v66z" />
    <glyph glyph-name="omacron" unicode="&#x14d;" horiz-adv-x="447" 
d="M284 430q0 59 -60.5 59t-60.5 -59v-278q0 -59 60.5 -59t60.5 59v278zM44 433q0 74 44.5 116.5t135 42.5t135 -42.5t44.5 -116.5v-284q0 -74 -44.5 -116.5t-135 -42.5t-135 42.5t-44.5 116.5v284zM98 714h250v-66h-250v66z" />
    <glyph glyph-name="Ohungarumlaut" unicode="&#x150;" horiz-adv-x="477" 
d="M313 518q0 68 -74.5 68t-74.5 -68v-351q0 -68 74.5 -68t74.5 68v351zM44 524q0 78 49 124.5t145 46.5t145.5 -46.5t49.5 -124.5v-363q0 -78 -49.5 -124.5t-145.5 -46.5t-145 46.5t-49 124.5v363zM196 837h86l-73 -112h-59zM303 837h86l-73 -112h-59z" />
    <glyph glyph-name="ohungarumlaut" unicode="&#x151;" horiz-adv-x="447" 
d="M284 430q0 59 -60.5 59t-60.5 -59v-278q0 -59 60.5 -59t60.5 59v278zM44 433q0 74 44.5 116.5t135 42.5t135 -42.5t44.5 -116.5v-284q0 -74 -44.5 -116.5t-135 -42.5t-135 42.5t-44.5 116.5v284zM187 737h86l-73 -112h-59zM294 737h86l-73 -112h-59z" />
    <glyph glyph-name="OE" unicode="&#x152;" horiz-adv-x="696" 
d="M669 580h-209v-181h181v-105h-181v-189h209v-105h-445q-160 0 -160 159v373q0 74 43.5 113.5t123.5 39.5h438v-105zM245 104h95v481h-95q-61 0 -61 -57v-360q0 -64 61 -64z" />
    <glyph glyph-name="oe" unicode="&#x153;" horiz-adv-x="690" 
d="M47 149v284q0 74 44.5 116.5t128.5 42.5t128 -32q44 32 127.5 32t126 -42.5t42.5 -116.5v-192h-237v-73q0 -36 21 -52t80 -16t121 19v-107q-62 -18 -144 -18t-132 31q-46 -35 -131.5 -35t-130 42.5t-44.5 116.5zM287 152v278q0 59 -60.5 59t-60.5 -59v-278
q0 -59 60.5 -59t60.5 59zM407 335h125v97q0 59 -62.5 59t-62.5 -59v-97z" />
    <glyph glyph-name="Racute" unicode="&#x154;" horiz-adv-x="472" 
d="M174 258v-258h-120v685h202q81 0 125.5 -39.5t44.5 -112.5v-117q0 -116 -84 -146l108 -270h-132l-95 258h-49zM174 582v-227h70q33 0 47.5 14.5t14.5 47.5v107q0 58 -62 58h-70zM328 837l-69 -112h-67l42 112h94z" />
    <glyph glyph-name="racute" unicode="&#x155;" horiz-adv-x="307" 
d="M282 585h20v-112h-27q-52 0 -100 -30v-443h-121v582h114v-41q29 19 40 25q33 19 74 19zM198 737h94l-69 -112h-67z" />
    <glyph glyph-name="uni0156" unicode="&#x156;" horiz-adv-x="472" 
d="M174 258v-258h-120v685h202q81 0 125.5 -39.5t44.5 -112.5v-117q0 -116 -84 -146l108 -270h-132l-95 258h-49zM174 582v-227h70q33 0 47.5 14.5t14.5 47.5v107q0 58 -62 58h-70zM248 -61q32 0 32 -30q0 -21 -18.5 -55.5t-35.5 -56.5h-42l25 142h39z" />
    <glyph glyph-name="uni0157" unicode="&#x157;" horiz-adv-x="307" 
d="M120 -61q32 0 32 -30q0 -21 -18.5 -55.5t-35.5 -56.5h-42l25 142h39zM282 585h20v-112h-27q-52 0 -100 -30v-443h-121v582h114v-41q29 19 40 25q33 19 74 19z" />
    <glyph glyph-name="Rcaron" unicode="&#x158;" horiz-adv-x="472" 
d="M174 258v-258h-120v685h202q81 0 125.5 -39.5t44.5 -112.5v-117q0 -116 -84 -146l108 -270h-132l-95 258h-49zM174 582v-227h70q33 0 47.5 14.5t14.5 47.5v107q0 58 -62 58h-70zM180 725l-56 112h62l39 -56l39 56h61l-56 -112h-89z" />
    <glyph glyph-name="rcaron" unicode="&#x159;" horiz-adv-x="307" 
d="M282 585h20v-112h-27q-52 0 -100 -30v-443h-121v582h114v-41q29 19 40 25q33 19 74 19zM136 625l-56 112h62l39 -56l39 56h61l-56 -112h-89z" />
    <glyph glyph-name="Sacute" unicode="&#x15a;" horiz-adv-x="420" 
d="M23 533q0 75 50 116t143.5 41t145.5 -19v-115q-58 23 -137 23t-79 -60v-27q0 -30 11 -46.5t43 -33.5l115 -65q81 -44 81 -134v-59q0 -76 -55 -117.5t-157 -41.5t-153 22v116q64 -27 145 -27q99 0 99 62v26q0 26 -10.5 40.5t-38.5 29.5l-110 60q-93 51 -93 147v62z
M220 837h94l-69 -112h-67z" />
    <glyph glyph-name="sacute" unicode="&#x15b;" horiz-adv-x="378" 
d="M24 434q0 77 45 115t147 38q66 0 118 -16v-107q-46 16 -102.5 16t-73 -12.5t-16.5 -40.5v-14q0 -20 9.5 -31.5t37.5 -28.5l83 -49q83 -49 83 -127v-26q0 -156 -204 -156q-72 0 -126 14v109q49 -15 108 -15t80.5 13t21.5 39v14q0 20 -11.5 32t-48.5 33l-75 44
q-76 44 -76 127v29zM208 737h94l-69 -112h-67z" />
    <glyph glyph-name="uni015E" unicode="&#x15e;" horiz-adv-x="420" 
d="M206 -61q32 0 32 -30q0 -21 -18.5 -55.5t-35.5 -56.5h-43l26 142h39zM23 533q0 75 50 116t143.5 41t145.5 -19v-115q-58 23 -137 23t-79 -60v-27q0 -30 11 -46.5t43 -33.5l115 -65q81 -44 81 -134v-59q0 -76 -55 -117.5t-157 -41.5t-153 22v116q64 -27 145 -27
q99 0 99 62v26q0 26 -10.5 40.5t-38.5 29.5l-110 60q-93 51 -93 147v62z" />
    <glyph glyph-name="uni015F" unicode="&#x15f;" horiz-adv-x="378" 
d="M190 -61q32 0 32 -30q0 -21 -18.5 -55.5t-35.5 -56.5h-42l25 142h39zM24 434q0 77 45 115t147 38q66 0 118 -16v-107q-46 16 -102.5 16t-73 -12.5t-16.5 -40.5v-14q0 -20 9.5 -31.5t37.5 -28.5l83 -49q83 -49 83 -127v-26q0 -156 -204 -156q-72 0 -126 14v109
q49 -15 108 -15t80.5 13t21.5 39v14q0 20 -11.5 32t-48.5 33l-75 44q-76 44 -76 127v29z" />
    <glyph glyph-name="Scaron" unicode="&#x160;" horiz-adv-x="420" 
d="M396 213v-59q0 -76 -55 -117.5t-157 -41.5t-153 22v116q64 -27 145 -27q99 0 99 62v26q0 26 -10.5 40.5t-38.5 29.5l-110 60q-93 51 -93 147v62q0 75 50 116t143.5 41t145.5 -19v-115q-58 23 -137 23t-79 -60v-27q0 -30 11 -46.5t43 -33.5l115 -65q81 -44 81 -134z
M164 725l-56 112h62l39 -56l39 56h61l-56 -112h-89z" />
    <glyph glyph-name="scaron" unicode="&#x161;" horiz-adv-x="378" 
d="M355 177v-26q0 -156 -204 -156q-72 0 -126 14v109q49 -15 108 -15t80.5 13t21.5 39v14q0 20 -11.5 32t-48.5 33l-75 44q-76 44 -76 127v29q0 77 45 115t147 38q66 0 118 -16v-107q-46 16 -102.5 16t-73 -12.5t-16.5 -40.5v-14q0 -20 9.5 -31.5t37.5 -28.5l83 -49
q83 -49 83 -127zM156 625l-56 112h62l39 -56l39 56h61l-56 -112h-89z" />
    <glyph glyph-name="uni0162" unicode="&#x162;" horiz-adv-x="389" 
d="M382 685v-105h-127v-580h-121v580h-127v105h375zM202 -61q32 0 32 -34t-54 -108h-43l25 142h40z" />
    <glyph glyph-name="uni0163" unicode="&#x163;" horiz-adv-x="308" 
d="M190 -61q32 0 32 -30q0 -21 -18.5 -55.5t-35.5 -56.5h-42l25 142h39zM182 685v-103h104v-102h-104v-331q0 -47 50 -47q25 0 61 12v-107q-42 -14 -83 -14q-148 0 -148 145v342h-57v102h62l36 103h79z" />
    <glyph glyph-name="Tcaron" unicode="&#x164;" horiz-adv-x="389" 
d="M382 685v-105h-127v-580h-121v580h-127v105h375zM148 725l-56 112h62l39 -56l39 56h61l-56 -112h-89z" />
    <glyph glyph-name="tcaron" unicode="&#x165;" horiz-adv-x="308" 
d="M182 685v-103h104v-102h-104v-331q0 -47 50 -47q25 0 61 12v-107q-42 -14 -83 -14q-148 0 -148 145v342h-57v102h62l36 103h79zM327 820q39 0 39 -36q0 -28 -23 -75t-45 -78h-49l33 189h45z" />
    <glyph glyph-name="Umacron" unicode="&#x16a;" horiz-adv-x="484" 
d="M117 814h250v-66h-250v66zM315 685h120v-524q0 -78 -49 -124.5t-144.5 -46.5t-144 46.5t-48.5 124.5v524h120v-518q0 -68 73 -68t73 68v518z" />
    <glyph glyph-name="umacron" unicode="&#x16b;" horiz-adv-x="461" 
d="M103 714h250v-66h-250v66zM287 582h120v-582h-114v27q-49 -28 -112.5 -28t-97.5 35t-34 101v447h122v-426q0 -48 48 -48q35 0 68 19v455z" />
    <glyph glyph-name="Uring" unicode="&#x16e;" horiz-adv-x="484" 
d="M315 685h120v-524q0 -78 -49 -124.5t-144.5 -46.5t-144 46.5t-48.5 124.5v524h120v-518q0 -68 73 -68t73 68v518zM274 781q0 13 -8.5 21.5t-22.5 8.5t-22.5 -8.5t-8.5 -21.5q0 -32 31 -32t31 32zM186 725q-21 22 -21 55.5t21 55t57.5 21.5t57 -21.5t20.5 -55t-20.5 -55.5
t-57 -22t-57.5 22z" />
    <glyph glyph-name="uring" unicode="&#x16f;" horiz-adv-x="461" 
d="M287 582h120v-582h-114v27q-49 -28 -112.5 -28t-97.5 35t-34 101v447h122v-426q0 -48 48 -48q35 0 68 19v455zM257 681q0 13 -8.5 21.5t-22.5 8.5t-22.5 -8.5t-8.5 -21.5q0 -32 31 -32t31 32zM169 625q-21 22 -21 55.5t21 55t57.5 21.5t57 -21.5t20.5 -55t-20.5 -55.5
t-57 -22t-57.5 22z" />
    <glyph glyph-name="Uhungarumlaut" unicode="&#x170;" horiz-adv-x="484" 
d="M195 837h86l-73 -112h-59zM302 837h86l-73 -112h-59zM315 685h120v-524q0 -78 -49 -124.5t-144.5 -46.5t-144 46.5t-48.5 124.5v524h120v-518q0 -68 73 -68t73 68v518z" />
    <glyph glyph-name="uhungarumlaut" unicode="&#x171;" horiz-adv-x="461" 
d="M185 737h86l-73 -112h-59zM292 737h86l-73 -112h-59zM287 582h120v-582h-114v27q-49 -28 -112.5 -28t-97.5 35t-34 101v447h122v-426q0 -48 48 -48q35 0 68 19v455z" />
    <glyph glyph-name="Uogonek" unicode="&#x172;" horiz-adv-x="484" 
d="M315 685h120v-524q0 -115 -98 -155q-39 -39 -39 -90q0 -36 32 -36h11v-61h-20q-43 0 -66.5 20t-23.5 55q0 51 44 98q-20 -2 -33 -2q-96 0 -144.5 46.5t-48.5 124.5v524h120v-518q0 -68 73 -68t73 68v518z" />
    <glyph glyph-name="uogonek" unicode="&#x173;" horiz-adv-x="461" 
d="M407 582v-582q-43 -40 -43 -94q0 -36 32 -36h11v-61h-20q-43 0 -66.5 20t-23.5 55q0 64 64 116h-68v27q-49 -28 -112.5 -28t-97.5 35t-34 101v447h122v-426q0 -48 48 -48q35 0 68 19v455h120z" />
    <glyph glyph-name="Ydieresis" unicode="&#x178;" horiz-adv-x="454" 
d="M288 0h-121v220l-165 465h123l46 -134q37 -113 58 -204q25 101 58 205l45 133h121l-165 -465v-220zM255 780q0 48 50.5 48t50.5 -48t-50.5 -48t-50.5 48zM98 780q0 48 50.5 48t50.5 -48t-50.5 -48t-50.5 48z" />
    <glyph glyph-name="Zacute" unicode="&#x179;" horiz-adv-x="409" 
d="M28 685h355v-98l-234 -485h235v-102h-361v102l230 481h-225v102zM210 837h94l-69 -112h-67z" />
    <glyph glyph-name="zacute" unicode="&#x17a;" horiz-adv-x="348" 
d="M24 582h301v-77l-175 -403h177v-102h-307v78l176 402h-172v102zM184 737h94l-69 -112h-67z" />
    <glyph glyph-name="Zdotaccent" unicode="&#x17b;" horiz-adv-x="409" 
d="M155 789q0 48 50.5 48t50.5 -48t-50.5 -48t-50.5 48zM28 685h355v-98l-234 -485h235v-102h-361v102l230 481h-225v102z" />
    <glyph glyph-name="zdotaccent" unicode="&#x17c;" horiz-adv-x="348" 
d="M125 689q0 48 50.5 48t50.5 -48t-50.5 -48t-50.5 48zM24 582h301v-77l-175 -403h177v-102h-307v78l176 402h-172v102z" />
    <glyph glyph-name="Zcaron" unicode="&#x17d;" horiz-adv-x="409" 
d="M384 102v-102h-361v102l230 481h-225v102h355v-98l-234 -485h235zM158 725l-56 112h62l39 -56l39 56h61l-56 -112h-89z" />
    <glyph glyph-name="zcaron" unicode="&#x17e;" horiz-adv-x="348" 
d="M327 102v-102h-307v78l176 402h-172v102h301v-77l-175 -403h177zM132 625l-56 112h62l39 -56l39 56h61l-56 -112h-89z" />
    <glyph glyph-name="florin" unicode="&#x192;" horiz-adv-x="361" 
d="M319 737q23 0 45 -3v-95q-16 2 -36 2q-42 0 -51 -59l-10 -68h64v-96h-78l-38 -266q-11 -78 -47.5 -117t-115.5 -39q-15 0 -45 4v95q16 -2 36 -2q41 0 50 58l39 267h-78v96h92l10 67q11 78 47 117t116 39z" />
    <glyph glyph-name="uni0218" unicode="&#x218;" horiz-adv-x="420" 
d="M213 -61q32 0 32 -34t-54 -108h-43l26 142h39zM23 533q0 75 50 116t143.5 41t145.5 -19v-115q-58 23 -137 23t-79 -60v-27q0 -30 11 -46.5t43 -33.5l115 -65q81 -44 81 -134v-59q0 -76 -55 -117.5t-157 -41.5t-153 22v116q64 -27 145 -27q99 0 99 62v26q0 26 -10.5 40.5
t-38.5 29.5l-110 60q-93 51 -93 147v62z" />
    <glyph glyph-name="uni0219" unicode="&#x219;" horiz-adv-x="378" 
d="M200 -61q32 0 32 -30q0 -21 -18.5 -55.5t-35.5 -56.5h-43l26 142h39zM24 434q0 77 45 115t147 38q66 0 118 -16v-107q-46 16 -102.5 16t-73 -12.5t-16.5 -40.5v-14q0 -20 9.5 -31.5t37.5 -28.5l83 -49q83 -49 83 -127v-26q0 -156 -204 -156q-72 0 -126 14v109
q49 -15 108 -15t80.5 13t21.5 39v14q0 20 -11.5 32t-48.5 33l-75 44q-76 44 -76 127v29z" />
    <glyph glyph-name="uni021A" unicode="&#x21a;" horiz-adv-x="389" 
d="M382 685v-105h-127v-580h-121v580h-127v105h375zM200 -61q32 0 32 -30q0 -21 -18.5 -55.5t-35.5 -56.5h-43l26 142h39z" />
    <glyph glyph-name="uni021B" unicode="&#x21b;" horiz-adv-x="308" 
d="M191 -61q32 0 32 -30q0 -21 -18.5 -55.5t-35.5 -56.5h-43l26 142h39zM182 685v-103h104v-102h-104v-331q0 -47 50 -47q25 0 61 12v-107q-42 -14 -83 -14q-148 0 -148 145v342h-57v102h62l36 103h79z" />
    <glyph glyph-name="circumflex" unicode="&#x2c6;" horiz-adv-x="350" 
d="M275 625h-61l-39 56l-39 -56h-62l56 112h89z" />
    <glyph glyph-name="caron" unicode="&#x2c7;" horiz-adv-x="350" 
d="M214 737h61l-56 -112h-89l-56 112h62l39 -56z" />
    <glyph glyph-name="uni02C9" unicode="&#x2c9;" horiz-adv-x="350" 
d="M50 714h250v-66h-250v66z" />
    <glyph glyph-name="breve" unicode="&#x2d8;" horiz-adv-x="350" 
d="M224 737h67q0 -50 -32.5 -81t-83.5 -31t-83 31t-33 81h67q0 -24 13 -38.5t36 -14.5t36 14.5t13 38.5z" />
    <glyph glyph-name="dotaccent" unicode="&#x2d9;" horiz-adv-x="350" 
d="M124 689q0 48 50.5 48t50.5 -48t-50.5 -48t-50.5 48z" />
    <glyph glyph-name="ring" unicode="&#x2da;" horiz-adv-x="350" 
d="M206 681q0 13 -8.5 21.5t-22.5 8.5t-22.5 -8.5t-8.5 -21.5q0 -32 31 -32t31 32zM118 625q-21 22 -21 55.5t21 55t57.5 21.5t57 -21.5t20.5 -55t-20.5 -55.5t-57 -22t-57.5 22z" />
    <glyph glyph-name="ogonek" unicode="&#x2db;" horiz-adv-x="350" 
d="M188 -94q0 -36 32 -36h11v-61h-20q-43 0 -66.5 20t-23.5 55q0 64 64 116h46q-43 -40 -43 -94z" />
    <glyph glyph-name="tilde" unicode="&#x2dc;" horiz-adv-x="350" 
d="M244 732h68v-9q0 -43 -20.5 -68t-53 -25t-66.5 20t-45 20q-22 0 -22 -35v-6h-68v6q0 44 20 69.5t54.5 25.5t68 -19.5t43.5 -19.5q21 0 21 34v7z" />
    <glyph glyph-name="hungarumlaut" unicode="&#x2dd;" horiz-adv-x="350" 
d="M101 737h86l-73 -112h-59zM208 737h86l-73 -112h-59z" />
    <glyph glyph-name="pi" unicode="&#x3c0;" horiz-adv-x="459" 
d="M54 582h419v-102h-63v-480h-123v480h-112v-480h-121v582z" />
    <glyph glyph-name="uni0901" unicode="&#x901;" horiz-adv-x="0" 
d="M-28 880h110v-4q0 -149 -191 -149t-191 149v4h110q0 -31 18.5 -44t62 -13t62.5 13t19 44zM-168 940q0 59 59 59t59 -59t-59 -59t-59 59z" />
    <glyph glyph-name="uni0902" unicode="&#x902;" horiz-adv-x="0" 
d="M-109 727q-63 0 -63 62.5t63 62.5q61 0 61 -62.5t-61 -62.5z" />
    <glyph glyph-name="uni0903" unicode="&#x903;" horiz-adv-x="231" 
d="M47 62.5q0 62.5 62.5 62.5t62.5 -62.5t-62.5 -62.5t-62.5 62.5zM47 405.5q0 62.5 62.5 62.5t62.5 -62.5t-62.5 -62.5t-62.5 62.5z" />
    <glyph glyph-name="uni0905" unicode="&#x905;" horiz-adv-x="591" 
d="M426 663h199v-94h-88v-569h-111v213h-88v-20q-2 -158 -191 -158q-60 0 -107 14v102q51 -14 106 -14q82 0 82 60v53q0 29 -14 44t-50 16h-60v103h60q36 0 50 14t14 43v36q0 30 -18.5 45t-66 15t-90.5 -14v103q37 13 95 13q190 0 190 -158v-40q0 -83 -47 -109
q28 -15 39 -52h96v354z" />
    <glyph glyph-name="uni0906" unicode="&#x906;" horiz-adv-x="818" 
d="M852 663v-94h-87v-569h-112v569h-107v-569h-111v213h-88v-20q-2 -158 -191 -158q-60 0 -107 14v102q51 -14 106 -14q82 0 82 60v53q0 29 -14 44t-50 16h-60v103h60q36 0 50 14t14 43v36q0 30 -18.5 45t-66 15t-90.5 -14v103q37 13 95 13q190 0 190 -158v-40
q0 -83 -47 -109q28 -15 39 -52h96v354h417z" />
    <glyph glyph-name="uni0907" unicode="&#x907;" horiz-adv-x="411" 
d="M150 170v-57q31 -7 62 -7q61 0 61 49v25q0 48 -56 48h-25q-160 0 -160 133v9q0 70 39 102t121 32h54v65h-280v94h479v-94h-88v-162h-165q-28 0 -38.5 -9.5t-10.5 -30.5v-4q0 -21 11 -31t38 -10h25q86 0 126.5 -34t40.5 -105v-31q0 -74 -37 -110t-123 -36q-42 0 -74 8v-90
h-110v246h110z" />
    <glyph glyph-name="uni0908" unicode="&#x908;" horiz-adv-x="411" 
d="M357 407h-165q-28 0 -38.5 -9.5t-10.5 -30.5v-4q0 -21 11 -31t38 -10h25q86 0 126.5 -34t40.5 -105v-31q0 -74 -37 -110t-123 -36q-42 0 -74 8v-90h-110v246h110v-57q31 -7 62 -7q61 0 61 49v25q0 48 -56 48h-25q-160 0 -160 133v9q0 70 39 102t121 32h54v65h-280v94h278
q-29 62 -29 107q0 69 38 98t91.5 29t73.5 -5v-99q-12 3 -32 3q-58 0 -58 -48q0 -35 25 -85h92v-94h-88v-162z" />
    <glyph glyph-name="uni0909" unicode="&#x909;" horiz-adv-x="403" 
d="M241 514q0 33 -12 55h-263v94h471v-94h-96q11 -18 11 -55v-80q0 -79 -44 -102q44 -24 44 -103v-74q0 -159 -194 -159q-51 0 -116 14v102q67 -15 115 -15q84 0 84 60v65q0 28 -13.5 44t-48.5 16h-61v103h68q33 0 44 13.5t11 39.5v76z" />
    <glyph glyph-name="uni090A" unicode="&#x90a;" horiz-adv-x="587" 
d="M241 514q0 33 -12 55h-263v94h655v-94h-280q11 -18 11 -55v-80q0 -40 -11 -65q38 9 70 9q152 0 152 -142v-87q0 -73 -36 -112t-105 -39l-26 2v103h8q28 0 38 11t10 38v65q0 58 -59 58h-46q5 -23 5 -46v-74q0 -159 -194 -159q-51 0 -116 14v102q67 -15 115 -15q84 0 84 60
v65q0 28 -13.5 44t-48.5 16h-61v103h68q33 0 44 13.5t11 39.5v76z" />
    <glyph glyph-name="uni090B" unicode="&#x90b;" horiz-adv-x="723" 
d="M757 569h-336v-134q46 -8 87 -8q70 0 70 57v12h108v-309h-45q-61 0 -61 -65q0 -63 75 -63q29 0 57 5v-94q-30 -5 -70 -5q-79 0 -125 37t-46 108q0 140 111 150v83q-26 -19 -72 -19t-89 8v-332h-105v52q0 104 8 154h-3q-18 -43 -70 -98l-81 -90h-139l-1 4l280 296v64
q-40 12 -85 12t-65.5 -17.5t-20.5 -53.5v-61h-107v68q0 167 183 167q55 0 95 -12v84h-344v94h791v-94z" />
    <glyph glyph-name="uni090C" unicode="&#x90c;" horiz-adv-x="637" 
d="M583 569v-538q-42 6 -79 6t-51.5 -12t-14.5 -41.5t15.5 -40.5t41 -11t90.5 9v-102q-48 -10 -88 -10q-82 0 -125.5 39.5t-43.5 115.5q0 143 144 154v239q-21 9 -49 9q-57 0 -57 -51v-118h-111v118q0 51 -53 51q-31 0 -42 -13.5t-11 -38.5v-159q0 -35 16.5 -54t60.5 -19
q10 0 43 3v-101q-20 -4 -46 -4q-96 0 -140.5 42.5t-44.5 128.5v167q0 72 40.5 111.5t120.5 39.5t109 -52q35 51 106 51q29 0 58 -8v89h-506v94h705v-94h-88z" />
    <glyph glyph-name="uni090D" unicode="&#x90d;" horiz-adv-x="436" 
d="M303 880h111v-3q0 -150 -191 -150q-96 0 -144 36t-48 114v3h110q0 -31 19 -43.5t62.5 -12.5t62 13t18.5 43zM242 -5q-99 0 -145 41.5t-46 125.5v407h-85v94h504v-94h-79v-168q0 -72 -33 -108.5t-113 -36.5q-14 0 -21 1v103h12q26 0 35 10.5t9 37.5v161h-117v-403
q0 -35 18.5 -51.5t74 -16.5t112.5 19v-102q-54 -20 -126 -20z" />
    <glyph glyph-name="uni090E" unicode="&#x90e;" horiz-adv-x="436" 
d="M390 663h80v-94h-79v-168q0 -72 -33 -108.5t-113 -36.5q-14 0 -21 1v103h12q26 0 35 10.5t9 37.5v161h-117v-403q0 -35 18.5 -51.5t74 -16.5t112.5 19v-102q-54 -20 -126 -20q-99 0 -145 41.5t-46 125.5v407h-85v94h315q0 35 -17 52.5t-63 17.5q-98 0 -141 36t-43 124
h110q0 -35 17 -52t63 -17q96 0 139.5 -38.5t43.5 -122.5z" />
    <glyph glyph-name="uni090F" unicode="&#x90f;" horiz-adv-x="436" 
d="M244 -5q-100 0 -146.5 41.5t-46.5 128.5v404h-85v94h504v-94h-79v-168q0 -72 -33 -108.5t-113 -36.5q-14 0 -21 1v103h12q26 0 35 10.5t9 37.5v161h-117v-401q0 -36 18.5 -53t74 -17t114.5 19v-102q-56 -20 -126 -20z" />
    <glyph glyph-name="uni0910" unicode="&#x910;" horiz-adv-x="436" 
d="M470 663v-94h-79v-168q0 -72 -33 -108.5t-113 -36.5q-14 0 -21 1v103h12q26 0 35 10.5t9 37.5v161h-117v-403q0 -35 18.5 -51.5t74 -16.5t112.5 19v-102q-54 -20 -126 -20q-99 0 -145 41.5t-46 125.5v407h-85v94h309l-165 230h124l154 -230h82z" />
    <glyph glyph-name="uni0911" unicode="&#x911;" horiz-adv-x="819" 
d="M853 663v-94h-88v-569h-111v569h-108v-569h-111v213h-88v-20q-2 -158 -191 -158q-60 0 -107 14v102q51 -14 106 -14q82 0 82 60v53q0 29 -14 44t-50 16h-60v103h60q36 0 50 14t14 43v36q0 30 -18.5 45t-66 15t-90.5 -14v103q37 13 95 13q190 0 190 -158v-40
q0 -83 -47 -109q28 -15 39 -52h96v354h418zM797 878v-4q0 -149 -191 -149t-191 149v4h110q0 -31 18.5 -43.5t62 -12.5t62 13t18.5 43h111z" />
    <glyph glyph-name="uni0912" unicode="&#x912;" horiz-adv-x="819" 
d="M764 663h88v-94h-87v-569h-112v569h-107v-569h-111v213h-88v-20q-2 -158 -191 -158q-60 0 -107 14v102q51 -14 106 -14q82 0 82 60v53q0 29 -14 44t-50 16h-60v103h60q36 0 50 14t14 43v36q0 30 -18.5 45t-66 15t-90.5 -14v103q37 13 95 13q190 0 190 -158v-40
q0 -83 -47 -109q28 -15 39 -52h96v354h219q0 35 -16.5 52.5t-62.5 17.5q-97 0 -140.5 36t-43.5 124h110q0 -35 16.5 -52t63.5 -17q95 0 139 -38.5t44 -122.5z" />
    <glyph glyph-name="uni0913" unicode="&#x913;" horiz-adv-x="819" 
d="M852 663v-94h-87v-569h-112v569h-107v-569h-111v213h-88v-20q-2 -158 -191 -158q-60 0 -107 14v102q51 -14 106 -14q82 0 82 60v53q0 29 -14 44t-50 16h-60v103h60q36 0 50 14t14 43v36q0 30 -18.5 45t-66 15t-90.5 -14v103q37 13 95 13q190 0 190 -158v-40
q0 -83 -47 -109q28 -15 39 -52h96v354h216l-65 95q-29 41 -73 41q-17 0 -26 -1v92q19 3 53 3q73 0 126 -80l99 -150h87z" />
    <glyph glyph-name="uni0914" unicode="&#x914;" horiz-adv-x="819" 
d="M852 663v-94h-87v-569h-112v569h-107v-569h-111v213h-88v-20q-2 -158 -191 -158q-60 0 -107 14v102q51 -14 106 -14q82 0 82 60v53q0 29 -14 44t-50 16h-60v103h60q36 0 50 14t14 43v36q0 30 -18.5 45t-66 15t-90.5 -14v103q37 13 95 13q190 0 190 -158v-40
q0 -83 -47 -109q28 -15 39 -52h96v354h99l-70 95q-32 41 -73 41q-17 0 -26 -1v92q20 3 51 3q63 0 126 -87l102 -143h20l-31 92q-8 24 -16.5 33.5t-22.5 9.5t-20 -1v93q16 3 32 3q83 0 111 -90l43 -140h92z" />
    <glyph glyph-name="uni0915" unicode="&#x915;" horiz-adv-x="613" 
d="M143 203q0 -52 53 -52q27 0 56 8v410h-286v94h680v-94h-285v-71q21 7 64 7q151 0 151 -145v-151q0 -72 -33 -108.5t-108 -36.5q-6 0 -22 2v104l14 -1q25 1 33.5 12.5t8.5 37.5v138q0 25 -12.5 38t-42 13t-53.5 -6v-402h-109v66q-48 -8 -66 -8q-77 0 -113.5 34.5
t-36.5 105.5v162q0 145 150 145q8 0 30 -3v-95l-16 1q-32 0 -44.5 -13t-12.5 -39v-153z" />
    <glyph glyph-name="uni0916" unicode="&#x916;" horiz-adv-x="769" 
d="M248 514q0 31 -11 55h-271v94h837v-94h-88v-569h-109v117q-28 -7 -62 -7q-82 0 -116 35.5t-34 109.5v95q0 75 32 111.5t113 36.5q40 0 67 -6v77h-263q8 -19 8 -55v-122q0 -154 -153 -154q-26 0 -53 5v-55q0 -92 121 -92q67 0 126 21v-104q-59 -18 -135 -18
q-107 0 -163 51t-56 141v261h107v-108q21 -3 49 -3q54 0 54 57v120zM552 401q-32 0 -44.5 -13t-12.5 -37v-96q0 -25 12.5 -38t46.5 -13t52 7v184q-48 6 -54 6z" />
    <glyph glyph-name="uni0917" unicode="&#x917;" horiz-adv-x="489" 
d="M522 663v-94h-87v-569h-111v569h-106v-240q0 -74 -40 -113t-113 -39q-39 0 -48 3v107q24 -2 32 -2q58 0 58 52v232h-141v94h556z" />
    <glyph glyph-name="uni0918" unicode="&#x918;" horiz-adv-x="500" 
d="M335 569h-163q-9 -17 -9 -55v-50q0 -24 11.5 -36.5t43.5 -12.5h40v-103h-45q-56 0 -56 -50v-35q0 -37 23 -52.5t68.5 -15.5t86.5 12v398zM52 514q0 33 6 55h-92v94h568v-94h-87v-569h-112v71q-50 -12 -101 -12q-91 0 -139.5 41t-48.5 114v51q0 79 50 100q-44 25 -44 96
v53z" />
    <glyph glyph-name="uni0919" unicode="&#x919;" horiz-adv-x="514" 
d="M385 331.5q0 62.5 62.5 62.5t62.5 -62.5t-62.5 -62.5t-62.5 62.5zM391 165v-21q0 -153 -197 -153q-68 0 -141 16v102q76 -17 130.5 -17t75.5 11t21 41v19q0 23 -12 34.5t-44 11.5h-23q-80 0 -120 32t-40 102v27q0 70 39.5 102t120.5 32h49v65h-284v94h582v-94h-186v-161
h-161q-27 0 -37.5 -11t-10.5 -33v-16q0 -22 10.5 -33t37.5 -11h23q86 0 126.5 -34t40.5 -105z" />
    <glyph glyph-name="uni091A" unicode="&#x91a;" horiz-adv-x="479" 
d="M75 324q0 35 8 63h-70v100h258v-96h-73q-11 -19 -11 -67v-111q0 -58 67 -58q33 0 60 9v405h-348v94h546v-94h-87v-569h-111v66q-37 -10 -79 -10q-160 0 -160 153v115z" />
    <glyph glyph-name="uni091B" unicode="&#x91b;" horiz-adv-x="537" 
d="M367 390q-15 16 -48.5 16t-55.5 -9v92q26 10 63 10v70h-154q-11 -17 -11 -55v-133q0 -25 11.5 -37.5t42.5 -12.5h68v-98h-64q-35 0 -49 -11t-14 -41v-13q0 -38 21 -50t91 -12t92 16t22 56v160q0 36 -15 52zM49 514q0 31 11 55h-94v94h604v-94h-140v-87q61 -26 61 -126
v-183q0 -89 -50 -128t-171.5 -39t-173.5 36.5t-52 119.5v28q0 69 50 92q-45 23 -45 95v137z" />
    <glyph glyph-name="uni091C" unicode="&#x91c;" horiz-adv-x="578" 
d="M206 330q0 33 -10 55h-103v102h320v82h-447v94h645v-94h-87v-569h-111v391h-104q9 -19 9 -55v-130q0 -79 -47.5 -119.5t-135.5 -40.5q-47 0 -89 11v101q44 -11 85 -11q75 0 75 62v121z" />
    <glyph glyph-name="uni091D" unicode="&#x91d;" horiz-adv-x="630" 
d="M465 322v247h-96v-161h-165q-27 0 -38 -9.5t-11 -30.5v-4q0 -21 10.5 -31t37.5 -11h262zM213 228h-9q-160 0 -160 133v9q0 70 39 102t121 32h54v65h-292v94h697v-94h-86v-569h-112v234h-104q19 -18 19 -58v-32q0 -75 -38 -107.5t-114 -32.5q-41 0 -76 7v-84h-109v238h109
v-58q30 -6 58 -6q61 0 61 50v26q0 25 -12.5 38t-45.5 13z" />
    <glyph glyph-name="uni091E" unicode="&#x91e;" horiz-adv-x="593" 
d="M222 211v136q0 32 -17 48.5t-61.5 16.5t-81.5 -13v100q40 14 86 14q186 0 186 -158v-29h94v243h-462v94h661v-94h-87v-569h-112v230h-94v-28q0 -157 -187 -157q-45 0 -88 15v99q46 -12 87.5 -12t58.5 16.5t17 47.5z" />
    <glyph glyph-name="uni091F" unicode="&#x91f;" horiz-adv-x="408" 
d="M154 329v-164q0 -36 23 -52t73 -16t117 13v-100q-64 -15 -127 -15q-95 0 -146 43t-51 125v174q0 158 172 158h25v74h-274v94h475v-94h-90v-176h-124q-73 0 -73 -64z" />
    <glyph glyph-name="uni0920" unicode="&#x920;" horiz-adv-x="420" 
d="M269 144v216q0 54 -59 54t-59 -54v-216q0 -53 59 -53t59 53zM377 364v-218q0 -151 -167 -151t-167 151v218q0 120 111 140v65h-188v94h487v-94h-188v-65q112 -21 112 -140z" />
    <glyph glyph-name="uni0921" unicode="&#x921;" horiz-adv-x="422" 
d="M391 162v-18q0 -153 -197 -153q-69 0 -141 16v102q74 -17 129.5 -17t76.5 11.5t21 42.5v12q0 23 -12 35.5t-44 12.5h-23q-80 0 -120 32t-40 102v30q0 70 39.5 102t120.5 32h49v65h-284v94h490v-94h-94v-161h-161q-27 0 -37.5 -11t-10.5 -33v-19q0 -22 10.5 -33t37.5 -11
h23q86 0 126.5 -34t40.5 -105z" />
    <glyph glyph-name="uni0922" unicode="&#x922;" horiz-adv-x="425" 
d="M206 501h47v68h-287v94h492v-94h-95v-170h-157q-32 0 -43 -12t-11 -36v-194q0 -30 14 -45t51 -15t51 14.5t14 44.5v18q0 46 -47 46l-31 -5v99q19 4 46 4q69 0 104 -33t35 -108v-27q0 -78 -41.5 -116.5t-130.5 -38.5q-175 0 -175 159v200q0 77 39.5 112t124.5 35z" />
    <glyph glyph-name="uni0923" unicode="&#x923;" horiz-adv-x="636" 
d="M260 569h-107v-309q0 -25 11 -38t42.5 -13t42.5 13t11 38v309zM372 260q0 -151 -165 -151t-165 151v309h-76v94h704v-94h-88v-569h-111v569h-99v-309z" />
    <glyph glyph-name="uni0924" unicode="&#x924;" horiz-adv-x="452" 
d="M42 341q0 74 41 116t125 42q43 0 79 -9v79h-321v94h520v-94h-87v-569h-112v388q-28 8 -65 8q-69 0 -69 -58v-186q0 -27 14 -38t49 -11v-105h-26q-81 0 -114.5 35.5t-33.5 108.5v199z" />
    <glyph glyph-name="uni0925" unicode="&#x925;" horiz-adv-x="579" 
d="M415 663h198v-94h-87v-569h-111v92q-51 -13 -128 -13q-118 0 -182.5 53t-64.5 153v120h116q50 0 70 16t20 57v40q0 26 -8 38t-34 12t-34.5 -12.5t-8.5 -39.5l3 -38h-106q-4 19 -4 38q0 152 147 152q77 0 111.5 -37.5t34.5 -112.5v-57q0 -77 -43 -115t-134 -38h-17v-19
q0 -58 31.5 -83t105.5 -25t125 12v470z" />
    <glyph glyph-name="uni0926" unicode="&#x926;" horiz-adv-x="420" 
d="M35 213v138q0 79 40.5 113t128.5 34h48v71h-286v94h488v-94h-91v-173h-159q-33 0 -45 -11.5t-12 -36.5v-132q0 -51 62 -51q25 0 55 7v91h111v-266h-111v76q-30 -7 -71 -7q-158 0 -158 147z" />
    <glyph glyph-name="uni0927" unicode="&#x927;" horiz-adv-x="500" 
d="M52 514q0 33 10 55h-96v94h283v-94h-72q-14 -17 -14 -55v-48q0 -25 11.5 -37.5t43.5 -12.5h40v-103h-45q-32 0 -44 -12.5t-12 -37.5v-37q0 -67 91 -67q44 0 87 12v492h199v-94h-87v-569h-112v71q-39 -12 -101 -12q-91 0 -139.5 40.5t-48.5 114.5v53q0 77 50 100
q-44 25 -44 95v52z" />
    <glyph glyph-name="uni0928" unicode="&#x928;" horiz-adv-x="595" 
d="M191 384q-28 0 -38 -12t-10 -36v-132q0 -25 10 -37t38 -12t38.5 12t10.5 37v115q0 44 -9 65h-40zM430 384h-93q8 -40 8 -61v-120q0 -73 -37 -110.5t-117 -37.5q-155 0 -155 148v136q0 148 155 148h239v82h-464v94h663v-94h-88v-569h-111v384z" />
    <glyph glyph-name="uni0928093C" unicode="&#x929;" horiz-adv-x="600" 
d="M-23 -37.5q0 62.5 62.5 62.5t62.5 -62.5t-62.5 -62.5t-62.5 62.5zM197 384q-28 0 -38 -11.5t-10 -36.5v-132q0 -25 10 -37t38 -12t38.5 12t10.5 37v115q0 33 -9 65h-40zM436 384h-93q8 -40 8 -61v-120q0 -73 -37 -110.5t-117 -37.5q-155 0 -155 148v136q0 148 155 148
h239v82h-470v94h668v-94h-87v-569h-111v384z" />
    <glyph glyph-name="uni092A" unicode="&#x92a;" horiz-adv-x="438" 
d="M273 569h-118v-299q0 -51 61 -51q30 0 57 9v341zM273 0v129q-35 -10 -73 -10q-82 0 -119.5 37t-37.5 110v303h-77v94h506v-94h-88v-569h-111z" />
    <glyph glyph-name="uni092B" unicode="&#x92b;" horiz-adv-x="628" 
d="M264 569h-109v-311q0 -52 62 -52q17 0 47 6v357zM424 398q-25 0 -49 -8v-390h-111v114q-42 -7 -64 -7q-81 0 -118.5 37t-37.5 110v315h-78v94h696v-94h-287v-77q27 9 63 9q78 0 116 -39t38 -110v-147q0 -144 -148 -144q-13 0 -17 1v103q31 -1 42 10.5t11 39.5v133
q0 50 -56 50z" />
    <glyph glyph-name="uni092C" unicode="&#x92c;" horiz-adv-x="451" 
d="M-34 663h519v-94h-87v-569h-106v69q-30 -10 -77 -10q-89 0 -134 36t-45 118v139q0 83 43 118.5t132 35.5q45 0 81 -12v75h-326v94zM222 413q-54 0 -70 -28l140 -126v142q-34 12 -70 12zM143 217q0 -65 79 -65q25 0 70 8v17l-149 136v-96z" />
    <glyph glyph-name="uni092D" unicode="&#x92d;" horiz-adv-x="625" 
d="M251 420v95q0 26 -9.5 38t-39 12t-39 -12t-9.5 -38l4 -39h-112q-4 25 -4 43q0 149 160.5 149t160.5 -149v-99h97v243h199v-94h-87v-569h-112v325h-101v-128q0 -140 -159.5 -140t-159.5 140v83q0 140 159 140h52zM251 201v124h-52q-31 0 -41 -12t-10 -36v-76q0 -24 10 -36
t41 -12t41.5 11.5t10.5 36.5z" />
    <glyph glyph-name="uni092E" unicode="&#x92e;" horiz-adv-x="604" 
d="M441 0v345h-95v-147q0 -141 -159 -141t-159 141v103q0 139 159 139h52v129h-273v94h672v-94h-88v-569h-109zM346 440h95v129h-95v-129zM239 202v143h-52q-31 0 -41.5 -11.5t-10.5 -36.5v-95q0 -25 10.5 -37t41.5 -12t41.5 12t10.5 37z" />
    <glyph glyph-name="uni092F" unicode="&#x92f;" horiz-adv-x="516" 
d="M158 514q0 29 -7 55h-185v94h584v-94h-87v-569h-112v96q-37 -10 -93 -10q-99 0 -159 45t-60 134v127h23q56 0 76 13.5t20 52.5v56zM267 514v-76q0 -116 -119 -121v-38q0 -90 115 -90q48 0 88 10v370h-91q7 -21 7 -55z" />
    <glyph glyph-name="uni0930" unicode="&#x930;" horiz-adv-x="430" 
d="M271 514q0 33 -10 55h-295v94h497v-94h-87q6 -19 6 -55v-118q0 -148 -152 -148q-44 0 -71 9v-92q0 -69 100 -69q67 0 129 23v-104q-60 -20 -150 -20t-140 45t-50 122v289h111v-96q27 -9 56 -9q56 0 56 52v116z" />
    <glyph glyph-name="uni0930093C" unicode="&#x931;" horiz-adv-x="435" 
d="M277 514q0 30 -9 55h-302v94h503v-94h-87q6 -19 6 -55v-118q0 -148 -152 -148q-41 0 -71 9v-92q0 -69 100 -69q69 0 129 23v-104q-58 -20 -149 -20t-141 44.5t-50 122.5v289h111v-96q27 -9 57.5 -9t42.5 13.5t12 38.5v116zM22 -145q-61 0 -61 62.5t61 62.5q63 0 63 -62.5
t-63 -62.5z" />
    <glyph glyph-name="uni0932" unicode="&#x932;" horiz-adv-x="640" 
d="M41 171v167q0 72 41 111.5t120 39.5t110 -52q35 51 106 51q36 0 57 -8v89h-509v94h708v-94h-87v-569h-112v377q-16 9 -48 9q-57 0 -57 -51v-125h-112v125q0 25 -11 38t-42 13t-41.5 -13t-10.5 -39v-159q0 -35 17 -54t53.5 -19t70.5 4v-102q-32 -4 -64 -4
q-98 0 -143.5 42.5t-45.5 128.5z" />
    <glyph glyph-name="uni0933" unicode="&#x933;" horiz-adv-x="612" 
d="M361 341v-194q0 -26 12 -40t43.5 -14t42.5 13.5t11 40.5v194q0 27 -11 40.5t-42.5 13.5t-43.5 -14t-12 -40zM147 341v-194q0 -26 11 -40t42.5 -14t43.5 14t12 40v194q0 26 -12 40t-43.5 14t-42.5 -13.5t-11 -40.5zM571 342v-197q0 -150 -151 -150q-77 0 -111 48
q-37 -48 -112 -48q-156 0 -156 150v200q0 148 156 148q75 0 112 -49q18 29 55 38v87h-398v94h680v-94h-170v-84q95 -23 95 -143z" />
    <glyph glyph-name="uni0933093C" unicode="&#x934;" horiz-adv-x="612" 
d="M309 -180q-62 0 -62 62.5t62 62.5t62 -62.5t-62 -62.5zM361 341v-194q0 -26 12 -40t43.5 -14t42.5 13.5t11 40.5v194q0 27 -11 40.5t-42.5 13.5t-43.5 -14t-12 -40zM147 341v-194q0 -26 11 -40t42.5 -14t43.5 14t12 40v194q0 26 -12 40t-43.5 14t-42.5 -13.5t-11 -40.5z
M571 342v-197q0 -150 -151 -150q-77 0 -111 48q-37 -48 -112 -48q-156 0 -156 150v200q0 148 156 148q75 0 112 -49q18 29 55 38v87h-398v94h680v-94h-170v-84q95 -23 95 -143z" />
    <glyph glyph-name="uni0935" unicode="&#x935;" horiz-adv-x="439" 
d="M216 411q-68 0 -68 -55v-146q0 -56 68 -56q40 0 63 9v240q-35 8 -63 8zM274 569h-308v94h507v-94h-87v-569h-112v68q-29 -9 -76 -9q-83 0 -120.5 37t-37.5 111v150q0 149 158 149q37 0 76 -9v72z" />
    <glyph glyph-name="uni0936" unicode="&#x936;" horiz-adv-x="625" 
d="M384 517v-131q0 -146 -156 -146q-43 0 -67 9v-72q0 -76 93 -76q56 0 118 23v-104q-57 -20 -142 -20t-133 48t-48 126v229h112v-56q24 -9 55.5 -9t43.5 13t12 38v125q0 24 -12 37.5t-44 13.5q-55 0 -55 -53q0 -26 3 -38h-111q-4 20 -4 43q0 151 167.5 151t167.5 -151z
M460 663h199v-94h-88v-569h-111v663z" />
    <glyph glyph-name="uni0937" unicode="&#x937;" horiz-adv-x="457" 
d="M-35 663h526v-94h-88v-569h-111v126q-43 -12 -90 -12q-160 0 -160 147v308h-77v94zM292 569h-139v-70l139 -125v195zM153 265q0 -51 68 -51q33 0 71 12v65l-139 124v-150z" />
    <glyph glyph-name="uni0938" unicode="&#x938;" horiz-adv-x="626" 
d="M256 514q0 33 -10 55h-280v94h694v-94h-87v-569h-111v272h-133q-36 -38 -115 -38q-24 0 -58 6v-75q0 -69 100 -69q61 0 121 23v-104q-58 -20 -145 -20t-137 44.5t-50 122.5v289h111v-112q23 -7 44 -7q56 0 56 52v130zM462 368v201h-104q7 -19 7 -55v-146h97z" />
    <glyph glyph-name="uni0939" unicode="&#x939;" horiz-adv-x="437" 
d="M42 148v32q0 68 47 95q-46 24 -47 89v17q0 66 39 96t121 30h62v62h-298v94h505v-94h-96v-159h-173q-27 0 -37.5 -9t-10.5 -29v-9q0 -20 11 -29t37 -9h64q71 0 102.5 -32t31.5 -98v-31h-100v22q0 26 -9 36t-38 10h-42q-33 0 -45.5 -12.5t-12.5 -36.5v-29q0 -63 99 -63
q73 0 133 18v-97q-61 -18 -149.5 -18t-141 39.5t-52.5 114.5z" />
    <glyph glyph-name="uni093C" unicode="&#x93c;" horiz-adv-x="0" 
d="M-204 -174q-62 0 -62 62.5t62 62.5t62 -62.5t-62 -62.5z" />
    <glyph glyph-name="uni093D" unicode="&#x93d;" horiz-adv-x="421" 
d="M391 193v-37q0 -161 -171 -161h-13q-172 0 -172 161v59h111v-63q0 -25 14 -39t51 -14h4q37 0 51 14t14 39v43q0 27 -9 43t-33 32l-128 84q-76 48 -76 137v26q0 73 37 109.5t122 36.5h174v-104h-166q-34 0 -44.5 -12t-10.5 -35v-16q0 -25 9 -40t33 -31l126 -82
q46 -31 61.5 -64t15.5 -86z" />
    <glyph glyph-name="uni093E" unicode="&#x93e;" 
d="M53 569h-87v94h286v-94h-87v-569h-112v569z" />
    <glyph glyph-name="uni093F" unicode="&#x93f;" 
d="M56 663v25q0 106 64.5 156t180.5 50q71 0 140.5 -12t103.5 -24l34 -13v-100q-134 46 -270 46q-78 0 -110 -24.5t-32 -80.5v-23h85v-94h-87v-569h-112v569h-87v94h90z" />
    <glyph glyph-name="uni0940" unicode="&#x940;" 
d="M53 663v84q0 48 -52.5 48t-52.5 -48v-27h-111v28q0 148 164 148t164 -148v-85h87v-94h-87v-569h-112v569h-87v94h87z" />
    <glyph glyph-name="uni0941" unicode="&#x941;" horiz-adv-x="0" 
d="M-181 -157h56q29 0 39.5 9.5t10.5 32t-11.5 32.5t-37.5 10q-49 0 -89 -10v88q37 10 102.5 10t100 -30.5t34.5 -98.5t-30.5 -99t-98.5 -31h-89q-48 0 -83.5 16t-72.5 62l-95 115h127l51 -59q25 -30 41.5 -38.5t44.5 -8.5z" />
    <glyph glyph-name="uni0942" unicode="&#x942;" horiz-adv-x="0" 
d="M-48 -155v-88q-2 0 -15 -3q-29 -5 -63 -5q-71 0 -106.5 30.5t-35.5 98.5t30.5 99t98.5 31h50q53 0 90 -18t74 -66l119 -157h-122l-79 101q-27 33 -44 43t-50 10h-18q-29 0 -39.5 -9.5t-10.5 -32t11.5 -32.5t33 -10t36.5 1.5t27 4t13 2.5z" />
    <glyph glyph-name="uni0943" unicode="&#x943;" horiz-adv-x="0" 
d="M-54 -98q-48 9 -85.5 9t-52.5 -11t-15 -41.5t15 -41.5t40 -11q51 0 100 9v-101q-45 -10 -97 -10q-168 0 -168 154.5t168 154.5q37 0 95 -10v-101z" />
    <glyph glyph-name="uni0944" unicode="&#x944;" horiz-adv-x="0" 
d="M-203 -302v-4q0 -24 12.5 -31.5t55.5 -7.5t86 5v-100q-42 -7 -104 -7q-162 0 -162 144q0 57 28 88q-29 32 -29 95q0 132 161 132q31 0 100 -6v-96q-79 7 -101 7t-35 -9t-13 -34v-3q0 -25 11.5 -32.5t37.5 -7.5h75v-91h-72q-27 0 -39 -9t-12 -33z" />
    <glyph glyph-name="uni0945" unicode="&#x945;" horiz-adv-x="0" 
d="M-28 880h110v-4q0 -149 -191 -149t-191 149v4h110q0 -31 18.5 -44t62 -13t62.5 13t19 44z" />
    <glyph glyph-name="uni0946" unicode="&#x946;" horiz-adv-x="0" 
d="M-163 663q0 35 -16.5 52.5t-62.5 17.5q-98 0 -141.5 36t-43.5 124h110q0 -35 17 -52t63 -17q96 0 140 -38.5t44 -122.5h-110z" />
    <glyph glyph-name="uni0947" unicode="&#x947;" horiz-adv-x="0" 
d="M-331 890q20 3 53 3q73 0 126 -80l99 -150h-114l-65 95q-29 41 -73 41q-17 0 -26 -1v92z" />
    <glyph glyph-name="uni0948" unicode="&#x948;" horiz-adv-x="0" 
d="M-207 893q82 0 110 -90l44 -140h-97l-30 92q-9 24 -18 33.5t-22 9.5t-19 -1v93q15 3 32 3zM-448 890q18 3 50 3q64 0 127 -87l101 -143h-110l-69 95q-32 41 -73 41q-17 0 -26 -1v92z" />
    <glyph glyph-name="uni0949" unicode="&#x949;" 
d="M193 878h111v-4q0 -149 -191 -149t-191 149v4h110q0 -31 18.5 -43.5t62 -12.5t62 13t18.5 43zM53 569h-87v94h286v-94h-87v-569h-112v569z" />
    <glyph glyph-name="uni094A" unicode="&#x94a;" 
d="M53 569h-87v94h88q0 35 -16.5 52.5t-62.5 17.5q-97 0 -140.5 36t-43.5 124h110q0 -35 16.5 -52t63.5 -17q95 0 139 -38.5t44 -122.5h88v-94h-87v-569h-112v569z" />
    <glyph glyph-name="uni094B" unicode="&#x94b;" 
d="M252 663v-94h-87v-569h-112v569h-87v94h85l-65 95q-29 41 -73 41q-17 0 -26 -1v92q20 3 53 3q73 0 126 -80l99 -150h87z" />
    <glyph glyph-name="uni094C" unicode="&#x94c;" 
d="M252 663v-94h-87v-569h-112v569h-163v94h44l-70 95q-32 41 -73 41q-17 0 -26 -1v92q19 3 51 3q63 0 126 -87l102 -143h20l-31 92q-8 24 -16.5 33.5t-22.5 9.5t-20 -1v93q16 3 32 3q83 0 111 -90l43 -140h92z" />
    <glyph glyph-name="uni094D" unicode="&#x94d;" horiz-adv-x="0" 
d="M64 -221h-116l-105 163h101z" />
    <glyph glyph-name="uni0950" unicode="&#x950;" horiz-adv-x="806" 
d="M430 286v231q0 151 162.5 151t162.5 -149v-346q0 -89 -49 -133.5t-154 -44.5q-50 0 -94 10v102q45 -9 97 -9t72 19t20 63v334q0 25 -11.5 38t-43 13t-43 -13t-11.5 -38v-274q0 -27 -9.5 -38.5t-37.5 -11.5h-149v-37q-2 -158 -191 -158q-65 0 -107 14v102
q51 -14 100.5 -14t68.5 15t20 45v66q0 30 -14.5 45t-50.5 15h-59v103h59q36 0 50.5 14.5t14.5 43.5v62q0 60 -82 60q-51 0 -94 -14v103q39 13 95 13q190 0 190 -158v-66q0 -83 -46 -109q26 -15 37 -49h97zM575 836v-3q0 -150 -191.5 -150t-191.5 150v3h111q0 -31 18.5 -43.5
t62 -12.5t62 13t18.5 43h111zM384 837q-59 0 -59 59t59 59t59 -59t-59 -59z" />
    <glyph glyph-name="uni0951" unicode="&#x951;" horiz-adv-x="0" 
d="M-165 963h112v-251h-112v251z" />
    <glyph glyph-name="uni0952" unicode="&#x952;" horiz-adv-x="0" 
d="M-40 -175h-426v95h426v-95z" />
    <glyph glyph-name="uni0953" unicode="&#x953;" horiz-adv-x="337" 
d="M40 963h118l121 -251h-118z" />
    <glyph glyph-name="uni0954" unicode="&#x954;" horiz-adv-x="333" 
d="M161 963h118l-121 -251h-118z" />
    <glyph glyph-name="uni0915093C" unicode="&#x958;" horiz-adv-x="613" 
d="M128 -102q-62 0 -62 62.5t62 62.5t62 -62.5t-62 -62.5zM145 203q0 -52 53 -52q27 0 56 8v410h-286v94h680v-94h-285v-71q21 7 64 7q151 0 151 -145v-151q0 -72 -33 -108.5t-108 -36.5q-6 0 -22 2v104l14 -1q25 1 33.5 12.5t8.5 37.5v138q0 25 -12.5 38t-42 13t-53.5 -6
v-402h-109v66q-48 -8 -66 -8q-77 0 -113.5 34.5t-36.5 105.5v162q0 145 150 145q8 0 30 -3v-95l-16 1q-32 0 -44.5 -13t-12.5 -39v-153z" />
    <glyph glyph-name="uni0916093C" unicode="&#x959;" horiz-adv-x="771" 
d="M251 514q0 35 -11 55h-274v94h839v-94h-87v-569h-109v117q-25 -7 -62 -7q-82 0 -116 35.5t-34 109.5v95q0 75 32 111.5t114 36.5q42 0 66 -6v77h-262q8 -19 8 -55v-122q0 -154 -153 -154q-26 0 -54 5v-55q0 -92 122 -92q66 0 126 21v-104q-59 -18 -135 -18
q-107 0 -163 51t-56 141v261h106v-108q23 -3 50 -3q53 0 53 57v120zM609 395q-42 6 -63.5 6t-34.5 -12.5t-13 -37.5v-96q0 -25 12.5 -38t48.5 -13t50 7v184zM45.5 -6q61.5 0 61.5 -62.5t-61.5 -62.5t-61.5 62.5t61.5 62.5z" />
    <glyph glyph-name="uni0917093C" unicode="&#x95a;" horiz-adv-x="494" 
d="M528 663v-94h-87v-569h-111v569h-106v-240q0 -74 -40 -113t-113 -39q-39 0 -48 3v107q24 -2 32 -2q58 0 58 52v232h-141v94h556zM119 107q62 0 62 -62.5t-62 -62.5t-62 62.5t62 62.5z" />
    <glyph glyph-name="uni091C093C" unicode="&#x95b;" horiz-adv-x="578" 
d="M206 330q0 33 -10 55h-103v102h320v82h-447v94h645v-94h-87v-569h-111v391h-104q9 -19 9 -55v-130q0 -79 -47.5 -119.5t-135.5 -40.5q-47 0 -89 11v101q44 -11 85 -11q75 0 75 62v121zM-8 -57.5q0 62.5 62.5 62.5t62.5 -62.5t-62.5 -62.5t-62.5 62.5z" />
    <glyph glyph-name="uni0921093C" unicode="&#x95c;" horiz-adv-x="423" 
d="M391 162v-18q0 -153 -197 -153q-69 0 -141 16v102q74 -17 129.5 -17t76.5 11.5t21 42.5v12q0 23 -12 35.5t-44 12.5h-23q-80 0 -120 32t-40 102v30q0 70 39.5 102t120.5 32h49v65h-284v94h490v-94h-94v-161h-161q-27 0 -37.5 -11t-10.5 -33v-19q0 -22 10.5 -33t37.5 -11
h23q86 0 126.5 -34t40.5 -105zM156 -126.5q0 62.5 62.5 62.5t62.5 -62.5t-62.5 -62.5t-62.5 62.5z" />
    <glyph glyph-name="uni0922093C" unicode="&#x95d;" horiz-adv-x="425" 
d="M218 -189q-62 0 -62 62.5t62 62.5t62 -62.5t-62 -62.5zM238 220q-18 0 -34 -8v98q20 8 49 8q68 0 102 -33t34 -108v-27q0 -78 -41.5 -116.5t-130.5 -38.5q-175 0 -175 159v200q0 77 39.5 112t124.5 35h47v68h-287v94h492v-94h-95v-170h-157q-32 0 -43 -12t-11 -36v-194
q0 -30 14 -45t51 -15t51 14.5t14 44.5v18q0 46 -44 46z" />
    <glyph glyph-name="uni092B093C" unicode="&#x95e;" horiz-adv-x="636" 
d="M272 569h-109v-311q0 -52 62 -52q20 0 47 6v357zM432 398q-25 0 -49 -8v-390h-111v114q-42 -7 -64 -7q-81 0 -118.5 37t-37.5 110v315h-86v94h704v-94h-287v-77q27 9 63 9q78 0 116 -39t38 -110v-147q0 -144 -148 -144q-13 0 -17 1v103q31 -1 42 10.5t11 39.5v133
q0 50 -56 50zM27 -11.5q0 62.5 62.5 62.5t62.5 -62.5t-62.5 -62.5t-62.5 62.5z" />
    <glyph glyph-name="uni092F093C" unicode="&#x95f;" horiz-adv-x="522" 
d="M164 514q0 29 -7 55h-191v94h590v-94h-88v-569h-111v96q-37 -10 -94 -10q-99 0 -158.5 45t-59.5 134v127h22q56 0 76.5 13.5t20.5 52.5v56zM273 514v-76q0 -116 -119 -121v-38q0 -90 115 -90q48 0 88 10v370h-91q7 -21 7 -55zM7 3.5q0 62.5 61.5 62.5t61.5 -62.5
t-61.5 -62.5t-61.5 62.5z" />
    <glyph glyph-name="uni0960" unicode="&#x960;" horiz-adv-x="740" 
d="M773 569h-352v-136q41 -6 106.5 -6t65.5 57v12h108v-300h-58q-27 0 -37 -12t-10 -40q0 -50 51 -50h37v-94h-41q-24 0 -35.5 -9.5t-11.5 -39t13.5 -39.5t50 -10t69.5 5v-95q-30 -5 -83 -5q-161 0 -161 132q0 69 36 103q-34 32 -34 97q0 121 111 130v74q-26 -19 -76.5 -19
t-100.5 6v-330h-105v61q0 99 7 143h-2q-14 -33 -70 -96l-81 -90h-140v3l280 297v40q0 15 -23 25.5t-66 10.5t-62.5 -17.5t-19.5 -53.5v-61h-107v68q0 167 181 167q80 0 97 -19v91h-344v94h807v-94z" />
    <glyph glyph-name="uni0961" unicode="&#x961;" horiz-adv-x="640" 
d="M587 151h-91q-27 0 -39 -9t-12 -35t11.5 -33.5t37.5 -7.5h68v-97h-65q-27 0 -39 -9.5t-12 -35t12.5 -33t59 -7.5t74.5 4v-101q-35 -5 -96 -5q-162 0 -162 144q0 58 30 91q-31 31 -31 90q0 132 142 139v112q0 12 -12.5 20t-37.5 8q-55 0 -55 -51v-72h-112v72q0 25 -11 38
t-42 13t-41.5 -13t-10.5 -39v-159q0 -35 17 -54t65 -19h22v-102h-27q-98 0 -143.5 42.5t-45.5 128.5v167q0 72 41 111.5t120 39.5t110 -52q35 51 104 51q47 0 59 -12v93h-509v94h708v-94h-87v-418z" />
    <glyph glyph-name="uni0964" unicode="&#x964;" horiz-adv-x="308" 
d="M143 0v663h112v-663h-112z" />
    <glyph glyph-name="uni0965" unicode="&#x965;" horiz-adv-x="444" 
d="M279 0v663h111v-663h-111zM68 0v663h112v-663h-112z" />
    <glyph glyph-name="uni0966" unicode="&#x966;" horiz-adv-x="460" 
d="M296 520q0 33 -14.5 50t-51.5 17t-51.5 -17t-14.5 -50v-355q0 -33 14.5 -50t51.5 -17t51.5 17t14.5 50v355zM44 524q0 79 45.5 125t140.5 46t140.5 -46t45.5 -125v-363q0 -79 -45.5 -125t-140.5 -46t-140.5 46t-45.5 125v363z" />
    <glyph glyph-name="uni0967" unicode="&#x967;" horiz-adv-x="305" 
d="M251 685v-685h-122v544l-115 -84v133l125 92h112z" />
    <glyph glyph-name="uni0968" unicode="&#x968;" horiz-adv-x="426" 
d="M185 690q202 0 202 -158v-59q0 -98 -76 -152l-85 -68q-42 -33 -54 -52.5t-12 -56.5v-37h222v-107h-344v156q0 59 23.5 97t68.5 70l93 75q25 19 34 38.5t9 55.5v27q0 29 -17.5 44.5t-78 15.5t-119.5 -25v116q60 20 134 20z" />
    <glyph glyph-name="uni0969" unicode="&#x969;" horiz-adv-x="410" 
d="M159 691q104 0 154.5 -41.5t50.5 -117.5v-69q0 -93 -70 -115q72 -13 72 -106v-88q0 -76 -50.5 -118t-143 -42t-147.5 20v115q61 -25 121.5 -25t80 16t19.5 46v61q0 32 -15.5 46.5t-52.5 14.5h-74v111h73q36 0 51 17t15 50v54q0 61 -85 61q-71 0 -118 -17v113
q47 14 119 14z" />
    <glyph glyph-name="uni096A" unicode="&#x96a;" horiz-adv-x="441" 
d="M436 226v-106h-66v-120h-114v120h-246v111l200 454h160v-459h66zM260 226v337l-146 -337h146z" />
    <glyph glyph-name="uni096B" unicode="&#x96b;" horiz-adv-x="433" 
d="M51 685h322v-112h-202v-153q31 3 64 3q77 0 117.5 -39t40.5 -113v-118q0 -75 -50 -117t-153 -42q-72 0 -143 22v114q75 -26 139 -26q86 0 86 61v90q0 32 -15.5 46t-56.5 14q-12 0 -149 -10v380z" />
    <glyph glyph-name="uni096C" unicode="&#x96c;" horiz-adv-x="452" 
d="M296 279q0 59 -63 59q-46 0 -69 -13v-162q0 -33 14.5 -50t51.5 -17t51.5 17t14.5 50v116zM44 513q0 80 49.5 128.5t156.5 48.5q81 0 136 -20v-114q-56 23 -134 23q-88 0 -88 -78v-73q31 14 100 14t110.5 -40t41.5 -113v-128q0 -79 -45.5 -125t-140.5 -46t-140.5 46
t-45.5 125v352z" />
    <glyph glyph-name="uni096D" unicode="&#x96d;" horiz-adv-x="364" 
d="M5 685h341v-96l-79 -242q-40 -123 -40 -245v-102h-122v111q0 133 42 254l66 209h-208v111z" />
    <glyph glyph-name="uni096E" unicode="&#x96e;" horiz-adv-x="468" 
d="M423 528v-69q0 -83 -55 -118q56 -35 56 -118v-66q0 -78 -47.5 -122.5t-143 -44.5t-142.5 44.5t-47 122.5v66q0 82 55 118q-54 35 -54 118v69q0 78 46.5 122.5t142 44.5t142.5 -44.5t47 -122.5zM304 526q0 65 -70 65t-70 -65v-70q0 -68 70 -68t70 68v70zM305 159v68
q0 67 -71 67t-71 -67v-68q0 -65 71 -65t71 65z" />
    <glyph glyph-name="uni096F" unicode="&#x96f;" horiz-adv-x="452" 
d="M288 522q0 33 -14 50t-51.5 17t-52 -17t-14.5 -50v-121q0 -63 63 -63q50 0 69 14v170zM36 524q0 79 46 125t140.5 46t140 -46t45.5 -125v-367q0 -76 -51.5 -119t-147 -43t-150.5 20v115q61 -25 145 -25t84 64v80q-33 -15 -103 -15t-109.5 40.5t-39.5 114.5v135z" />
    <glyph glyph-name="uni0970" unicode="&#x970;" horiz-adv-x="414" 
d="M145 327q0 -38 13 -55.5t49 -17.5t49.5 17.5t13.5 55.5t-13.5 56t-49.5 18t-49 -18t-13 -56zM46 327q0 165 161 165q83 0 122.5 -44t39.5 -120.5t-39.5 -120.5t-122.5 -44t-122 44t-39 120z" />
    <glyph glyph-name="uni0972" unicode="&#x972;" horiz-adv-x="591" 
d="M564 880h110v-4q0 -149 -191 -149t-191 149v4h110q0 -31 18.5 -44t62 -13t62.5 13t19 44zM426 309v354h199v-94h-88v-569h-111v213h-88v-20q-2 -158 -191 -158q-60 0 -107 14v102q51 -14 106 -14q82 0 82 60v53q0 29 -14 44t-50 16h-60v103h60q36 0 50 14t14 43v36
q0 30 -18.5 45t-66 15t-90.5 -14v103q37 13 95 13q190 0 190 -158v-40q0 -83 -47 -109q28 -15 39 -52h96z" />
    <glyph glyph-name="uni097D" unicode="&#x97d;" horiz-adv-x="451" 
d="M50 448v99q0 74 44 115.5t134 41.5t133.5 -41.5t43.5 -115.5v-201q0 -74 -32 -111.5t-108 -43.5v-191h-104v290h67q38 1 51.5 16.5t13.5 46.5v190q0 57 -65.5 57t-65.5 -57v-95h-112z" />
    <glyph glyph-name="uni200B" unicode="&#x200b;" horiz-adv-x="0" 
 />
    <glyph glyph-name="uni200C" unicode="&#x200c;" horiz-adv-x="0" 
d="M24 -230h-47v1041h47v-1041z" />
    <glyph glyph-name="uni200D" unicode="&#x200d;" horiz-adv-x="0" 
d="M24 -230h-47v865l-69 -73l-33 33l93 93l-95 95l33 33l95 -95l96 95l32 -32l-96 -96l96 -95l-33 -33l-72 75v-865z" />
    <glyph glyph-name="endash" unicode="&#x2013;" horiz-adv-x="541" 
d="M41 381h446v-103h-446v103z" />
    <glyph glyph-name="emdash" unicode="&#x2014;" horiz-adv-x="778" 
d="M41 381h687v-103h-687v103z" />
    <glyph glyph-name="quoteleft" unicode="&#x2018;" horiz-adv-x="188" 
d="M77 496q-50 0 -50 48q0 33 26.5 88t53.5 94h54l-41 -230h-43z" />
    <glyph glyph-name="quoteright" unicode="&#x2019;" horiz-adv-x="188" 
d="M110 726q51 0 51 -48q0 -34 -26.5 -88t-53.5 -94h-54l41 230h42z" />
    <glyph glyph-name="quotesinglbase" unicode="&#x201a;" horiz-adv-x="188" 
d="M110 122q51 0 51 -48q0 -60 -80 -182h-54l41 230h42z" />
    <glyph glyph-name="quotedblleft" unicode="&#x201c;" horiz-adv-x="332" 
d="M77 496q-50 0 -50 48q0 33 26.5 88t53.5 94h49l-41 -230h-38zM226 496q-50 0 -50 48q0 33 26.5 88t53.5 94h49l-41 -230h-38z" />
    <glyph glyph-name="quotedblright" unicode="&#x201d;" horiz-adv-x="332" 
d="M106 726q50 0 50 -48q0 -34 -27 -89.5t-53 -92.5h-49l41 230h38zM255 726q50 0 50 -48q0 -34 -27 -89.5t-53 -92.5h-49l41 230h38z" />
    <glyph glyph-name="quotedblbase" unicode="&#x201e;" horiz-adv-x="332" 
d="M106 122q50 0 50 -48q0 -33 -26.5 -88t-53.5 -94h-49l41 230h38zM255 122q50 0 50 -48q0 -33 -26.5 -88t-53.5 -94h-49l41 230h38z" />
    <glyph glyph-name="dagger" unicode="&#x2020;" horiz-adv-x="376" 
d="M134 812h111q0 -65 -8 -157q51 8 112 8v-94q-54 0 -112 8q8 -83 8 -177v-430h-111v430q0 83 8 177q-49 -8 -112 -8v94q56 0 112 -8q-8 83 -8 157z" />
    <glyph glyph-name="daggerdbl" unicode="&#x2021;" horiz-adv-x="377" 
d="M133 812h111q0 -65 -8 -157q49 8 112 8v-94q-56 0 -112 8q4 -181 0 -372q49 9 112 9v-94q-56 0 -112 8q8 -55 8 -158h-111q0 92 8 158q-49 -8 -112 -8v94q62 0 112 -9q-4 190 0 372q-49 -8 -112 -8v94q56 0 112 -8q-8 83 -8 157z" />
    <glyph glyph-name="bullet" unicode="&#x2022;" horiz-adv-x="259" 
d="M38 333.5q0 89.5 89.5 89.5t89.5 -89.5t-89.5 -89.5t-89.5 89.5z" />
    <glyph glyph-name="ellipsis" unicode="&#x2026;" horiz-adv-x="672" 
d="M262 58.5q0 62.5 62.5 62.5t62.5 -62.5t-62.5 -62.5t-62.5 62.5zM42 58.5q0 62.5 62.5 62.5t62.5 -62.5t-62.5 -62.5t-62.5 62.5zM545 -4q-62 0 -62 62.5t62 62.5t62 -62.5t-62 -62.5z" />
    <glyph glyph-name="perthousand" unicode="&#x2030;" horiz-adv-x="959" 
d="M664 154q0 161 131.5 161t131.5 -161t-131.5 -161t-131.5 161zM841 153.5q0 82.5 -46.5 82.5t-46.5 -82.5t46.5 -82.5t46.5 82.5zM365 154q0 161 131.5 161t131.5 -161t-131.5 -161t-131.5 161zM542 153.5q0 82.5 -46.5 82.5t-46.5 -82.5t46.5 -82.5t46.5 82.5zM35 531
q0 161 131.5 161t131.5 -161t-131.5 -161t-131.5 161zM212 531.5q0 82.5 -46.5 82.5t-46.5 -82.5t46.5 -82.5t46.5 82.5zM441 685h83l-303 -685h-82z" />
    <glyph glyph-name="guilsinglleft" unicode="&#x2039;" horiz-adv-x="449" 
d="M219 505h121l-122 -183l122 -183h-121l-121 183z" />
    <glyph glyph-name="guilsinglright" unicode="&#x203a;" horiz-adv-x="423" 
d="M98 505h121l121 -183l-121 -183h-121l122 183z" />
    <glyph glyph-name="fraction" unicode="&#x2044;" horiz-adv-x="305" 
d="M302 685h79l-377 -685h-79z" />
    <glyph glyph-name="foursuperior" unicode="&#x2074;" horiz-adv-x="314" 
d="M188 443v230l-96 -230h96zM265 738v-295h45v-70h-45v-85h-77v85h-169v73l125 292h121z" />
    <glyph glyph-name="Euro" unicode="&#x20ac;" horiz-adv-x="447" 
d="M191 238v-74q0 -61 87 -61q73 0 124 16v-109q-54 -15 -127 -15q-205 0 -205 158v85h-52v80h52v56h-52v80h52v77q0 75 51.5 117t155.5 42q68 0 122 -15v-110q-60 17 -114.5 17t-74 -15.5t-19.5 -45.5v-67h121v-80h-121v-56h121v-80h-121z" />
    <glyph glyph-name="uni20B9" unicode="&#x20b9;" horiz-adv-x="480" 
d="M364 418v-15q0 -79 -40 -114.5t-131 -35.5h-21l201 -253h-131l-195 252v94h142q39 0 53.5 14.5t14.5 45.5v12h-209v82h209v18q0 51 -59 51h-151v94h396v-94h-100q21 -18 21 -55v-14h80v-82h-80z" />
    <glyph glyph-name="uni2113" unicode="&#x2113;" horiz-adv-x="472" 
d="M19 238q2 1 78 42v291q0 82 40.5 128t124 46t128 -49.5t44.5 -141.5q0 -202 -219 -340v-66q0 -48 51 -48q27 0 61 13v-106q-42 -14 -84 -14q-77 0 -111.5 37t-34.5 108v13q-72 -33 -78 -38v125zM215 572v-213q101 88 101 196q0 79 -52 79q-49 0 -49 -62z" />
    <glyph glyph-name="trademark" unicode="&#x2122;" horiz-adv-x="613" 
d="M560 713v-258h-57v142l12 100l-60 -242h-49l-60 242l12 -100v-142h-57v258h91l32 -146l7 -44l6 44l32 146h91zM88 665v48h192v-48h-65v-210h-61v210h-66z" />
    <glyph glyph-name="uni2126" unicode="&#x2126;" horiz-adv-x="554" 
d="M83 524q0 78 49.5 124.5t145.5 46.5t145.5 -46.5t49.5 -124.5v-342q0 -56 -26 -77h62v-105h-200v101q44 11 44 66v351q0 68 -75 68t-75 -68v-351q0 -56 44 -66v-101h-200v105h62q-26 21 -26 77v342z" />
    <glyph glyph-name="estimated" unicode="&#x212e;" horiz-adv-x="681" 
d="M478 466q-43 38 -125 38t-130 -43v-138h255v143zM142 70.5q-80 80.5 -80 206.5t80 208.5t207 82.5t201.5 -73t74.5 -197q0 -22 -2 -37h-400v-162q52 -41 136 -41q135 0 195 100l57 -35q-79 -133 -255 -133q-134 0 -214 80.5z" />
    <glyph glyph-name="partialdiff" unicode="&#x2202;" horiz-adv-x="453" 
d="M228 365q-63 0 -63 -60v-147q0 -60 63 -60t63 59v191q-15 17 -63 17zM407 309v-154q0 -76 -45.5 -119t-134 -43t-133.5 42.5t-45 118.5v155q0 148 145 148q57 0 81 -35q-33 126 -158 263h139q59 -66 105 -166t46 -210z" />
    <glyph glyph-name="uni2206" unicode="&#x2206;" horiz-adv-x="479" 
d="M314 685l132 -685h-394l132 685h130zM249 535l-74 -428h148z" />
    <glyph glyph-name="product" unicode="&#x220f;" horiz-adv-x="498" 
d="M54 685h390v-685h-122v578h-147v-578h-121v685z" />
    <glyph glyph-name="summation" unicode="&#x2211;" horiz-adv-x="409" 
d="M26 685h355v-102h-225l113 -240l-113 -241h225v-102h-355v98l116 245l-116 244v98z" />
    <glyph glyph-name="minus" unicode="&#x2212;" horiz-adv-x="475" 
d="M41 380h392v-103h-392v103z" />
    <glyph glyph-name="uni2215" unicode="&#x2215;" horiz-adv-x="305" 
d="M263 685h82l-302 -685h-83z" />
    <glyph glyph-name="uni2219" unicode="&#x2219;" horiz-adv-x="210" 
d="M104 275q-68 0 -68 66.5t68 66.5t68 -66.5t-68 -66.5z" />
    <glyph glyph-name="radical" unicode="&#x221a;" horiz-adv-x="460" 
d="M26 256v104h150l52 -246l106 571h115l-138 -685h-166l-56 256h-63z" />
    <glyph glyph-name="infinity" unicode="&#x221e;" horiz-adv-x="694" 
d="M346 411q71 92 156.5 92t120.5 -43.5t35 -123t-35 -122.5t-121.5 -43t-155.5 91q-72 -91 -156.5 -91t-119 43t-34.5 122.5t34.5 123t119.5 43.5t156 -92zM195 269q48 0 98 68q-49 67 -98 67q-33 0 -43.5 -16t-10.5 -51.5t11 -51.5t43 -16zM497 269q36 0 46 15t10 51
t-11.5 52.5t-44.5 16.5q-47 0 -98 -67q52 -68 98 -68z" />
    <glyph glyph-name="integral" unicode="&#x222b;" horiz-adv-x="287" 
d="M73 683q0 81 48 121t134 37v-105q-33 0 -47 -11.5t-14 -38.5v-683q0 -81 -48 -121t-135 -37v104q33 0 47.5 11.5t14.5 39.5v683z" />
    <glyph glyph-name="approxequal" unicode="&#x2248;" horiz-adv-x="564" 
d="M531 467q0 -55 -28 -86q-50 -56 -162 -19l-122 44q-36 17 -60.5 5.5t-17.5 -51.5h-105q-4 23 -4 48q0 55 28 86q50 55 161 19l122 -44q37 -17 61 -6t17 52h105q5 -21 5 -48zM531 267q0 -55 -28 -86q-50 -56 -162 -19l-122 44q-36 17 -60.5 5.5t-17.5 -51.5h-105
q-4 23 -4 48q0 55 28 86q50 55 161 19l122 -44q37 -17 61 -6t17 52h105q5 -21 5 -48z" />
    <glyph glyph-name="notequal" unicode="&#x2260;" horiz-adv-x="471" 
d="M430 375h-129l-35 -92h164v-103h-205l-38 -99h-99l38 99h-89v103h130l35 92h-165v103h205l40 102h99l-40 -102h89v-103z" />
    <glyph glyph-name="lessequal" unicode="&#x2264;" horiz-adv-x="465" 
d="M427 594v-108l-280 -93l280 -93v-108l-392 146v110zM35 63v103h392v-103h-392z" />
    <glyph glyph-name="greaterequal" unicode="&#x2265;" horiz-adv-x="465" 
d="M38 594l392 -146v-110l-392 -146v108l280 93l-280 93v108zM38 63v103h392v-103h-392z" />
    <glyph glyph-name="lozenge" unicode="&#x25ca;" horiz-adv-x="443" 
d="M300 291l-79 192l-78 -192l78 -193zM151 582h141l128 -291l-128 -291h-141l-128 291z" />
    <glyph glyph-name="uni25CC" unicode="&#x25cc;" horiz-adv-x="660" 
d="M257 560q0 20 12.5 32t31.5 12t31.5 -12t12.5 -32t-12.5 -32t-31.5 -12t-31.5 12t-12.5 32zM396 514q-13 13 -13 31.5t12.5 31.5t32 13t31.5 -12.5t12 -31.5t-12.5 -32t-31 -13t-31.5 13zM478 477q0 19 12.5 32t31.5 13t31.5 -12.5t12.5 -32t-12.5 -32t-31.5 -12.5
t-31.5 12.5t-12.5 31.5zM528 359q0 19 12 31.5t31.5 12.5t32 -12.5t12.5 -31.5t-12.5 -31.5t-32 -12.5t-31.5 12.5t-12 31.5zM518 225q0 19 13 32t31.5 13t31 -13t12.5 -32t-12.5 -31.5t-31 -12.5t-31.5 12.5t-13 31.5zM445 127q0 19 12.5 31.5t31.5 12.5t32 -12.5t13 -31.5
t-13 -31.5t-32 -12.5t-31.5 12.5t-12.5 31.5zM324 74q0 20 12 32t32 12t32.5 -12.5t12.5 -31.5t-12.5 -31.5t-32.5 -12.5t-32 12t-12 32zM210 57q-13 13 -13 32t13 32t32 13t31.5 -13t12.5 -32t-12.5 -32t-31.5 -13t-32 13zM96 165q0 19 12.5 31.5t31.5 12.5t31.5 -12.5
t12.5 -31.5t-12.5 -31.5t-32 -12.5t-31.5 12.5t-12 31.5zM44 281q0 19 12.5 32t31.5 13t31.5 -12.5t12.5 -32t-12.5 -31.5t-31.5 -12t-31.5 12t-12.5 31zM57 407q0 19 13 31.5t32 12.5t32 -12.5t13 -31.5t-13 -31.5t-32 -12.5t-32 12.5t-13 31.5zM151.5 484.5
q-12.5 12.5 -12.5 32t12.5 32t31.5 12.5t31.5 -12.5t12.5 -32t-12.5 -32t-31.5 -12.5t-31.5 12.5z" />
    <glyph glyph-name="commaaccent" unicode="&#xf6c3;" horiz-adv-x="350" 
d="M191 -61q32 0 32 -30q0 -21 -18.5 -55.5t-35.5 -56.5h-42l25 142h39z" />
    <glyph glyph-name="itfLogo" horiz-adv-x="1734" 
d="M1396 237v196h207v-196h-207zM1396 475v196h207v-196h-207zM1146 0v671h208v-671h-208zM896 475v196h208v-196h-208zM647 0v671h207v-671h-207zM397 475v196h207v-196h-207zM147 0v671h207v-671h-207z" />
    <glyph glyph-name="uni0915094D" horiz-adv-x="415" 
d="M143 203q0 -52 53 -52q27 0 56 8v410h-286v94h662v-94h-267v-71q22 7 59 7q82 0 115.5 -37t33.5 -109v-14h-100v11q0 27 -12 39.5t-42.5 12.5t-53.5 -6v-402h-109v66q-48 -8 -66 -8q-77 0 -113.5 34.5t-36.5 105.5v162q0 145 150 145q8 0 30 -3v-95l-16 1
q-32 0 -44.5 -13t-12.5 -39v-153z" />
    <glyph glyph-name="uni0916094D" horiz-adv-x="559" 
d="M395 255v96q0 74 35 109.5t122 35.5t121.5 -35.5t34.5 -109.5v-96q0 -76 -34.5 -110.5t-121.5 -34.5t-122 34.5t-35 110.5zM607 255v96q0 25 -11.5 37.5t-43.5 12.5t-44 -12.5t-12 -37.5v-96q0 -26 12 -38.5t44 -12.5t43.5 12.5t11.5 38.5zM248 514q0 31 -11 55h-271v94
h741v-94h-364q8 -19 8 -55v-122q0 -154 -153 -154q-26 0 -53 5v-55q0 -92 121 -92q67 0 126 21v-104q-59 -18 -135 -18q-107 0 -163 51t-56 141v261h107v-108q21 -3 49 -3q54 0 54 57v120z" />
    <glyph glyph-name="uni0917094D" horiz-adv-x="257" 
d="M218 569v-240q0 -74 -40 -113t-113 -39q-39 0 -48 3v107q24 -2 32 -2q58 0 58 52v232h-141v94h325v-94h-73z" />
    <glyph glyph-name="uni0918094D" horiz-adv-x="283" 
d="M52 514q0 33 6 55h-92v94h369v-94h-163q-9 -17 -9 -55v-50q0 -24 11.5 -36.5t43.5 -12.5h40v-103h-45q-56 0 -56 -50v-35q0 -37 23 -52.5t73 -15.5t95 13v-100q-54 -13 -114 -13q-91 0 -139.5 41t-48.5 114v51q0 79 50 100q-44 25 -44 96v53z" />
    <glyph glyph-name="uni0919094D" horiz-adv-x="508" 
d="M379 331.5q0 62.5 62.5 62.5t62.5 -62.5t-62.5 -62.5t-62.5 62.5zM385 165v-21q0 -153 -197 -153q-68 0 -141 16v102q76 -17 130.5 -17t75.5 11t21 41v19q0 23 -12 34.5t-44 11.5h-23q-80 0 -120 32t-40 102v27q0 70 39.5 102t120.5 32h49v65h-284v94h582v-94h-186v-161
h-161q-27 0 -37.5 -11t-10.5 -33v-16q0 -22 10.5 -33t37.5 -11h23q86 0 126.5 -34t40.5 -105zM387 -221h-116l-105 163h101z" />
    <glyph glyph-name="uni091A094D" horiz-adv-x="264" 
d="M72 324q0 35 8 63h-70v100h258v-96h-73q-11 -19 -11 -67v-111q0 -58 70 -58q41 0 73 10v-98q-40 -11 -92 -11q-163 0 -163 153v115zM319 663v-94h-356v94h356z" />
    <glyph glyph-name="uni091B094D" horiz-adv-x="536" 
d="M386 338q0 68 -64 68q-32 0 -56 -10v93q33 10 71 10q76 0 116.5 -36t40.5 -107v-183q0 -89 -49.5 -128t-171.5 -39t-173.5 36.5t-51.5 119.5v28q0 69 50 92q-45 23 -45 95v130q0 41 21 62h-108v94h604v-94h-347q-35 0 -47 -15.5t-12 -48.5v-124q0 -25 11.5 -37.5
t43.5 -12.5h68v-98h-65q-34 0 -48 -11t-14 -41v-13q0 -37 21 -49.5t90.5 -12.5t92 16t22.5 56v160z" />
    <glyph glyph-name="uni091C094D" horiz-adv-x="356" 
d="M206 330q0 33 -10 55h-103v102h325v-96h-109q9 -19 9 -55v-130q0 -79 -47.5 -119.5t-135.5 -40.5q-47 0 -89 11v101q44 -11 85 -11q75 0 75 62v121zM417 663v-94h-451v94h451z" />
    <glyph glyph-name="uni091D094D" horiz-adv-x="426" 
d="M230 4q-44 0 -76 7v-84h-109v238h109v-58q30 -6 60.5 -6t43.5 12.5t13 37.5v29q0 46 -51 48h-9q-167 0 -167 133v9q0 71 40 102.5t127 31.5h49v65h-294v94h521v-94h-115v-161h-161q-31 0 -43 -9.5t-13 -28.5v-5q0 -22 11.5 -32.5t43.5 -10.5h277v-88h-123q18 -21 18 -58
v-33q0 -75 -38 -107t-114 -32z" />
    <glyph glyph-name="uni091E094D" horiz-adv-x="371" 
d="M448 663v-94h-482v94h482zM448 326v-96h-114v-28q0 -157 -187 -157q-45 0 -88 15v99q46 -12 87.5 -12t58.5 16.5t17 47.5v136q0 32 -17 48.5t-61.5 16.5t-81.5 -13v100q40 14 86 14q186 0 186 -158v-29h114z" />
    <glyph glyph-name="uni091F094D" horiz-adv-x="408" 
d="M154 329v-164q0 -36 23 -52t73 -16t117 13v-100q-64 -15 -127 -15q-95 0 -146 43t-51 125v174q0 158 172 158h25v74h-274v94h475v-94h-90v-176h-124q-73 0 -73 -64zM385 -221h-116l-105 163h101z" />
    <glyph glyph-name="uni0920094D" horiz-adv-x="420" 
d="M269 144v216q0 54 -59 54t-59 -54v-216q0 -53 59 -53t59 53zM377 364v-218q0 -151 -167 -151t-167 151v218q0 120 111 140v65h-188v94h487v-94h-188v-65q112 -21 112 -140zM388 -221h-116l-105 163h101z" />
    <glyph glyph-name="uni0921094D" horiz-adv-x="423" 
d="M391 162v-18q0 -153 -197 -153q-69 0 -141 16v102q74 -17 129.5 -17t76.5 11.5t21 42.5v12q0 23 -12 35.5t-44 12.5h-23q-80 0 -120 32t-40 102v30q0 70 39.5 102t120.5 32h49v65h-284v94h490v-94h-94v-161h-161q-27 0 -37.5 -11t-10.5 -33v-19q0 -22 10.5 -33t37.5 -11
h23q86 0 126.5 -34t40.5 -105zM395 -221h-116l-105 163h101z" />
    <glyph glyph-name="uni0922094D" horiz-adv-x="425" 
d="M206 501h47v68h-287v94h492v-94h-95v-170h-157q-32 0 -43 -12t-11 -36v-194q0 -30 14 -45t51 -15t51 14.5t14 44.5v18q0 46 -47 46l-31 -5v99q19 4 46 4q69 0 104 -33t35 -108v-27q0 -78 -41.5 -116.5t-130.5 -38.5q-175 0 -175 159v200q0 77 39.5 112t124.5 35z
M396 -221h-116l-105 163h101z" />
    <glyph glyph-name="uni0923094D" horiz-adv-x="413" 
d="M164 222q11 -13 42.5 -13t42.5 13t11 38v309h-107v-309q0 -25 11 -38zM447 663v-94h-75v-309q0 -151 -165 -151t-165 151v309h-76v94h481z" />
    <glyph glyph-name="uni0924094D" horiz-adv-x="239" 
d="M307 663v-94h-341v94h341zM224 393q-71 0 -71 -58v-183q0 -27 14 -38t49 -11v-104l-26 -1q-81 -1 -114.5 35t-33.5 109v196q0 74 41.5 116t125.5 42q54 0 99 -9v-102q-35 8 -84 8z" />
    <glyph glyph-name="uni0925094D" horiz-adv-x="377" 
d="M183.5 206q31.5 -25 113.5 -25t141 14v-101q-57 -15 -163.5 -15t-171 53t-64.5 153v120h116q50 0 70 16t20 57v40q0 26 -8 38t-33.5 12t-34.5 -12t-9 -38l1 -40h-106q-2 30 -2 36q0 154 147 154q77 0 111.5 -37.5t34.5 -112.5v-57q0 -77 -42.5 -115t-133.5 -38h-18v-19
q0 -58 31.5 -83z" />
    <glyph glyph-name="uni0926094D" horiz-adv-x="420" 
d="M35 213v138q0 79 40.5 113t128.5 34h48v71h-286v94h488v-94h-91v-173h-159q-33 0 -45 -11.5t-12 -36.5v-132q0 -51 62 -51q25 0 55 7v91h111v-266h-111v76q-30 -7 -71 -7q-158 0 -158 147zM497 -221h-116l-105 163h101z" />
    <glyph glyph-name="uni0927094D" horiz-adv-x="287" 
d="M52 514q0 33 6 55h-92v94h257v-94h-50q-10 -17 -10 -55v-48q0 -25 11.5 -37.5t43.5 -12.5h40v-103h-45q-32 0 -44 -12.5t-12 -37.5v-37q0 -67 92 -67q59 0 106 14v-101q-59 -13 -119 -13q-90 0 -140 41.5t-50 113.5v53q0 77 50 100q-44 25 -44 95v52z" />
    <glyph glyph-name="uni0928094D" horiz-adv-x="389" 
d="M191 384q-28 0 -38 -12t-10 -36v-132q0 -25 10 -37t38 -12t38.5 12t10.5 37v115q0 44 -9 65h-40zM466 663v-94h-500v94h500zM466 487v-103h-129q8 -40 8 -61v-120q0 -73 -37 -110.5t-117 -37.5q-155 0 -155 148v136q0 148 155 148h275z" />
    <glyph glyph-name="uni092A094D" horiz-adv-x="235" 
d="M206 119q-86 0 -124.5 37t-38.5 110v303h-77v94h331v-94h-142v-299q0 -51 66 -51q44 0 76 10v-99q-48 -11 -91 -11z" />
    <glyph glyph-name="uni092B094D" horiz-adv-x="454" 
d="M264 569h-109v-311q0 -52 62 -52q17 0 47 6v357zM375 569v-77q29 7 76 7q155 0 155 -145v-8h-99v4q0 27 -15 39.5t-53.5 12.5t-63.5 -6v-396h-111v114q-42 -7 -64 -7q-81 0 -118.5 37t-37.5 110v315h-78v94h676v-94h-267z" />
    <glyph glyph-name="uni092C094D" horiz-adv-x="252" 
d="M160.5 169.5q17.5 -17.5 68 -17.5t64.5 35l-150 122v-86q0 -36 17.5 -53.5zM281 395.5q-18 17.5 -67 17.5t-64 -32l149 -121v82q0 36 -18 53.5zM219 506q180 0 180 -160v-127q0 -160 -181.5 -160t-181.5 160v127q0 80 42.5 120t140.5 40zM413 663v-94h-447v94h447z" />
    <glyph glyph-name="uni092D094D" horiz-adv-x="425" 
d="M507 420v-95h-149v-128q0 -140 -159 -140t-159 140v83q0 140 159 140h52v95q0 26 -9.5 38t-39.5 12t-39.5 -12t-9.5 -38l4 -39h-111q-5 21 -5 43q0 149 160.5 149t160.5 -149v-99h145zM251 201v124h-52q-31 0 -41.5 -12t-10.5 -36v-76q0 -24 10.5 -36t41.5 -12t41.5 11.5
t10.5 36.5z" />
    <glyph glyph-name="uni092E094D" horiz-adv-x="408" 
d="M496 440v-95h-150v-147q0 -141 -159 -141t-159 141v103q0 139 159 139h52v129h-273v94h529v-94h-149v-129h150zM239 202v143h-52q-31 0 -41.5 -11.5t-10.5 -36.5v-95q0 -25 10.5 -37t41.5 -12t41.5 12t10.5 37z" />
    <glyph glyph-name="uni092F094D" horiz-adv-x="311" 
d="M158 514q0 29 -7 55h-185v94h408v-94h-114q7 -21 7 -55v-76q0 -116 -119 -121v-38q0 -90 115 -90q48 0 110 13v-103q-57 -13 -115 -13q-99 0 -159 45t-60 134v127h23q56 0 76 13.5t20 52.5v56z" />
    <glyph glyph-name="uni0930094D" horiz-adv-x="423" 
d="M271 514q0 33 -10 55h-295v94h497v-94h-87q6 -19 6 -55v-118q0 -148 -152 -148q-44 0 -71 9v-92q0 -69 100 -69q67 0 129 23v-104q-60 -20 -150 -20t-140 45t-50 122v289h111v-96q27 -9 56 -9q56 0 56 52v116zM392 -221h-116l-105 163h101z" />
    <glyph glyph-name="uni0932094D" horiz-adv-x="438" 
d="M431 386q-61 0 -61 -51v-125h-112v125q0 25 -11 38t-42 13t-41.5 -13t-10.5 -39v-159q0 -35 17 -54t53.5 -19t70.5 4v-102q-32 -4 -64 -4q-98 0 -143.5 42.5t-45.5 128.5v167q0 72 41 111.5t120 39.5t110 -52q35 51 109 51q39 0 81 -11v-102q-38 11 -71 11zM503 663v-94
h-537v94h537z" />
    <glyph glyph-name="uni0933094D" horiz-adv-x="432" 
d="M-34 663h639v-94h-639v94zM46 345q2 148 156 148q76 0 112 -47q35 47 110 47q152 0 152 -151v-197q0 -150 -151 -150q-73 0 -111 47q-38 -47 -112 -47q-156 0 -156 150v200zM256 146v196q0 25 -12 39t-43 14t-42.5 -13.5t-11.5 -39.5v-196q0 -26 11 -39.5t42.5 -13.5
t43.5 14t12 39zM475 147v194q0 26 -11.5 40t-43 14t-43 -14t-11.5 -40v-194q0 -26 12 -40t43.5 -14t42.5 13.5t11 40.5z" />
    <glyph glyph-name="uni0935094D" horiz-adv-x="243" 
d="M203 59q-163 0 -163 148v150q0 149 164 149q42 0 74 -5v-94q-30 4 -60 4q-70 0 -70 -55v-146q0 -56 71 -56q57 0 92 15v-95q-37 -15 -108 -15zM308 663v-94h-342v94h342z" />
    <glyph glyph-name="uni0936094D" horiz-adv-x="421" 
d="M384 517v-131q0 -146 -156 -146q-43 0 -67 9v-72q0 -76 93 -76q56 0 118 23v-104q-57 -20 -142 -20t-133 48t-48 126v229h112v-56q24 -9 55.5 -9t43.5 13t12 38v125q0 24 -12 37.5t-44 13.5q-55 0 -55 -53q0 -26 3 -38h-111q-4 20 -4 43q0 151 167.5 151t167.5 -151z" />
    <glyph glyph-name="uni0937094D" horiz-adv-x="273" 
d="M169 229.5q16 -15.5 68 -15.5t80 23l-164 177v-138q0 -31 16 -46.5zM221 115q-96 0 -137.5 40.5t-41.5 116.5v297h-76v94h452v-94h-265v-57l252 -269v-64q-64 -64 -184 -64z" />
    <glyph glyph-name="uni0938094D" horiz-adv-x="403" 
d="M256 514q0 33 -10 55h-280v94h497v-94h-105q7 -19 7 -55v-146h98v-96h-134q-36 -38 -115 -38q-24 0 -58 6v-75q0 -69 100 -69q61 0 121 23v-104q-58 -20 -145 -20t-137 44.5t-50 122.5v289h111v-112q23 -7 44 -7q56 0 56 52v130z" />
    <glyph glyph-name="uni0939094D" horiz-adv-x="415" 
d="M492 325v-93h-281q-33 0 -45.5 -12.5t-12.5 -36.5v-33q0 -59 85 -59t147 13v-95q-67 -15 -157 -15q-186 0 -186 149v37q0 68 47 95q-46 24 -47 89v17q0 66 39 96t121 30h62v62h-298v94h526v-94h-117v-159h-173q-27 0 -37.5 -9t-10.5 -29v-9q0 -20 11 -29t37 -9h290z" />
    <glyph glyph-name="uni0915093C094D" horiz-adv-x="415" 
d="M69 -44.5q0 62.5 62.5 62.5t62.5 -62.5t-62.5 -62.5t-62.5 62.5zM143 203q0 -52 53 -52q27 0 56 8v410h-286v94h662v-94h-267v-71q22 7 59 7q82 0 115.5 -37t33.5 -109v-14h-100v11q0 27 -12 39.5t-42.5 12.5t-53.5 -6v-402h-109v66q-48 -8 -66 -8q-77 0 -113.5 34.5
t-36.5 105.5v162q0 145 150 145q8 0 30 -3v-95l-16 1q-32 0 -44.5 -13t-12.5 -39v-153z" />
    <glyph glyph-name="uni0916093C094D" horiz-adv-x="559" 
d="M395 255v96q0 74 35 109.5t122 35.5t121.5 -35.5t34.5 -109.5v-96q0 -76 -34.5 -110.5t-121.5 -34.5t-122 34.5t-35 110.5zM607 255v96q0 25 -11.5 37.5t-43.5 12.5t-44 -12.5t-12 -37.5v-96q0 -26 12 -38.5t44 -12.5t43.5 12.5t11.5 38.5zM248 514q0 31 -11 55h-271v94
h741v-94h-364q8 -19 8 -55v-122q0 -154 -153 -154q-26 0 -53 5v-55q0 -92 121 -92q67 0 126 21v-104q-59 -18 -135 -18q-107 0 -163 51t-56 141v261h107v-108q21 -3 49 -3q54 0 54 57v120zM42.5 -6q62.5 0 62.5 -62.5t-62.5 -62.5t-62.5 62.5t62.5 62.5z" />
    <glyph glyph-name="uni0917093C094D" horiz-adv-x="257" 
d="M112 -16q-62 0 -62 62.5t62 62.5t62 -62.5t-62 -62.5zM218 569v-240q0 -74 -40 -113t-113 -39q-39 0 -48 3v107q24 -2 32 -2q58 0 58 52v232h-141v94h325v-94h-73z" />
    <glyph glyph-name="uni091C093C094D" horiz-adv-x="356" 
d="M206 330q0 33 -10 55h-103v102h325v-96h-109q9 -19 9 -55v-130q0 -79 -47.5 -119.5t-135.5 -40.5q-47 0 -89 11v101q44 -11 85 -11q75 0 75 62v121zM417 663v-94h-451v94h451zM41 -71.5q0 62.5 62.5 62.5t62.5 -62.5t-62.5 -62.5t-62.5 62.5z" />
    <glyph glyph-name="uni0928093C094D" horiz-adv-x="395" 
d="M197 384q-28 0 -38 -11.5t-10 -36.5v-132q0 -25 10 -37t38 -12t38.5 12t10.5 37v115q0 44 -9 65h-40zM469 487v-103h-126q8 -40 8 -61v-120q0 -73 -37 -110.5t-117 -37.5q-155 0 -155 148v136q0 148 155 148h272zM-22 -43.5q0 62.5 62.5 62.5t62.5 -62.5t-62.5 -62.5
t-62.5 62.5zM469 663v-94h-503v94h503z" />
    <glyph glyph-name="uni092B093C094D" horiz-adv-x="454" 
d="M264 569h-109v-311q0 -52 62 -52q17 0 47 6v357zM375 569v-77q29 7 76 7q155 0 155 -145v-8h-99v4q0 27 -15 39.5t-53.5 12.5t-63.5 -6v-396h-111v114q-42 -7 -64 -7q-81 0 -118.5 37t-37.5 110v315h-78v94h676v-94h-267zM87 -74q-62 0 -62 62.5t62 62.5t62 -62.5
t-62 -62.5z" />
    <glyph glyph-name="uni092F093C094D" horiz-adv-x="313" 
d="M158 514q0 29 -7 55h-185v94h408v-94h-114q7 -21 7 -55v-76q0 -116 -119 -121v-38q0 -90 115 -90q48 0 110 13v-103q-57 -13 -115 -13q-99 0 -159 45t-60 134v127h23q56 0 76 13.5t20 52.5v56zM7 3.5q0 62.5 61.5 62.5t61.5 -62.5t-61.5 -62.5t-61.5 62.5z" />
    <glyph glyph-name="itfStar" horiz-adv-x="672" 
d="M686 472l-233 -150q33 -81 100 -264l-218 180q-30 -22 -219 -180l102 264q-17 10 -121 77t-114 73l278 -9q46 174 74 264l71 -264q25 2 139 5.5t141 3.5z" />
    <glyph glyph-name="uni09080902" horiz-adv-x="413" 
d="M431 803q49 0 49 -49t-49 -49t-49 49t49 49zM418 843l-30 2q-70 0 -70 -66q0 -58 35 -116h92v-94h-88v-162h-165q-28 0 -38.5 -9.5t-10.5 -30.5v-4q0 -21 11 -31t38 -10h25q86 0 126.5 -34t40.5 -105v-31q0 -74 -37 -110t-123 -36q-42 0 -74 8v-90h-110v246h110v-57
q31 -7 62 -7q61 0 61 49v25q0 48 -56 48h-25q-160 0 -160 133v9q0 70 39 102t121 32h54v65h-280v94h278q-38 67 -38 139q0 137 152 137q40 0 60 -5v-91z" />
    <glyph glyph-name="uni09300941" horiz-adv-x="620" 
d="M271 514q0 33 -10 55h-295v94h688v-94h-277q5 -40 5 -50v-90q23 17 53 17h11q69 0 108 -35.5t39 -104.5v-64q0 -153 -161 -153h-6v103h5q30 0 40 11t10 39v45q0 30 -12 43t-41 13h-4q-43 0 -76.5 -42.5t-117.5 -42.5q-44 0 -71 9v-102q0 -69 100 -69q65 0 117 18v-102
q-60 -17 -144 -17t-134 45t-50 122v307h111v-104q27 -9 56 -9q56 0 56 52v106z" />
    <glyph glyph-name="uni09300942" horiz-adv-x="632" 
d="M271 514q0 33 -10 55h-295v94h700v-94h-290q6 -19 6 -55v-65q30 8 63 8q72 0 115 -36.5t43 -105.5v-83q0 -152 -160 -152h-15v103h13q30 0 40.5 11t10.5 38v68q0 53 -53.5 53t-53.5 -56q0 -33 5 -76h-112q0 2 -1 9q-3 21 -3 39q-17 -4 -51 -4t-64 10v-110q0 -69 100 -69
q67 0 129 23v-104q-60 -20 -150 -20t-140 45t-50 122v306h111v-96q36 -8 56 -8q56 0 56 51v99z" />
    <glyph glyph-name="uni09390941" horiz-adv-x="437" 
d="M265 -6h-30q-193 -3 -193 149v37q0 68 47 95q-46 24 -47 89v17q0 66 39 96t121 30h62v62h-298v94h505v-94h-96v-159h-173q-27 0 -37.5 -9t-10.5 -29v-9q0 -20 11 -29t37 -9h64q71 0 102.5 -32t31.5 -98v-31h-100v22q0 26 -9 36t-38 10h-42q-33 0 -45.5 -12.5t-12.5 -36.5
v-33q0 -59 82 -59h47q73 0 106.5 -33t33.5 -112t-33.5 -112.5t-108.5 -33.5h-95q-44 0 -79.5 19.5t-75.5 67.5l-72 83h127l24 -25q27 -31 44 -40t45 -9h65q31 0 43 10.5t12 38t-11.5 38.5t-41.5 11z" />
    <glyph glyph-name="uni09390942" horiz-adv-x="432" 
d="M240 -6h-25q-23 0 -32 -10t-9 -32.5t9.5 -32t31.5 -9.5l74 3v-89q-60 -3 -83 -3q-68 0 -100 30.5t-32 91.5t28 88q-65 27 -65 112v37q0 68 47 95q-46 24 -47 89v17q0 66 39 96t121 30h62v62h-293v94h500v-94h-96v-159h-173q-27 0 -37.5 -9t-10.5 -29v-9q0 -20 11 -29
t38 -9h63q71 0 102.5 -32t31.5 -98v-31h-99v22q0 25 -9.5 35.5t-38.5 10.5h-42q-32 0 -44.5 -12t-12.5 -37v-33q0 -59 81 -59h22q52 0 87.5 -17.5t73.5 -64.5l145 -181h-126l-95 120q-26 31 -42.5 38.5t-54.5 7.5z" />
    <glyph glyph-name="uni09260943" horiz-adv-x="420" 
d="M363 396h-159q-33 0 -45 -11.5t-12 -36.5v-90q0 -26 13 -38.5t41 -12.5t63 7v70h111v-326q-65 7 -92.5 7t-44.5 -10.5t-17 -42t17.5 -41.5t57 -10t81.5 7v-103q-38 -7 -90 -7q-83 0 -129 39t-46 116q0 151 153 155v48q-32 -8 -72 -8q-158 0 -158 147v96q0 79 40.5 113
t128.5 34h48v71h-286v94h488v-94h-91v-173z" />
    <glyph glyph-name="uni09390943" horiz-adv-x="514" 
d="M147 201v-241q0 -83 112 -83q74 0 134 18v-88q-59 -19 -149 -19t-145.5 43.5t-55.5 125.5v247q0 59 43 82q-42 21 -43 82v13q0 66 39 96t120 30h117v62h-353v94h582v-94h-118v-159h-231q-27 0 -37.5 -9t-10.5 -29v-2q0 -20 11 -29t38 -9h146q70 0 103 -28t33 -91
t-33.5 -92.5t-102.5 -29.5h-8q-18 0 -26.5 -6t-8.5 -25t16.5 -25.5t68.5 -6.5t105 12v-90q-54 -14 -129 -14t-119.5 25.5t-44.5 97t35.5 98.5t102.5 27h3q21 0 29.5 6t8.5 23.5t-8.5 23.5t-29.5 6h-144q-50 0 -50 -42z" />
    <glyph glyph-name="uni094D0930" horiz-adv-x="0" 
d="M-47 -116h-115l-52 123l-52 -123h-115l68 139h198z" />
    <glyph glyph-name="uni0930094D.1" horiz-adv-x="264" 
d="M421 343v-96h-200q-100 0 -151 31t-51 105v11h111q0 -34 20 -42.5t70 -8.5h201zM-34 569v94h455v-94h-455z" />
    <glyph glyph-name="uni0930094D.2" horiz-adv-x="0" 
d="M-155 663q-32 34 -32 98t43.5 99t116.5 35l50 -2v-96q-15 2 -31 2q-75 0 -75 -65q0 -19 7 -37t21 -34h-100z" />
    <glyph glyph-name="uni0930094D0902" horiz-adv-x="0" 
d="M-154 663q-39 50 -39 124t49 110t125 36l50 -2v-95q-14 2 -32 2q-40 0 -64 -19.5t-24 -51.5q0 -56 27 -92l9 -12h-101zM-37 748.5q0 48.5 48.5 48.5t48.5 -48.5t-48.5 -48.5t-48.5 48.5z" />
    <glyph glyph-name="uni0930094D.aMatraI" horiz-adv-x="0" 
d="M0 705h-66v55q0 72 36.5 107.5t98.5 35.5l36 -2v-96q-14 2 -31 2q-74 0 -74 -64v-38z" />
    <glyph glyph-name="uni0902.aMatraI" horiz-adv-x="0" 
d="M100 728q-63 0 -63 62.5t63 62.5q61 0 61 -62.5t-61 -62.5z" />
    <glyph glyph-name="uni0930094D0902.aMatraI" horiz-adv-x="0" 
d="M82.5 792q48.5 0 48.5 -48.5t-48.5 -48.5t-48.5 48.5t48.5 48.5zM-66 705v76q0 72 36.5 108t98.5 36q18 0 36 -2v-96q-20 2 -31 2q-74 0 -74 -65v-59h-66z" />
    <glyph glyph-name="uni09400930094D" 
d="M252 663v-94h-87v-569h-112v569h-87v94h87v82q0 23 -10.5 35.5t-38.5 12.5h-6q-50 0 -50 -48v-25h-111v28q0 148 146 148h7q83 0 115 -54q28 56 112 56l24 -1v-95q-6 1 -12 1q-34 0 -49.5 -15t-15.5 -50l1 -75h87z" />
    <glyph glyph-name="uni09400902" 
d="M284 721q-63 0 -63 62.5t63 62.5q61 0 61 -62.5t-61 -62.5zM53 663v82q0 23 -10.5 35.5t-38.5 12.5h-6q-50 0 -50 -48v-25h-111v28q0 72 41 110t120 38h6q79 0 120 -38t41 -110v-85h87v-94h-87v-569h-112v569h-87v94h87z" />
    <glyph glyph-name="uni09400930094D0902" 
d="M260 797q49 0 49 -48.5t-49 -48.5t-49 48.5t49 48.5zM166 745v-82h86v-94h-87v-569h-112v569h-87v94h87v82q0 23 -10.5 35.5t-38.5 12.5h-6q-50 0 -50 -48v-25h-111v28q0 148 146 148h7q77 0 110 -46q30 82 140 82l31 -2v-94h-20q-47 0 -66 -22.5t-19 -68.5z" />
    <glyph glyph-name="uni0940.aLong" 
d="M165 688v-25h87v-94h-87v-569h-112v569h-87v94h87v23q0 57 -30.5 81t-108.5 24h-46q-57 0 -85 -16t-28 -55h-112v9q1 78 56.5 121.5t160.5 43.5h68q237 0 237 -206z" />
    <glyph glyph-name="uni09400930094D.aLong" 
d="M252 663v-94h-87v-569h-112v569h-87v94h87v23q0 57 -30.5 81t-108.5 24h-46q-57 0 -85 -16t-28 -55h-112v9q1 78 56.5 121.5t160.5 43.5h68q126 0 170 -67q25 71 119 71l24 -1v-95q-6 1 -12 1q-34 0 -49.5 -15t-15.5 -50l1 -75h87z" />
    <glyph glyph-name="uni09400902.aLong" 
d="M294 727q-63 0 -63 62.5t63 62.5q61 0 61 -62.5t-61 -62.5zM165 688v-25h87v-94h-87v-569h-112v569h-87v94h87v23q0 57 -30.5 81t-108.5 24h-46q-57 0 -85 -16t-28 -55h-112v9q1 78 56.5 121.5t160.5 43.5h68q237 0 237 -206z" />
    <glyph glyph-name="uni09400930094D0902.aLong" 
d="M259.5 797q48.5 0 48.5 -48.5t-48.5 -48.5t-48.5 48.5t48.5 48.5zM165 745v-82h87v-94h-87v-569h-112v569h-87v94h87v23q0 57 -30.5 81t-108.5 24h-46q-57 0 -85 -16t-28 -55h-112v9q1 78 56.5 121.5t160.5 43.5h68q120 0 166 -60q26 98 145 98l31 -2v-94h-20
q-47 0 -66 -23t-19 -68z" />
    <glyph glyph-name="uni09470930094D" horiz-adv-x="0" 
d="M-72 738q0 -39 19 -75h-114l-65 95q-29 41 -73 41q-17 0 -26 -1v92q20 3 51.5 3t56.5 -16t56 -64l15 -23q7 53 41.5 80.5t91.5 27.5l24 -1v-95q-7 1 -12 1q-65 0 -65 -65z" />
    <glyph glyph-name="uni09470902" horiz-adv-x="0" 
d="M21 724q-63 0 -63 62.5t63 62.5q61 0 61 -62.5t-61 -62.5zM-331 890q20 3 53 3q73 0 126 -80l99 -150h-114l-65 95q-29 41 -73 41q-17 0 -26 -1v92z" />
    <glyph glyph-name="uni09470901" horiz-adv-x="0" 
d="M213 873h110v-4q0 -149 -191 -149t-191 149v4h110q0 -31 18.5 -44t62 -13t62.5 13t19 44zM73 933q0 59 59 59t59 -59t-59 -59t-59 59zM-331 890q20 3 53 3q73 0 126 -80l99 -150h-114l-65 95q-29 41 -73 41q-17 0 -26 -1v92z" />
    <glyph glyph-name="uni09470930094D0902" horiz-adv-x="0" 
d="M21.5 797q48.5 0 48.5 -48.5t-48.5 -48.5t-48.5 48.5t48.5 48.5zM6 836q-81 0 -81 -84q0 -45 22 -89h-114l-65 95q-29 41 -73 41q-17 0 -26 -1v92q20 3 51.5 3t56.5 -16t67 -81q4 65 44 100.5t107 35.5l38 -2v-95q-13 1 -27 1z" />
    <glyph glyph-name="uni09480930094D" horiz-adv-x="0" 
d="M-66 738q0 -43 13 -75h-99l-35 92q-9 24 -18 33.5t-22 9.5t-19 -1v93q16 3 32 3q37 0 58 -19q21 -21 39 -81q5 53 30.5 79t80.5 26l31 -1v-95q-14 1 -20 1q-71 0 -71 -65zM-448 890q18 3 49.5 3t58 -19t62.5 -68l101 -143h-103l-69 95q-32 41 -73 41q-17 0 -26 -1v92z
" />
    <glyph glyph-name="uni09480902" horiz-adv-x="0" 
d="M33 714q-63 0 -63 62.5t63 62.5q61 0 61 -62.5t-61 -62.5zM-205 893q82 0 110 -90l44 -140h-97l-30 92q-9 24 -18 33.5t-22 9.5t-19 -1v93q15 3 32 3zM-446 890q18 3 50 3q64 0 127 -87l101 -143h-110l-69 95q-32 41 -73 41q-17 0 -26 -1v92z" />
    <glyph glyph-name="uni09480901" horiz-adv-x="0" 
d="M249 873h110v-4q0 -149 -191 -149t-191 149v4h110q0 -31 18.5 -44t62 -13t62.5 13t19 44zM109 933q0 59 59 59t59 -59t-59 -59t-59 59zM-207 893q82 0 110 -90l44 -140h-97l-30 92q-9 24 -18 33.5t-22 9.5t-19 -1v93q15 3 32 3zM-448 890q18 3 50 3q64 0 127 -87
l101 -143h-110l-69 95q-32 41 -73 41q-17 0 -26 -1v92z" />
    <glyph glyph-name="uni09480930094D0902" horiz-adv-x="0" 
d="M17.5 797q48.5 0 48.5 -48.5t-48.5 -48.5t-48.5 48.5t48.5 48.5zM39 836h-20q-85 0 -85 -91q0 -45 13 -82h-105l-35 92q-9 24 -17.5 33.5t-22 9.5t-18.5 -1v93q15 3 32 3q37 0 57 -19.5t37 -70.5l1 -5q12 134 132 134l31 -2v-94zM-454 890q20 3 50.5 3t57 -19t62.5 -68
l101 -143h-102l-70 95q-32 41 -73 41q-17 0 -26 -1v92z" />
    <glyph glyph-name="uni094A0902" 
d="M253 727q-63 0 -63 62.5t63 62.5q61 0 61 -62.5t-61 -62.5zM53 569h-87v94h88q0 35 -16.5 52.5t-62.5 17.5q-97 0 -140.5 36t-43.5 124h110q0 -35 16.5 -52t63.5 -17q95 0 139 -38.5t44 -122.5h88v-94h-87v-569h-112v569z" />
    <glyph glyph-name="uni094B0930094D" 
d="M147 738q0 -41 18 -75h85v-94h-85v-569h-112v569h-87v94h84l-65 95q-29 41 -73 41q-17 0 -26 -1v92q19 3 51 3t57.5 -16.5t56.5 -63.5l15 -23q14 108 134 108l24 -1v-95q-7 1 -13 1q-64 0 -64 -65z" />
    <glyph glyph-name="uni094B0902" 
d="M232 852q61 0 61 -62.5t-61 -62.5q-63 0 -63 62.5t63 62.5zM252 663v-94h-87v-569h-112v569h-87v94h85l-65 95q-29 41 -73 41q-17 0 -26 -1v92q20 3 53 3q73 0 126 -80l99 -150h87z" />
    <glyph glyph-name="uni094B0930094D0902" 
d="M240.5 797q48.5 0 48.5 -48.5t-48.5 -48.5t-48.5 48.5t48.5 48.5zM225 836q-82 0 -82 -84q0 -45 22 -89h87v-94h-87v-569h-112v569h-87v94h80l-65 95q-27 41 -72 41q-17 0 -26 -1v92q18 3 50.5 3t57.5 -16t56 -64l15 -23q2 68 43 105t109 37l38 -2v-95q-13 1 -27 1z" />
    <glyph glyph-name="uni094C0930094D" 
d="M169.5 787.5q-16.5 -15.5 -16.5 -53t12 -71.5h87v-94h-87v-569h-112v569h-166v94h50l-70 95q-32 41 -73 41q-17 0 -26 -1v92q19 3 50 3t57.5 -19t62.5 -68l102 -143h24l-35 92q-9 24 -17.5 33.5t-22 9.5t-18.5 -1v93q15 3 32 3q37 0 57 -19q22 -22 40 -81q5 53 31 79
t82 26l31 -1v-95q-14 1 -20 1q-38 0 -54.5 -15.5z" />
    <glyph glyph-name="uni094C0902" 
d="M251 842q61 0 61 -62.5t-61 -62.5q-63 0 -63 62.5t63 62.5zM252 663v-94h-87v-569h-112v569h-163v94h44l-70 95q-32 41 -73 41q-17 0 -26 -1v92q19 3 51 3q63 0 126 -87l102 -143h20l-31 92q-8 24 -16.5 33.5t-22.5 9.5t-20 -1v93q16 3 32 3q83 0 111 -90l43 -140h92z
" />
    <glyph glyph-name="uni094C0930094D0902" 
d="M236 797q49 0 49 -48.5t-49 -48.5t-49 48.5t49 48.5zM258 836h-20q-85 0 -85 -91q0 -42 12 -82h87v-94h-87v-569h-112v569h-166v94h49l-70 95q-32 41 -72 41q-17 0 -26 -1v92q18 3 49.5 3t58 -19t61.5 -68l102 -143h17l-34 92q-10 24 -18.5 33.5t-21.5 9.5t-19 -1v93
q16 3 32 3q37 0 57 -19.5t41 -82.5q9 141 134 141l31 -2v-94z" />
    <glyph glyph-name="uni0915094D0937" horiz-adv-x="634" 
d="M272 466v55q0 25 -9.5 37.5t-38.5 12.5t-38.5 -12.5t-9.5 -37.5v-55q0 -26 9.5 -38.5t38.5 -12.5t38.5 12.5t9.5 38.5zM378 522v-44q0 -44 -11 -59h102v244h199v-94h-88v-569h-111v327h-253q-34 0 -44.5 -15t-10.5 -47v-65q0 -25 12 -37.5t44.5 -12.5t47.5 6v88h106v-244
h-106v58q-21 -6 -65 -6q-153 0 -153 149v79q0 76 55 100q-35 22 -35 99v43q0 146 155.5 146t155.5 -146z" />
    <glyph glyph-name="uni0915094D0937094D" horiz-adv-x="416" 
d="M272 466v55q0 25 -9.5 37.5t-38.5 12.5t-38.5 -12.5t-9.5 -37.5v-55q0 -26 9.5 -38.5t38.5 -12.5t38.5 12.5t9.5 38.5zM537 419v-92h-321q-34 0 -44.5 -15t-10.5 -47v-65q0 -25 12 -37.5t44.5 -12.5t47.5 6v88h106v-244h-106v58q-21 -6 -65 -6q-153 0 -153 149v79
q0 76 55 100q-35 22 -35 99v43q0 146 155.5 146t155.5 -146v-44q0 -44 -11 -59h170z" />
    <glyph glyph-name="uni0915094D0937094D092E" horiz-adv-x="1033" 
d="M447 663h620v-94h-88v-569h-109v345h-95v-147q0 -141 -159 -141t-159 141v103q0 18 2 26h-243q-34 0 -44.5 -15t-10.5 -47v-65q0 -25 12 -37.5t44.5 -12.5t47.5 6v88h106v-244h-106v58q-21 -6 -65 -6q-153 0 -153 149v79q0 76 55 100q-35 22 -35 99v43q0 146 155.5 146
t155.5 -146v-44q0 -44 -11 -59h149q38 21 100 21h52v129h-221v94zM272 466v55q0 25 -9.5 37.5t-38.5 12.5t-38.5 -12.5t-9.5 -37.5v-55q0 -26 9.5 -38.5t38.5 -12.5t38.5 12.5t9.5 38.5zM668 202v143h-52q-31 0 -41.5 -11.5t-10.5 -36.5v-95q0 -25 10.5 -37t41.5 -12
t41.5 12t10.5 37zM870 440v129h-95v-129h95z" />
    <glyph glyph-name="uni0915094D0937094D092E094D" horiz-adv-x="838" 
d="M775 440h150v-95h-150v-147q0 -141 -159 -141t-159 141v103q0 18 2 26h-243q-34 0 -44.5 -15t-10.5 -47v-65q0 -25 12 -37.5t44.5 -12.5t47.5 6v88h106v-244h-106v58q-21 -6 -65 -6q-153 0 -153 149v79q0 76 55 100q-35 22 -35 99v43q0 146 155.5 146t155.5 -146v-44
q0 -44 -11 -59h149q38 21 100 21h52v129h-224v94h480v-94h-149v-129zM272 466v55q0 25 -9.5 37.5t-38.5 12.5t-38.5 -12.5t-9.5 -37.5v-55q0 -26 9.5 -38.5t38.5 -12.5t38.5 12.5t9.5 38.5zM668 202v143h-52q-31 0 -41.5 -11.5t-10.5 -36.5v-95q0 -25 10.5 -37t41.5 -12
t41.5 12t10.5 37z" />
    <glyph glyph-name="uni0915094D0937094D092E094D092F" horiz-adv-x="1343" 
d="M1377 663v-94h-88v-569h-111v96q-37 -10 -94 -10q-99 0 -159 45t-60 134v46q0 22 -9.5 28t-36.5 6h-49v-147q0 -141 -159.5 -141t-159.5 141v103q0 18 2 26h-237q-34 0 -44.5 -15t-10.5 -47v-65q0 -25 12 -37.5t44.5 -12.5t47.5 6v88h106v-244h-106v58q-21 -6 -65 -6
q-153 0 -153 149v79q0 76 55 100q-35 22 -35 99v43q0 146 155.5 146t155.5 -146v-44q0 -44 -11 -59h143q38 21 100 21h52v129h-226v94h941zM272 466v55q0 25 -9.5 37.5t-38.5 12.5t-38.5 -12.5t-9.5 -37.5v-55q0 -26 9.5 -38.5t38.5 -12.5t38.5 12.5t9.5 38.5zM662 202v143
h-52q-31 0 -41.5 -11.5t-10.5 -36.5v-95q0 -25 10.5 -37t41.5 -12t41.5 12t10.5 37zM985 514q0 33 -8 55h-207v-129h62q84 0 114 -43q22 6 30.5 20t8.5 41v56zM1178 569h-91q6 -21 6 -55v-76q0 -116 -118 -121v-38q0 -90 115 -90q48 0 88 10v370z" />
    <glyph glyph-name="uni0915094D0937094D092F" horiz-adv-x="945" 
d="M587 514q0 36 -7 55h-136v94h535v-94h-87v-569h-112v96q-37 -10 -93 -10q-99 0 -159 45t-60 134v62h-252q-34 0 -44.5 -15t-10.5 -47v-65q0 -25 12 -37.5t44.5 -12.5t47.5 6v88h106v-244h-106v58q-21 -6 -65 -6q-153 0 -153 149v79q0 76 55 100q-35 22 -35 99v43
q0 146 155.5 146t155.5 -146v-44q0 -44 -11 -59h124q56 0 76 13.5t20 52.5v29zM272 466v55q0 25 -9.5 37.5t-38.5 12.5t-38.5 -12.5t-9.5 -37.5v-55q0 -26 9.5 -38.5t38.5 -12.5t38.5 12.5t9.5 38.5zM780 569h-91q7 -21 7 -55v-49q0 -117 -119 -120v-66q0 -90 115 -90
q48 0 88 10v370z" />
    <glyph glyph-name="uni0915094D0937094D0935" horiz-adv-x="869" 
d="M445 663h458v-94h-88v-569h-111v68q-32 -9 -76 -9q-84 0 -121.5 37t-37.5 111v120h-253q-34 0 -44.5 -15t-10.5 -47v-65q0 -25 12 -37.5t44.5 -12.5t47.5 6v88h106v-244h-106v58q-21 -6 -65 -6q-153 0 -153 149v79q0 76 55 100q-35 22 -35 99v43q0 146 155.5 146
t155.5 -146v-44q0 -44 -11 -59h111q28 87 150 87q34 0 76 -9v72h-259v94zM272 466v55q0 25 -9.5 37.5t-38.5 12.5t-38.5 -12.5t-9.5 -37.5v-55q0 -26 9.5 -38.5t38.5 -12.5t38.5 12.5t9.5 38.5zM645 411q-67 0 -67 -55v-146q0 -56 68 -56q38 0 63 9v240q-37 8 -64 8z" />
    <glyph glyph-name="uni091C094D091E" horiz-adv-x="628" 
d="M-34 663h696v-94h-88v-569h-111v391h-103q7 -21 7 -60v-103q0 -73 -38 -110.5t-106 -37.5q-37 0 -73 9v-89h-108v283h108v-94q31 -7 58 -7t37.5 13t10.5 38v100q0 39 -7 58h-115v96h329v82h-497v94z" />
    <glyph glyph-name="uni091C094D091E094D" horiz-adv-x="421" 
d="M-34 663h573v-94h-573v94zM134 391v96h405v-96h-179q7 -21 7 -60v-103q0 -73 -38 -110.5t-106 -37.5q-37 0 -73 9v-89h-108v283h108v-94q31 -7 58 -7t37.5 13t10.5 38v100q0 39 -7 58h-115z" />
    <glyph glyph-name="uni091C094D091E094D092F" horiz-adv-x="937" 
d="M971 663v-94h-87v-569h-112v106q-33 -20 -98 -20q-99 0 -156.5 45t-57.5 134v78q-1 28 -15.5 38t-57.5 10h-27q7 -21 7 -60v-103q0 -73 -38 -110.5t-106 -37.5q-37 0 -73 9v-89h-108v283h108v-94q31 -7 58 -7t37.5 13t10.5 38v100q0 39 -7 58h-115v96h261q141 0 151 -82
q33 12 33 59v50q0 55 -31 55h-582v94h1005zM772 569h-98q5 -3 9.5 -18.5t4.5 -36.5v-70q0 -116 -119 -121v-44q0 -45 26 -67.5t90 -22.5t87 44v336z" />
    <glyph glyph-name="uni0915094D0928" horiz-adv-x="1028" 
d="M215 407l-16 1q-32 0 -44.5 -13t-12.5 -39v-153q0 -26 12.5 -39t44.5 -13q5 0 53 8v410h-286v94h1096v-94h-88v-569h-111v384h-93q8 -40 8 -61v-120q0 -73 -37 -110.5t-117 -37.5q-155 0 -155 148v152q0 27 -15 39.5t-46.5 12.5t-47.5 -4v-403h-109v66q-48 -8 -65 -8
q-78 0 -114.5 34.5t-36.5 105.5v162q0 145 151 145q8 0 29 -3v-95zM673 204v115q0 44 -9 65h-40q-28 0 -38 -12t-10 -36v-132q0 -25 10 -37t38 -12t38.5 12t10.5 37zM863 487v82h-503v-71q24 6 53 6q79 0 118 -36q38 19 93 19h239z" />
    <glyph glyph-name="uni0916094D0928" horiz-adv-x="1166" 
d="M248 514q0 31 -11 55h-271v94h1234v-94h-88v-569h-111v384h-93q8 -40 8 -61v-120q0 -73 -37 -110.5t-117 -37.5q-106 0 -138 66q-31 -11 -72 -11q-87 0 -122 34.5t-35 110.5v96q0 74 35 109.5t118 35.5t115 -32q37 23 99 23h239v82h-658q8 -19 8 -55v-122
q0 -154 -153 -154q-26 0 -53 5v-55q0 -92 121 -92q67 0 126 21v-104q-59 -18 -135 -18q-107 0 -163 51t-56 141v261h107v-108q21 -3 49 -3q54 0 54 57v120zM496 351v-96q0 -26 12 -38.5t44 -12.5t43.5 12.5t11.5 38.5v96q0 25 -11.5 37.5t-43.5 12.5t-44 -12.5t-12 -37.5z
M811 204v115q0 44 -9 65h-40q-28 0 -38 -12t-10 -36v-132q0 -25 10 -37t38 -12t38.5 12t10.5 37z" />
    <glyph glyph-name="uni0917094D0928" horiz-adv-x="859" 
d="M894 663v-94h-88v-569h-111v384h-93q8 -40 8 -61v-120q0 -73 -37 -110.5t-117 -37.5q-155 0 -155 148v136q0 148 155 148h239v82h-477v-240q0 -74 -40 -113t-113 -39q-39 0 -48 3v107q24 -2 32 -2q58 0 58 52v232h-141v94h928zM505 204v115q0 44 -9 65h-40q-28 0 -38 -12
t-10 -36v-132q0 -25 10 -37t38 -12t38.5 12t10.5 37z" />
    <glyph glyph-name="uni0918094D0928" horiz-adv-x="900" 
d="M52 514q0 33 6 55h-92v94h968v-94h-88v-569h-111v384h-93q8 -40 8 -61v-120q0 -73 -37 -110.5t-111.5 -37.5t-111.5 28q-79 -24 -142 -24q-101 0 -151.5 40.5t-50.5 114.5v51q0 79 50 100q-44 25 -44 96v53zM545 204v115q0 44 -9 65h-40q-28 0 -38 -12t-10 -36v-132
q0 -25 10 -37t38 -12t38.5 12t10.5 37zM735 487v82h-563q-9 -17 -9 -55v-50q0 -24 11.5 -36.5t43.5 -12.5h40v-103h-45q-56 0 -56 -50v-35q0 -38 23.5 -53t69.5 -15t93 10q-2 22 -2 34v136q0 148 155 148h239z" />
    <glyph glyph-name="uni091A094D0928" horiz-adv-x="881" 
d="M72 324q0 35 8 63h-70v100h258v-96h-73q-11 -19 -11 -67v-111q0 -58 77 -58q31 0 64 7q-3 19 -3 41v136q0 148 155 148h239v82h-753v94h952v-94h-88v-569h-111v384h-93q8 -40 8 -61v-120q0 -73 -37 -110.5t-108 -37.5t-108 23q-59 -22 -135.5 -22t-123.5 39t-47 114v115z
M526 204v115q0 44 -9 65h-40q-28 0 -38 -12t-10 -36v-132q0 -25 10 -37t38 -12t38.5 12t10.5 37z" />
    <glyph glyph-name="uni091B094D0928" horiz-adv-x="537" 
d="M570 569h-140v-81q61 -26 61 -126v-168q0 -66 -25 -102v-409h-97v201h-65q6 -13 6 -43q0 -66 -30.5 -99.5t-101.5 -33.5q-131 0 -131 133q0 66 30.5 99t100.5 33h191v63q-42 -9 -100 -9q-121 0 -173 37t-52 119v19q0 69 50 92q-45 23 -45 95v118q0 41 21 62h-104v94h604
v-94zM178 -112q-26 0 -33.5 -11t-7.5 -36.5t7.5 -37t34.5 -11.5t35 11t8 38.5t-7 46.5h-37zM367 396q-15 16 -48.5 16t-55.5 -10v93q25 10 63 10v64h-106q-35 0 -47 -15.5t-12 -48.5v-112q0 -25 11.5 -37.5t42.5 -12.5h68v-98h-64q-35 0 -49 -11t-14 -41v-3
q0 -38 21.5 -50.5t91 -12.5t91.5 16t22 56v145q0 36 -15 52z" />
    <glyph glyph-name="uni091C094D0928" horiz-adv-x="970" 
d="M206 330q0 33 -10 55h-103v102h250q78 0 115 -30q38 30 109 30h239v82h-840v94h1039v-94h-88v-569h-111v384h-93q8 -40 8 -61v-120q0 -73 -37 -110.5t-117 -37.5q-155 0 -155 148v136q0 21 3 41q-17 11 -50 11h-56q9 -19 9 -55v-130q0 -79 -47.5 -119.5t-135.5 -40.5
q-47 0 -89 11v101q44 -11 85 -11q75 0 75 62v121zM616 204v115q0 44 -9 65h-40q-28 0 -38 -12t-10 -36v-132q0 -25 10 -37t38 -12t38.5 12t10.5 37z" />
    <glyph glyph-name="uni091D094D0928" horiz-adv-x="1031" 
d="M1065 663v-94h-88v-569h-111v384h-93q8 -40 8 -61v-120q0 -73 -37 -110.5t-117 -37.5q-155 0 -155 148v31h-108q18 -21 18 -58v-33q0 -75 -38 -107t-114 -32q-44 0 -76 7v-84h-109v238h109v-58q30 -6 60.5 -6t43.5 12.5t13 37.5v29q0 46 -51 48h-9q-167 0 -167 133v9
q0 71 40 102.5t127 31.5h49v65h-294v94h1099zM676 204v115q0 44 -9 65h-40q-28 0 -38 -12t-10 -36v-132q0 -25 10 -37t38 -12t38.5 12t10.5 37zM866 487v82h-494v-161h-161q-31 0 -43 -9.5t-13 -28.5v-5q0 -22 11.5 -32.5t43.5 -10.5h262v17q0 148 155 148h239z" />
    <glyph glyph-name="uni091F094D0928" horiz-adv-x="1008" 
d="M1043 663v-94h-88v-569h-111v384h-93q8 -40 8 -61v-120q0 -73 -37 -110.5t-117 -37.5q-155 0 -155 148v136q0 148 155 148h239v82h-493v-176h-124q-73 0 -73 -64v-164q0 -36 23 -52t73 -16t117 13v-100q-64 -15 -127 -15q-95 0 -146 43t-51 125v174q0 158 172 158h25v74
h-274v94h1077zM654 204v115q0 44 -9 65h-40q-28 0 -38 -12t-10 -36v-132q0 -25 10 -37t38 -12t38.5 12t10.5 37zM164 -58h101l120 -163h-116z" />
    <glyph glyph-name="uni0920094D0928" horiz-adv-x="1021" 
d="M1056 663v-94h-88v-569h-111v384h-93q8 -40 8 -61v-120q0 -73 -37 -110.5t-117 -37.5q-155 0 -155 148v136q0 148 155 148h239v82h-592v-65q112 -21 112 -140v-218q0 -151 -167 -151t-167 151v218q0 120 111 140v65h-188v94h1090zM269 144v216q0 54 -59 54t-59 -54v-216
q0 -53 59 -53t59 53zM667 204v115q0 44 -9 65h-40q-28 0 -38 -12t-10 -36v-132q0 -25 10 -37t38 -12t38.5 12t10.5 37zM167 -58h101l120 -163h-116z" />
    <glyph glyph-name="uni0921094D0928" horiz-adv-x="1023" 
d="M1058 663v-94h-88v-569h-111v384h-93q8 -40 8 -61v-120q0 -73 -37 -110.5t-117 -37.5q-155 0 -155 148v136q0 148 155 148h239v82h-497v-161h-161q-27 0 -37.5 -11t-10.5 -33v-19q0 -22 10.5 -33t37.5 -11h23q86 0 126.5 -34t40.5 -105v-18q0 -153 -197 -153
q-69 0 -141 16v102q74 -17 129.5 -17t76.5 11.5t21 42.5v12q0 23 -12 35.5t-44 12.5h-23q-80 0 -120 32t-40 102v30q0 70 39.5 102t120.5 32h49v65h-284v94h1092zM669 204v115q0 44 -9 65h-40q-28 0 -38 -12t-10 -36v-132q0 -25 10 -37t38 -12t38.5 12t10.5 37zM174 -58h101
l120 -163h-116z" />
    <glyph glyph-name="uni0924094D0928" horiz-adv-x="843" 
d="M877 663v-94h-88v-569h-111v384h-93q8 -40 8 -61v-120q0 -73 -37 -110.5t-117 -37.5q-155 0 -155 148v136q0 11 2 31q-19 14 -58 14h-8q-67 0 -67 -58v-174q0 -27 14 -38t49 -11l1 -103q-16 -2 -27 -2q-81 -1 -114.5 35t-33.5 109v187q0 79 42 118.5t136 39.5h23
q58 0 95 -24q36 24 101 24h239v82h-712v94h911zM488 204v115q0 44 -9 65h-40q-28 0 -38 -12t-10 -36v-132q0 -25 10 -37t38 -12t38.5 12t10.5 37z" />
    <glyph glyph-name="uni0925094D0928" horiz-adv-x="967" 
d="M409 663h592v-94h-87v-569h-112v384h-92q8 -40 8 -61v-120q0 -73 -37 -110.5t-119.5 -37.5t-119.5 42q-66 -18 -156 -18q-118 0 -182.5 53t-64.5 153v120h116q50 0 70 16t20 57v40q0 26 -8 38t-33.5 12t-34.5 -12t-9 -38l1 -40h-106q-2 30 -2 36q0 154 147 154
q77 0 111.5 -37.5t34.5 -112.5v-57q0 -77 -42.5 -115t-133.5 -38h-18v-19q0 -58 31.5 -83t101.5 -25t124 9v149q0 148 155 148h238v82h-393v94zM613 204v115q0 44 -9 65h-40q-28 0 -38.5 -12t-10.5 -36v-132q0 -25 10.5 -37t38.5 -12t38.5 12t10.5 37z" />
    <glyph glyph-name="uni0926094D0928" horiz-adv-x="421" 
d="M363 396h-159q-33 0 -45 -11.5t-12 -36.5v-119q0 -51 62 -51q25 0 55 7v87h111v-275h-111v101l-109 -89q-44 -36 -13 -71q13 -15 44 -23l-70 -61q-42 1 -72 33q-34 34 -24.5 82.5t66.5 94.5l45 35q-96 19 -96 127v125q0 79 40.5 113t128.5 34h48v71h-286v94h488v-94h-91
v-173z" />
    <glyph glyph-name="uni0927094D0928" horiz-adv-x="900" 
d="M52 514q0 33 6 55h-92v94h257v-94h-50q-10 -17 -10 -55v-48q0 -25 11.5 -37.5t43.5 -12.5h40v-103h-45q-32 0 -44 -12.5t-12 -37.5v-37q0 -37 23.5 -52t67.5 -15t95 11q-2 22 -2 33v136q0 148 155 148h239v82h-424v94h623v-94h-88v-569h-111v384h-93q8 -40 8 -61v-120
q0 -73 -37 -110.5t-112 -37.5t-113 29q-75 -25 -141 -25q-100 0 -150.5 41t-50.5 114v53q0 77 50 100q-44 25 -44 95v52zM545 204v115q0 44 -9 65h-40q-28 0 -38 -12t-10 -36v-132q0 -25 10 -37t38 -12t38.5 12t10.5 37z" />
    <glyph glyph-name="uni0928094D0928" horiz-adv-x="988" 
d="M1022 663v-94h-88v-569h-111v384h-93q8 -40 8 -61v-120q0 -73 -37 -110.5t-117 -37.5q-155 0 -155 148v136q0 26 4 45h-96q8 -40 8 -61v-120q0 -73 -37 -110.5t-117 -37.5q-155 0 -155 148v136q0 148 155 148h632v82h-857v94h1056zM240 204v115q0 44 -9 65h-40
q-28 0 -38 -12t-10 -36v-132q0 -25 10 -37t38 -12t38.5 12t10.5 37zM633 204v115q0 44 -9 65h-40q-28 0 -38 -12t-10 -36v-132q0 -25 10 -37t38 -12t38.5 12t10.5 37z" />
    <glyph glyph-name="uni092A094D0928" horiz-adv-x="830" 
d="M865 663v-94h-88v-569h-111v384h-93q8 -40 8 -61v-120q0 -73 -37 -110.5t-117 -37.5q-110 0 -142 73q-40 -9 -79 -9q-86 0 -124.5 37t-38.5 110v303h-77v94h899zM476 204v115q0 44 -9 65h-40q-28 0 -38 -12t-10 -36v-132q0 -25 10 -37t38 -12t38.5 12t10.5 37zM666 487
v82h-511v-299q0 -51 66 -51q19 0 51 4v116q0 148 155 148h239z" />
    <glyph glyph-name="uni092B094D0928" horiz-adv-x="1040" 
d="M1075 663v-94h-88v-569h-111v384h-93q8 -40 8 -61v-120q0 -73 -37 -110.5t-117 -37.5q-155 0 -155 148v145q0 27 -15.5 39.5t-47.5 12.5t-44 -3v-397h-111v114q-42 -7 -64 -7q-81 0 -118.5 37t-37.5 110v315h-78v94h1109zM264 569h-109v-311q0 -52 62 -52q17 0 47 6v357z
M686 204v115q0 44 -9 65h-40q-28 0 -38 -12t-10 -36v-132q0 -25 10 -37t38 -12t38.5 12t10.5 37zM876 487v82h-501v-77q27 5 50 5q76 0 114 -32q38 22 98 22h239z" />
    <glyph glyph-name="uni092C094D0928" horiz-adv-x="844" 
d="M878 663v-94h-88v-569h-111v384h-93q8 -40 8 -61v-120q0 -73 -37 -110.5t-115.5 -37.5t-116.5 35q-39 -31 -123 -31q-166 0 -166 160v117q0 79 41.5 119t128 40t126.5 -37q38 29 108 29h239v82h-713v94h912zM285 331q0 38 -15 54.5t-61 16.5t-60 -32l136 -106v67z
M143 223q0 -36 15.5 -53.5t55.5 -17.5q56 0 67 39l-138 109v-77zM489 204v115q0 44 -9 65h-40q-28 0 -38 -12t-10 -36v-132q0 -25 10 -37t38 -12t38.5 12t10.5 37z" />
    <glyph glyph-name="uni092D094D0928" horiz-adv-x="1009" 
d="M424 663h619v-94h-88v-569h-111v384h-93q8 -40 8 -61v-120q0 -73 -37 -110.5t-117 -37.5q-155 0 -155 148v122h-92v-128q0 -140 -159 -140t-159 140v83q0 140 159 140h52v95q0 26 -9.5 38t-39.5 12t-39.5 -12t-9.5 -38l4 -39h-112q-4 20 -4 43q0 149 160.5 149
t160.5 -149v-99h104q32 67 139 67h239v82h-420v94zM251 201v124h-52q-31 0 -41.5 -12t-10.5 -36v-76q0 -24 10.5 -36t41.5 -12t41.5 11.5t10.5 36.5zM654 204v115q0 44 -9 65h-40q-28 0 -38 -12t-10 -36v-132q0 -25 10 -37t38 -12t38.5 12t10.5 37z" />
    <glyph glyph-name="uni092E094D0928" horiz-adv-x="994" 
d="M1029 663v-94h-88v-569h-111v384h-93q8 -40 8 -61v-120q0 -73 -37 -110.5t-117 -37.5q-155 0 -155 148v142h-90v-147q0 -141 -159 -141t-159 141v103q0 139 159 139h52v129h-273v94h1063zM239 202v143h-52q-31 0 -41.5 -11.5t-10.5 -36.5v-95q0 -25 10.5 -37t41.5 -12
t41.5 12t10.5 37zM640 204v115q0 44 -9 65h-40q-28 0 -38 -12t-10 -36v-132q0 -25 10 -37t38 -12t38.5 12t10.5 37zM830 487v82h-484v-129h119q36 47 126 47h239z" />
    <glyph glyph-name="uni092F094D0928" horiz-adv-x="906" 
d="M158 514q0 29 -7 55h-185v94h974v-94h-88v-569h-111v384h-93q8 -40 8 -61v-120q0 -73 -37 -110.5t-121.5 -37.5t-121.5 46q-52 -15 -118 -15q-99 0 -159 45t-60 134v127h23q56 0 76 13.5t20 52.5v56zM551 204v115q0 44 -9 65h-40q-28 0 -38 -12t-10 -36v-132
q0 -25 10 -37t38 -12t38.5 12t10.5 37zM741 487v82h-481q7 -21 7 -55v-76q0 -116 -119 -121v-38q0 -90 115 -90q37 0 84 9v141q0 148 155 148h239z" />
    <glyph glyph-name="uni0935094D0928" horiz-adv-x="847" 
d="M243 410l-25 1q-70 0 -70 -55v-146q0 -56 71 -56q37 0 73 9q-3 18 -3 40v136q0 148 155 148h239v82h-717v94h916v-94h-88v-569h-111v384h-93q8 -40 8 -61v-120q0 -73 -37 -110.5t-111 -37.5t-112 27q-54 -23 -128 -23q-170 0 -170 148v150q0 149 164 149q25 0 39 -2v-94z
M493 204v115q0 44 -9 65h-40q-28 0 -38 -12t-10 -36v-132q0 -25 10 -37t38 -12t38.5 12t10.5 37z" />
    <glyph glyph-name="uni0936094D0928" horiz-adv-x="610" 
d="M445 663h199v-94h-87v-569h-105v124l-77 56l-89 -93q-40 -41 -5 -72q15 -13 46 -17l-63 -69q-42 -4 -70.5 21.5t-37.5 52.5t1.5 61.5t43.5 69.5l98 102l-79 57l-82 -82l-126 18l127 126q-50 38 -68 70.5t-18 87.5v9q0 146 155.5 146t155.5 -146v-9q0 -49 -16 -78.5
t-56 -69.5l153 -113v411zM258 504v17q0 25 -9.5 37.5t-39 12.5t-39 -12.5t-9.5 -37.5v-17q0 -30 23 -53q7 -7 25 -22q35 30 42 44.5t7 30.5z" />
    <glyph glyph-name="uni0938094D0928" horiz-adv-x="1024" 
d="M256 514q0 33 -10 55h-280v94h1093v-94h-88v-569h-111v384h-93q8 -40 8 -61v-120q0 -73 -37 -110.5t-117 -37.5q-155 0 -155 148v69h-137q-36 -38 -115 -38q-24 0 -58 6v-75q0 -69 100 -69q61 0 121 23v-104q-58 -20 -145 -20t-137 44.5t-50 122.5v289h111v-112
q23 -7 44 -7q56 0 56 52v130zM670 204v115q0 44 -9 65h-40q-28 0 -38 -12t-10 -36v-132q0 -25 10 -37t38 -12t38.5 12t10.5 37zM860 487v82h-502q7 -19 7 -55v-146h103q12 119 153 119h239z" />
    <glyph glyph-name="uni0939094D0928" horiz-adv-x="1019" 
d="M1055 663v-94h-88v-569h-111v384h-93q8 -40 8 -61v-120q0 -73 -37 -110.5t-117 -37.5q-155 0 -155 148v29h-251q-33 0 -45.5 -12.5t-12.5 -36.5v-33q0 -59 85 -59t147 13v-95q-67 -15 -157 -15q-186 0 -186 149v37q0 68 47 95q-46 24 -47 89v17q0 66 39 96t121 30h62v62
h-298v94h1089zM666 204v115q0 44 -9 65h-40q-28 0 -38 -12t-10 -36v-132q0 -25 10 -37t38 -12t38.5 12t10.5 37zM856 487v82h-481v-159h-173q-27 0 -37.5 -9t-10.5 -29v-9q0 -20 11 -29t37 -9h260v14q0 148 155 148h239z" />
    <glyph glyph-name="uni0915094D0930" horiz-adv-x="630" 
d="M231 407l-16 1q-32 0 -44.5 -13t-12.5 -39v-119q0 -26 12.5 -39t41.5 -13t56 9v375h-302v94h698v-94h-288v-71q25 7 65 7q150 0 150 -145v-151q0 -72 -33 -108.5t-108 -36.5q-6 0 -22 2v104q10 -1 14 -1q25 1 33.5 12.5t8.5 37.5v138q0 25 -12.5 38t-42 13t-53.5 -6v-402
h-109v101l-4 -1l-104 -144h-125l108 142q-91 23 -91 135v127q0 145 151 145q8 0 29 -3v-95z" />
    <glyph glyph-name="uni0916094D0930" horiz-adv-x="768" 
d="M248 514q0 31 -11 55h-271v94h837v-94h-88v-569h-109v117q-28 -7 -62 -7q-82 0 -116 35.5t-34 109.5v95q0 75 32 111.5t113 36.5q40 0 67 -6v77h-263q8 -19 8 -55v-122q0 -154 -153 -154q-26 0 -53 5v-55q0 -92 121 -92q58 0 103 17v-103l-122 -112l-147 13v4l127 95
q-189 12 -189 177v261h107v-108q21 -3 49 -3q54 0 54 57v120zM552 401q-32 0 -44.5 -13t-12.5 -37v-96q0 -25 12.5 -38t46.5 -13t52 7v184q-48 6 -54 6z" />
    <glyph glyph-name="uni0917094D0930" horiz-adv-x="487" 
d="M521 663v-94h-87v-569h-106v46q0 90 11 141h-1q-17 -38 -88 -115l-61 -72h-132l265 320v249h-104v-206q0 -74 -40 -113t-113 -39q-39 0 -48 3v107q6 -2 32 -2q58 0 58 52v198h-141v94h555z" />
    <glyph glyph-name="uni0918094D0930" horiz-adv-x="503" 
d="M54 514q0 29 7 55h-95v94h571v-94h-87v-569h-112v108h-2l-145 -157h-141l138 149q-68 10 -104 49.5t-36 102.5v20q0 78 50 100q-44 25 -44 96v46zM160 269v-22q0 -37 22.5 -52.5t68.5 -15.5t87 12v378h-163q-9 -17 -9 -55v-43q0 -24 11.5 -36.5t42.5 -12.5h41v-103h-45
q-32 0 -44 -13t-12 -37z" />
    <glyph glyph-name="uni0919094D0930" horiz-adv-x="508" 
d="M-40 663h582v-94h-186v-161h-161q-27 0 -37.5 -11t-10.5 -33v-16q0 -22 10.5 -33t37.5 -11h23q86 0 126.5 -34t40.5 -105v-21q0 -93 -70 -129l64 -131h-115l-46 108l-12 -1l-46 -107h-115l55 113q-36 6 -53 10v102q76 -17 130.5 -17t75.5 11t21 41v19q0 23 -12 34.5
t-44 11.5h-23q-80 0 -120 32t-40 102v27q0 70 39.5 102t120.5 32h49v65h-284v94zM441.5 394q62.5 0 62.5 -62.5t-62.5 -62.5t-62.5 62.5t62.5 62.5z" />
    <glyph glyph-name="uni091A094D0930" horiz-adv-x="481" 
d="M78 324q0 30 7 63h-63v100h251v-96h-73q-11 -19 -11 -67v-65q0 -58 67 -58q33 0 60 9v359h-350v94h549v-94h-87v-569h-112v121l-4 -1l-127 -145h-132l125 142q-100 25 -100 147v60z" />
    <glyph glyph-name="uni091B094D0930" horiz-adv-x="537" 
d="M49 514q0 31 11 55h-94v94h604v-94h-140v-87q61 -26 61 -126v-183q0 -67 -26.5 -104.5t-88.5 -52.5l61 -125h-115l-49 115h-6l-49 -115h-115l61 124q-63 14 -91.5 49.5t-28.5 97.5v28q0 69 50 92q-45 23 -45 95v137zM367 390q-15 16 -48.5 16t-55.5 -9v92q26 10 63 10v70
h-154q-11 -17 -11 -55v-133q0 -25 11.5 -37.5t42.5 -12.5h68v-98h-64q-35 0 -49 -11t-14 -41v-13q0 -38 21 -50t91 -12t92 16t22 56v160q0 36 -15 52z" />
    <glyph glyph-name="uni091C094D0930" horiz-adv-x="598" 
d="M206 330q0 33 -10 55h-103v102h340v82h-467v94h666v-94h-88v-569h-111v13q0 74 5 106h-2q-12 -33 -77 -98l-76 -78h-134v3l284 304v141h-124q9 -19 9 -55v-70q0 -79 -47.5 -119.5t-135.5 -40.5q-47 0 -89 11v101q47 -10 85 -10q75 0 75 62v60z" />
    <glyph glyph-name="uni091D094D0930" horiz-adv-x="701" 
d="M214 408q-49 0 -49 -40v-5q0 -21 11 -30.5t37 -10.5h324v247h-91v-161h-232zM373 176v-30q0 -75 -39 -107.5t-116 -32.5q-32 0 -64 7v-84h-109v238h109v-57q21 -7 46 -7q61 0 61 51v26q0 48 -53 48h-2q-152 0 -152 133v9q0 70 39 102t121 32h121v65h-369v94h770v-94h-88
v-576h-102v22q0 52 6 92h-1q-17 -45 -62 -102l-73 -88h-126l228 283l-1 34h-163q19 -20 19 -58z" />
    <glyph glyph-name="uni091E094D0930" horiz-adv-x="551" 
d="M382 257h-97v-26q0 -70 -45 -106.5t-126 -36.5q-40 0 -72 8v103q36 -9 70 -9q61 0 61 60v104q0 60 -62 60q-35 0 -66 -9v103q29 9 70 9q170 0 170 -145v-21h101v218h-420v94h619v-94h-87v-576h-112v36q0 35 5 84h-4q-15 -51 -59 -101l-83 -92h-128l265 307v30z" />
    <glyph glyph-name="uni091F094D0930" horiz-adv-x="408" 
d="M351 393h-124q-73 0 -73 -64v-164q0 -36 23 -52t73 -16t117 13v-100q-37 -8 -46 -9l57 -117h-115l-47 112h-9l-48 -112h-115l68 139h3q-72 41 -72 140v174q0 158 172 158h25v74h-274v94h475v-94h-90v-176z" />
    <glyph glyph-name="uni0920094D0930" horiz-adv-x="420" 
d="M216 -5h-10l-47 -111h-115l65 133q-66 35 -66 129v218q0 120 111 140v65h-188v94h487v-94h-188v-65q112 -21 112 -140v-218q0 -92 -64 -128l65 -134h-115zM269 144v216q0 54 -59 54t-59 -54v-216q0 -53 59 -53t59 53z" />
    <glyph glyph-name="uni0921094D0930" horiz-adv-x="423" 
d="M362 408h-161q-27 0 -37.5 -11t-10.5 -33v-19q0 -22 10.5 -33t37.5 -11h23q86 0 126.5 -34t40.5 -105v-18q0 -93 -70 -129l64 -131h-115l-46 108l-12 -1l-46 -107h-115l55 113q-32 5 -53 10v102q74 -17 129.5 -17t76.5 11.5t21 42.5v12q0 23 -12 35.5t-44 12.5h-23
q-80 0 -120 32t-40 102v30q0 70 39.5 102t120.5 32h49v65h-284v94h490v-94h-94v-161z" />
    <glyph glyph-name="uni0922094D0930" horiz-adv-x="425" 
d="M224 -5h-10l-47 -111h-115l64 130q-74 36 -74 140v200q0 77 39.5 112t124.5 35h47v68h-287v94h492v-94h-95v-170h-157q-32 0 -43 -12t-11 -36v-194q0 -30 14 -45t51 -15t51 14.5t14 44.5v18q0 46 -47 46l-31 -5v99q19 4 46 4q69 0 104 -33t35 -108v-27q0 -99 -67 -134
l64 -132h-115z" />
    <glyph glyph-name="uni0923094D0930" horiz-adv-x="638" 
d="M166 326q11 -13 42.5 -13t42.5 13t11 38v205h-107v-205q0 -25 11 -38zM473 569h-99v-208q0 -151 -165 -151t-165 151v208h-78v94h706v-94h-88v-569h-111v47q0 84 12 142h-2q-19 -40 -87 -112l-76 -77h-133l286 315v254z" />
    <glyph glyph-name="uni0924094D0930" horiz-adv-x="474" 
d="M310 382q-40 12 -85 12t-65.5 -17.5t-20.5 -53.5v-61h-107v68q0 167 183 167q55 0 95 -12v84h-344v94h542v-94h-87v-569h-105v69q0 86 8 136h-3q-20 -44 -70 -97l-81 -90h-140l280 300v64z" />
    <glyph glyph-name="uni0925094D0930" horiz-adv-x="584" 
d="M419 663h199v-94h-87v-569h-112v121l-196 -167h-160v4l171 141q-95 8 -142.5 54.5t-47.5 136.5v115h117q50 0 70 16t20 57v40q0 26 -8 38t-34 12t-35 -12t-9 -38l2 -40h-107q-1 30 -1 36q0 154 147 154q77 0 111.5 -37.5t34.5 -112.5v-57q0 -77 -43 -115t-134 -38h-17
v-14q0 -58 31.5 -83t106 -25t123.5 12v465z" />
    <glyph glyph-name="uni0926094D0930" horiz-adv-x="425" 
d="M369 396h-160q-33 0 -45 -11.5t-12 -36.5v-116q0 -51 62 -51q26 0 56 7v75h110v-266h-110v106l-4 -1l-113 -167h-122l111 165q-52 10 -76.5 41t-24.5 88v122q0 79 40.5 113t127.5 34h48v71h-291v94h494v-94h-91v-173z" />
    <glyph glyph-name="uni0927094D0930" horiz-adv-x="503" 
d="M54 514q0 29 7 55h-95v94h287v-94h-78q-9 -17 -9 -55v-43q0 -24 11.5 -36.5t42.5 -12.5h41v-103h-45q-32 0 -44 -13t-12 -37v-22q0 -37 22.5 -52.5t68.5 -15.5t87 12v472h199v-94h-87v-569h-112v108h-2l-145 -157h-142l139 149q-68 10 -104 49.5t-36 102.5v20
q0 78 50 100q-44 25 -44 96v46z" />
    <glyph glyph-name="uni0928094D0930" horiz-adv-x="606" 
d="M188 384q-28 0 -38 -12t-10 -36v-45q0 -24 10.5 -36t38 -12t38 12t10.5 36v38q0 34 -9 55h-40zM441 384h-107q8 -40 8 -52v-42q0 -148 -154.5 -148t-154.5 148v49q0 148 155 148h253v82h-475v94h674v-94h-87v-569h-105v16q0 84 5 130h-1q-7 -30 -76 -109l-65 -73h-132
l262 304v116z" />
    <glyph glyph-name="uni092A094D0930" horiz-adv-x="443" 
d="M-34 663h511v-94h-87v-569h-111v197h-1l-136 -197h-125l132 192q-100 23 -100 142v235h-83v94zM160 569v-238q0 -52 62 -52q37 0 57 10v280h-119z" />
    <glyph glyph-name="uni092B094D0930" horiz-adv-x="635" 
d="M432 398q-24 0 -50 -8v-390h-111v179h-1l-121 -186h-124l122 186q-96 24 -96 140v250h-85v94h704v-94h-288v-77q27 9 64 9q153 0 153 -149v-147q0 -144 -147 -144q-14 0 -18 1v103q32 -1 43 10.5t11 39.5v133q0 50 -56 50zM163 569v-260q0 -52 62 -52q28 0 46 6v306h-108
z" />
    <glyph glyph-name="uni092C094D0930" horiz-adv-x="453" 
d="M-34 663h521v-94h-87v-569h-106v99l-4 -1l-125 -141h-126l121 136q-62 7 -92 37t-30 97v125q0 83 43 118.5t132 35.5q45 0 81 -12v75h-328v94zM294 401q-32 12 -78 12t-62 -28l140 -126v142zM145 231q0 -65 79 -65q38 0 70 8v3l-149 136v-82z" />
    <glyph glyph-name="uni092D094D0930" horiz-adv-x="628" 
d="M253 268v79h-51q-31 0 -41.5 -11.5t-10.5 -36.5v-31q0 -25 10.5 -36.5t41.5 -11.5t41 12t10 36zM463 347h-102v-82q0 -141 -159.5 -141t-159.5 141v37q0 140 160 140h51v73q0 26 -9.5 38t-39 12t-39 -12t-9.5 -38l2 -28h-111q-3 13 -3 32q0 149 160.5 149t160.5 -149v-77
h98v221h199v-94h-87v-575h-105v15q0 72 9 130h-2q-14 -46 -75 -114l-70 -79h-132l263 305v96z" />
    <glyph glyph-name="uni092E094D0930" horiz-adv-x="599" 
d="M234 273v97h-51q-31 0 -41 -12t-10 -37v-49q0 -25 10.5 -37.5t41 -12.5t40.5 12.5t10 38.5zM341 464h95v105h-95v-105zM436 -6v28q0 51 8 110h-1q-13 -43 -75 -112l-69 -79h-131l268 305v124h-95v-101q0 -143 -158 -143t-158 143v55q0 140 158 140h51v105h-268v94h667
v-94h-87v-575h-110z" />
    <glyph glyph-name="uni092F094D0930" horiz-adv-x="516" 
d="M158 514q0 29 -7 55h-185v94h584v-94h-87v-569h-112v145l-5 -1l-155 -153h-143l157 148q-77 11 -121.5 55t-44.5 120v99h23q56 0 76 13.5t20 52.5v35zM148 320q0 -90 115 -90q45 0 88 9v330h-91q7 -21 7 -55v-55q0 -117 -119 -120v-19z" />
    <glyph glyph-name="uni0935094D0930" horiz-adv-x="445" 
d="M-34 663h513v-94h-87v-569h-112v116l-2 -1l-134 -147h-124l131 143q-105 21 -105 144v102q0 149 159 149q36 0 75 -9v72h-314v94zM155 356v-112q0 -56 68 -56q39 0 62 9v206q-35 8 -63 8q-67 0 -67 -55z" />
    <glyph glyph-name="uni0936094D0930" horiz-adv-x="610" 
d="M445 663h199v-94h-87v-569h-112v207q-27 -46 -70 -89l-103 -108l-132 7l175 183l-95 69l-82 -83l-126 18l127 126q-49 38 -67.5 71t-18.5 87v34q0 146 155.5 146t155.5 -146v-34q0 -49 -16 -78.5t-56 -69.5l92 -68l61 64v327zM258 480v41q0 25 -9.5 37.5t-39 12.5
t-39 -12.5t-9.5 -37.5v-41q0 -17 7.5 -32t15.5 -22t25 -21q18 15 25.5 21.5t15.5 21.5t8 32z" />
    <glyph glyph-name="uni0938094D0930" horiz-adv-x="662" 
d="M230 569h-264v94h730v-94h-87v-569h-105v129q0 120 5 161h-2q-20 -28 -139 -133l-119 19l176 144h-99q-31 -40 -102 -40q-40 0 -69 8v-108q0 -45 25.5 -64.5t84 -19.5t128.5 12v-101q-60 -12 -136 -12q-108 0 -160 43.5t-52 140.5v296h110v-90q19 -6 49 -6t41 12.5
t11 37.5v90q0 50 -26 50zM366 416h131v153h-141q10 -13 10 -59v-94z" />
    <glyph glyph-name="uni0939094D0930" horiz-adv-x="506" 
d="M413 418h-211q-27 0 -37.5 -9t-10.5 -29v-9q0 -38 48 -38h142q72 0 103 -28t31 -93v-45h-100v36q0 23 -7 33l-83 -109l-96 8l86 114h-67q-58 0 -58 -49v-51q0 -39 25.5 -57t104.5 -18t180 19v-95q-73 -21 -195 -21t-174 41.5t-52 124.5v53q0 64 47 91q-45 24 -47 92v9
q0 66 38.5 94t121.5 28h100v59h-336v94h574v-94h-127v-151z" />
    <glyph glyph-name="uni0915093C094D0930" horiz-adv-x="630" 
d="M231 407l-16 1q-32 0 -44.5 -13t-12.5 -39v-119q0 -26 12.5 -39t41.5 -13t56 9v375h-302v94h698v-94h-288v-71q25 7 65 7q150 0 150 -145v-151q0 -72 -33 -108.5t-108 -36.5q-6 0 -22 2v104q10 -1 14 -1q25 1 33.5 12.5t8.5 37.5v138q0 25 -12.5 38t-42 13t-53.5 -6v-402
h-109v101l-4 -1l-104 -144h-125l108 142q-91 23 -91 135v127q0 145 151 145q8 0 29 -3v-95zM248 -47q62 0 62 -62.5t-62 -62.5t-62 62.5t62 62.5z" />
    <glyph glyph-name="uni0916093C094D0930" horiz-adv-x="774" 
d="M248 514q0 31 -11 55h-271v94h837v-94h-88v-569h-109v117q-28 -7 -62 -7q-82 0 -116 35.5t-34 109.5v95q0 75 32 111.5t113 36.5q40 0 67 -6v77h-263q8 -19 8 -55v-122q0 -154 -153 -154q-26 0 -53 5v-55q0 -92 121 -92q58 0 103 17v-103l-122 -112l-147 13v4l127 95
q-189 12 -189 177v261h107v-108q21 -3 49 -3q54 0 54 57v120zM552 401q-32 0 -44.5 -13t-12.5 -37v-96q0 -25 12.5 -38t46.5 -13t52 7v184q-48 6 -54 6zM496 -1q62 0 62 -62.5t-62 -62.5t-62 62.5t62 62.5z" />
    <glyph glyph-name="uni0917093C094D0930" horiz-adv-x="487" 
d="M521 663v-94h-87v-569h-106v46q0 90 11 141h-1q-17 -38 -88 -115l-61 -72h-132l265 320v249h-104v-206q0 -74 -40 -113t-113 -39q-39 0 -48 3v107q6 -2 32 -2q58 0 58 52v198h-141v94h555zM262 -30q62 0 62 -62.5t-62 -62.5t-62 62.5t62 62.5z" />
    <glyph glyph-name="uni091C093C094D0930" horiz-adv-x="603" 
d="M53 -59q-62 0 -62 62.5t62 62.5t62 -62.5t-62 -62.5zM212 330q0 33 -10 55h-103v102h340v82h-467v94h666v-94h-88v-569h-111v13q0 74 5 106h-2q-12 -33 -77 -98l-76 -78h-134v3l284 304v141h-124q9 -19 9 -55v-70q0 -79 -47.5 -119.5t-135.5 -40.5q-47 0 -89 11v101
q47 -10 85 -10q75 0 75 62v60z" />
    <glyph glyph-name="uni0921093C094D0930" horiz-adv-x="535" 
d="M471 408h-160q-49 0 -49 -44v-19q0 -22 10.5 -33t38.5 -11h22q86 0 127 -34t41 -105v-18q0 -95 -74 -131l63 -129h-115l-46 108l-13 -1l-45 -107h-115l56 114q-25 3 -49 9v102q74 -17 129.5 -17t76 10.5t20.5 40.5v15q0 23 -12 35.5t-44 12.5h-22q-161 0 -161 134v30
q0 70 39.5 102t121.5 32h48v65h-393v94h603v-94h-98v-161zM75 53q62 0 62 -62.5t-62 -62.5t-62 62.5t62 62.5z" />
    <glyph glyph-name="uni0922093C094D0930" horiz-adv-x="539" 
d="M335 -5h-5l-50 -116h-115l67 134q-76 37 -76 140v201q0 77 39.5 112t124.5 35h47v68h-401v94h607v-94h-96v-170h-157q-32 0 -43 -12t-11 -36v-194q0 -30 14 -45t51 -15t51 14.5t14 43.5v19q0 46 -44 46q-18 0 -34 -8v98q20 8 49 8q68 0 102 -33t34 -108v-27
q0 -101 -70 -136l67 -135h-115zM81.5 58q62.5 0 62.5 -62.5t-62.5 -62.5t-62.5 62.5t62.5 62.5z" />
    <glyph glyph-name="uni0928093C094D0930" horiz-adv-x="606" 
d="M403 -171q-62 0 -62 62.5t62 62.5t62 -62.5t-62 -62.5zM188 384q-28 0 -38 -12t-10 -36v-45q0 -24 10.5 -36t38 -12t38 12t10.5 36v38q0 34 -9 55h-40zM441 384h-107q8 -40 8 -52v-42q0 -148 -154.5 -148t-154.5 148v49q0 148 155 148h253v82h-475v94h674v-94h-87v-569
h-105v16q0 84 5 130h-1q-7 -30 -76 -109l-65 -73h-132l262 304v116z" />
    <glyph glyph-name="uni092B093C094D0930" horiz-adv-x="635" 
d="M432 398q-24 0 -50 -8v-390h-111v179h-1l-121 -186h-124l122 186q-96 24 -96 140v250h-85v94h704v-94h-288v-77q27 9 64 9q153 0 153 -149v-147q0 -144 -147 -144q-14 0 -18 1v103q32 -1 43 10.5t11 39.5v133q0 50 -56 50zM163 569v-260q0 -52 62 -52q28 0 46 6v306h-108
zM219 -37q62 0 62 -62.5t-62 -62.5t-62 62.5t62 62.5z" />
    <glyph glyph-name="uni092F093C094D0930" horiz-adv-x="516" 
d="M158 514q0 29 -7 55h-185v94h584v-94h-87v-569h-112v145l-5 -1l-155 -153h-143l157 148q-77 11 -121.5 55t-44.5 120v99h23q56 0 76 13.5t20 52.5v35zM148 320q0 -90 115 -90q45 0 88 9v330h-91q7 -21 7 -55v-55q0 -117 -119 -120v-19zM281 -22q62 0 62 -62.5t-62 -62.5
t-62 62.5t62 62.5z" />
    <glyph glyph-name="uni0915094D0930094D" horiz-adv-x="447" 
d="M231 407l-16 1q-32 0 -44.5 -13t-12.5 -39v-137q0 -26 12.5 -39t44.5 -13q5 0 53 8v394h-302v94h643v-94h-233v-71q31 7 73 7q83 0 119.5 -37.5t36.5 -108.5v-8h-100v5q0 52 -65 52q-37 0 -64 -6v-402h-109v100l-5 -1l-103 -143h-125l108 142q-91 22 -91 134v128
q0 145 151 145q8 0 29 -3v-95z" />
    <glyph glyph-name="uni0916094D0930094D" horiz-adv-x="559" 
d="M395 255v96q0 74 35 109.5t122 35.5t121.5 -35.5t34.5 -109.5v-96q0 -76 -34.5 -110.5t-121.5 -34.5t-122 34.5t-35 110.5zM607 255v96q0 25 -11.5 37.5t-43.5 12.5t-44 -12.5t-12 -37.5v-96q0 -26 12 -38.5t44 -12.5t43.5 12.5t11.5 38.5zM248 514q0 31 -11 55h-271v94
h741v-94h-364q8 -19 8 -55v-122q0 -154 -153 -154q-26 0 -53 5v-55q0 -92 121 -92q58 0 103 17v-103l-122 -112l-147 13v4l127 95q-189 12 -189 177v261h107v-108q21 -3 49 -3q54 0 54 57v120z" />
    <glyph glyph-name="uni0917094D0930094D" horiz-adv-x="271" 
d="M218 569v-199q0 -74 -40 -113t-113 -39q-39 0 -48 3v106q24 -2 32 -2q58 0 58 53v191h-141v94h347v-94h-95zM352 359v-140q-29 -61 -99 -144l-65 -75h-132z" />
    <glyph glyph-name="uni0918094D0930094D" horiz-adv-x="284" 
d="M52 514q0 33 6 55h-92v94h374v-94h-168q-9 -17 -9 -55v-38q0 -24 11.5 -36.5t43.5 -13.5h40v-102h-45q-56 0 -56 -50v-21q0 -37 23 -52.5t71.5 -15.5t95.5 10v-107l-148 -138h-139l153 136q-81 4 -124 44.5t-43 109.5v37q0 79 50 100q-44 25 -44 96v41z" />
    <glyph glyph-name="uni091A094D0930094D" horiz-adv-x="264" 
d="M72 324q0 35 8 63h-70v100h258v-96h-73q-11 -19 -11 -67v-90q0 -58 76 -58q45 0 78 11v-113l-146 -135h-138l157 139q-139 12 -139 152v94zM319 663v-94h-356v94h356z" />
    <glyph glyph-name="uni091C094D0930094D" horiz-adv-x="391" 
d="M206 330q0 33 -10 55h-103v102h387v-96h-171q9 -19 9 -55v-74q0 -79 -47.5 -119.5t-135.5 -40.5q-47 0 -89 11v101q44 -11 85 -11q75 0 75 62v65zM480 663v-94h-514v94h514zM170 -57v4l315 337v-110q-34 -79 -97 -146l-86 -85h-132z" />
    <glyph glyph-name="uni091D094D0930094D" horiz-adv-x="495" 
d="M213 322h345v-208q-14 -39 -69 -109l-73 -88h-126l254 317h-190q19 -20 19 -58v-33q0 -75 -39 -107.5t-116 -32.5q-40 0 -64 8v-85h-109v238h109v-57q18 -6 46 -6q61 0 61 50v29q0 48 -53 48h-2q-152 0 -152 133v9q0 70 39 102t121 32h121v65h-369v94h589v-94h-109v-161
h-232q-49 0 -49 -40v-5q0 -41 48 -41z" />
    <glyph glyph-name="uni091E094D0930094D" horiz-adv-x="369" 
d="M-34 663h481v-94h-481v94zM285 355v-23h162v-173q-28 -73 -82 -135l-86 -97h-128l270 309h-136v-22q0 -70 -45 -106.5t-116.5 -36.5t-81.5 5v103q15 -5 73 -5t58 59v105q0 59 -58 59t-70 -5v103q10 5 70 5q170 0 170 -145z" />
    <glyph glyph-name="uni091F094D0930094D" horiz-adv-x="408" 
d="M351 393h-124q-73 0 -73 -64v-164q0 -36 23 -52t73 -16t117 13v-100q-13 -3 -34 -7l60 -123h-115l-49 115h-6l-49 -115h-115l67 137q-83 40 -83 146v174q0 158 172 158h25v74h-274v94h475v-94h-90v-176zM167 -158h101l120 -163h-116z" />
    <glyph glyph-name="uni0920094D0930094D" horiz-adv-x="420" 
d="M215 -5h-8l-48 -113h-115l66 134q-67 35 -67 130v218q0 120 111 140v65h-188v94h487v-94h-188v-65q112 -21 112 -140v-218q0 -92 -65 -129l66 -135h-115zM269 144v216q0 54 -59 54t-59 -54v-216q0 -53 59 -53t59 53zM170 -159h101l120 -163h-116z" />
    <glyph glyph-name="uni0921094D0930094D" horiz-adv-x="420" 
d="M-40 663h490v-94h-94v-161h-161q-27 0 -37.5 -11t-10.5 -33v-19q0 -22 10.5 -33t37.5 -11h23q86 0 126.5 -34t40.5 -105v-18q0 -94 -73 -130l67 -138h-115l-49 116l-6 -1l-49 -115h-115l59 121q-19 2 -57 10v102q74 -17 129.5 -17t76.5 11.5t21 42.5v12q0 23 -12 35.5
t-44 12.5h-23q-80 0 -120 32t-40 102v30q0 70 39.5 102t120.5 32h49v65h-284v94zM166 -159h101l120 -163h-116z" />
    <glyph glyph-name="uni0922094D0930094D" horiz-adv-x="425" 
d="M222 -5h-6l-49 -115h-115l65 134q-75 35 -75 140v200q0 77 39.5 112t124.5 35h47v68h-287v94h492v-94h-95v-170h-157q-32 0 -43 -12t-11 -36v-194q0 -30 14 -45t51 -15t51 14.5t14 44.5v18q0 46 -47 46l-31 -5v99q19 4 46 4q69 0 104 -33t35 -108v-27q0 -100 -69 -135
l66 -135h-115zM179 -159h101l120 -163h-116z" />
    <glyph glyph-name="uni0923094D0930094D" horiz-adv-x="416" 
d="M166 326q11 -13 42.5 -13t42.5 13t11 38v205h-107v-205q0 -25 11 -38zM187 0l315 351v-127q-42 -77 -106 -147l-76 -77h-133zM502 663v-94h-128v-208q0 -151 -165 -151t-165 151v208h-78v94h536z" />
    <glyph glyph-name="uni0924094D0930094D" horiz-adv-x="257" 
d="M309 376q-40 12 -85 12t-65.5 -17.5t-20.5 -53.5v-61h-107v68q0 167 183 167q92 0 197 -44v-153q-41 -58 -140 -172l-95 -104h-140l273 300v58zM454 663v-94h-489v94h489z" />
    <glyph glyph-name="uni0925094D0930094D" horiz-adv-x="382" 
d="M152 308v-19q0 -59 32.5 -83.5t108.5 -24.5t148 15v-107l-209 -172h-159l206 164q-115 2 -177.5 53.5t-62.5 150.5v120h116q50 0 70 16t20 57v40q0 26 -8 38t-33.5 12t-34.5 -12t-9 -38l1 -40h-106q-2 30 -2 36q0 154 147 154q77 0 111.5 -37.5t34.5 -112.5v-57
q0 -77 -42.5 -115t-133.5 -38h-18z" />
    <glyph glyph-name="uni0926094D0930094D" horiz-adv-x="425" 
d="M386 -63l120 -163h-116l-105 163h101zM380 -3h-111v106l-4 -2l-112 -166h-123l108 160q-98 19 -98 128v128q0 79 40.5 113t128.5 34h48v71h-292v94h494v-94h-91v-173h-159q-33 0 -45 -11.5t-12 -36.5v-121q0 -26 13.5 -39t43 -13t41 7t19.5 23v58h111v-266z" />
    <glyph glyph-name="uni0927094D0930094D" horiz-adv-x="287" 
d="M52 514q0 33 6 55h-92v94h271v-94h-64q-10 -17 -10 -55v-36q0 -25 11.5 -37.5t43.5 -12.5h40v-103h-45q-32 0 -44 -12.5t-12 -37.5v-22q0 -37 23 -52.5t71.5 -15.5t95.5 10v-107l-148 -138h-139l153 136q-81 4 -124 44.5t-43 109.5v39q0 77 50 100q-44 25 -44 95v40z" />
    <glyph glyph-name="uni0928094D0930094D" horiz-adv-x="397" 
d="M191 384q-28 0 -38 -12t-10 -36v-45q0 -24 10.5 -36t38 -12t38 12t10.5 36v38q0 34 -9 55h-40zM499 663v-94h-533v94h533zM499 487v-103h-162q8 -40 8 -52v-42q0 -148 -154.5 -148t-154.5 148v49q0 148 155 148h308zM499 346v-115q-13 -27 -53.5 -89t-76.5 -105l-65 -73
h-132z" />
    <glyph glyph-name="uni092A094D0930094D" horiz-adv-x="235" 
d="M157 569v-247q0 -52 72 -52q57 0 97 10v-82l-164 -220h-129l163 193q-80 3 -115.5 40t-35.5 107v251h-79v94h331v-94h-140z" />
    <glyph glyph-name="uni092B094D0930094D" horiz-adv-x="466" 
d="M612 569h-232v-77q31 7 76 7q156 0 156 -145v-8h-100v4q0 27 -15 39.5t-52.5 12.5t-64.5 -6v-396h-111v180l-122 -187h-124l122 187q-96 23 -96 139v250h-83v94h646v-94zM161 569v-245q0 -52 62 -52q28 0 46 6v291h-108z" />
    <glyph glyph-name="uni092C094D0930094D" horiz-adv-x="254" 
d="M-34 663h456v-94h-456v94zM38 236v110q0 80 42.5 120t140.5 40q179 0 179 -160v-110q0 -63 -40 -111q-15 -18 -201 -204h-138l159 159q-142 17 -142 156zM301 342q0 36 -18 53.5t-67.5 17.5t-64.5 -32l150 -109v70zM144 240q0 -36 17.5 -53.5t68 -17.5t65.5 34l-151 110
v-73z" />
    <glyph glyph-name="uni092D094D0930094D" horiz-adv-x="444" 
d="M253 268v79h-51q-31 0 -41.5 -11.5t-10.5 -36.5v-31q0 -25 10.5 -36.5t41.5 -11.5t41 12t10 36zM510 306v-119q-35 -77 -103 -156l-75 -85h-132zM510 442v-95h-149v-82q0 -141 -159.5 -141t-159.5 141v37q0 140 160 140h51v73q0 26 -9.5 38t-39 12t-39 -12t-9.5 -38
l3 -28h-112q-3 16 -3 32q0 149 160.5 149t160.5 -149v-77h145z" />
    <glyph glyph-name="uni092E094D0930094D" horiz-adv-x="406" 
d="M481 663v-94h-140v-105h140v-94h-140v-101q0 -143 -158 -143t-158 143v55q0 140 158 140h51v105h-268v94h515zM481 297v-113q-16 -31 -48.5 -79.5t-64.5 -84.5l-69 -79h-131zM234 273v97h-51q-31 0 -41 -12t-10 -37v-49q0 -25 10.5 -37.5t41 -12.5t40.5 12.5t10 38.5z
" />
    <glyph glyph-name="uni092F094D0930094D" horiz-adv-x="320" 
d="M148 315q0 -48 29 -71t86 -23t123 14v-98l-171 -175h-142l177 163q-102 3 -156.5 47t-54.5 129v112h23q56 0 76 13.5t20 52.5v35q0 55 -31 55h-161v94h418v-94h-131q14 -7 14 -55v-55q0 -117 -119 -120v-24z" />
    <glyph glyph-name="uni0935094D0930094D" horiz-adv-x="242" 
d="M150 352v-106q0 -54 84 -54q59 0 91 11v-106l-125 -159h-124l133 159h-1q-167 0 -167 147v108q0 73 38.5 110t124.5 37q48 0 75 -5v-94q-19 4 -61 4q-68 0 -68 -52zM313 663v-94h-347v94h347z" />
    <glyph glyph-name="uni0938094D0930094D" horiz-adv-x="433" 
d="M155 475v-90q19 -6 49 -6t41 12.5t11 37.5v90q0 50 -26 50h-264v94h533v-94h-143q10 -13 10 -59v-94h149v-122q-25 -32 -84 -83l-62 -54l-119 19l176 144h-100q-31 -40 -102 -40q-40 0 -69 8v-108q0 -45 25.5 -64.5t84 -19.5t128.5 12v-101q-60 -12 -136 -12
q-108 0 -160 43.5t-52 140.5v296h110z" />
    <glyph glyph-name="uni0915093C094D0930094D" horiz-adv-x="447" 
d="M231 407l-16 1q-32 0 -44.5 -13t-12.5 -39v-137q0 -26 12.5 -39t44.5 -13q5 0 53 8v394h-302v94h643v-94h-233v-71q31 7 73 7q83 0 119.5 -37.5t36.5 -108.5v-8h-100v5q0 52 -65 52q-37 0 -64 -6v-402h-109v100l-5 -1l-103 -143h-125l108 142q-91 22 -91 134v128
q0 145 151 145q8 0 29 -3v-95zM255.5 -46q62.5 0 62.5 -62.5t-62.5 -62.5t-62.5 62.5t62.5 62.5z" />
    <glyph glyph-name="uni0916093C094D0930094D" horiz-adv-x="559" 
d="M395 255v96q0 74 35 109.5t122 35.5t121.5 -35.5t34.5 -109.5v-96q0 -76 -34.5 -110.5t-121.5 -34.5t-122 34.5t-35 110.5zM607 255v96q0 25 -11.5 37.5t-43.5 12.5t-44 -12.5t-12 -37.5v-96q0 -26 12 -38.5t44 -12.5t43.5 12.5t11.5 38.5zM543 37q62 0 62 -62.5
t-62 -62.5t-62 62.5t62 62.5zM248 514q0 31 -11 55h-271v94h741v-94h-364q8 -19 8 -55v-122q0 -154 -153 -154q-26 0 -53 5v-55q0 -92 121 -92q58 0 103 17v-103l-122 -112l-147 13v4l127 95q-189 12 -189 177v261h107v-108q21 -3 49 -3q54 0 54 57v120z" />
    <glyph glyph-name="uni0917093C094D0930094D" horiz-adv-x="271" 
d="M332 -108q-62 0 -62 62.5t62 62.5t62 -62.5t-62 -62.5zM218 569v-199q0 -74 -40 -113t-113 -39q-39 0 -48 3v106q24 -2 32 -2q58 0 58 53v191h-141v94h347v-94h-95zM352 359v-140q-29 -61 -99 -144l-65 -75h-132z" />
    <glyph glyph-name="uni091C093C094D0930094D" horiz-adv-x="401" 
d="M212 330q0 33 -10 55h-103v102h387v-96h-171q9 -19 9 -55v-74q0 -79 -47.5 -119.5t-135.5 -40.5q-47 0 -89 11v101q44 -11 85 -11q75 0 75 62v65zM486 663v-94h-514v94h514zM176 -57v4l315 337v-110q-34 -79 -97 -146l-86 -85h-132zM69 -68q-62 0 -62 62.5t62 62.5
t62 -62.5t-62 -62.5z" />
    <glyph glyph-name="uni0928093C094D0930094D" horiz-adv-x="397" 
d="M457 -118q-62 0 -62 62.5t62 62.5t62 -62.5t-62 -62.5zM191 384q-28 0 -38 -12t-10 -36v-45q0 -24 10.5 -36t38 -12t38 12t10.5 36v38q0 34 -9 55h-40zM499 663v-94h-533v94h533zM499 487v-103h-162q8 -40 8 -52v-42q0 -148 -154.5 -148t-154.5 148v49q0 148 155 148h308
zM499 346v-115q-13 -27 -53.5 -89t-76.5 -105l-65 -73h-132z" />
    <glyph glyph-name="uni092B093C094D0930094D" horiz-adv-x="467" 
d="M612 569h-232v-77q31 7 76 7q156 0 156 -145v-8h-100v4q0 27 -15 39.5t-52.5 12.5t-64.5 -6v-396h-111v180l-122 -187h-124l122 187q-96 23 -96 139v250h-83v94h646v-94zM161 569v-245q0 -52 62 -52q28 0 46 6v291h-108zM211 -44q62 0 62 -62.5t-62 -62.5t-62 62.5
t62 62.5z" />
    <glyph glyph-name="uni092F093C094D0930094D" horiz-adv-x="313" 
d="M348 16q62 0 62 -62.5t-62 -62.5t-62 62.5t62 62.5zM39 301v112h23q56 0 76 13.5t20 52.5v35q0 55 -31 55h-161v94h418v-94h-131q14 -7 14 -55v-55q0 -117 -119 -120v-24q0 -48 29 -71t86 -23t123 14v-98l-171 -175h-142l177 163q-102 3 -156.5 47t-54.5 129z" />
    <glyph glyph-name="uni0915094D0915" horiz-adv-x="1046" 
d="M143 203q0 -52 53 -52q27 0 56 8v410h-286v94h1113v-94h-285v-71q21 7 64 7q151 0 151 -145v-151q0 -72 -33 -108.5t-108 -36.5q-6 0 -22 2v104q36 -4 46 9.5t10 39.5v138q0 25 -12.5 38t-42 13t-53.5 -6v-402h-109v66q-48 -8 -66 -8q-77 0 -113.5 34.5t-36.5 105.5v158
q0 26 -13 39t-42.5 13t-52.5 -5v-403h-109v66q-48 -8 -66 -8q-77 0 -113.5 34.5t-36.5 105.5v162q0 145 150 145q8 0 30 -3v-95l-16 1q-32 0 -44.5 -13t-12.5 -39v-153zM576 203q0 -52 53 -52q27 0 56 8v410h-324v-71q28 7 58 7q64 0 100 -25q37 25 100 25q8 0 30 -3v-95
l-16 1q-32 0 -44.5 -13t-12.5 -39v-153z" />
    <glyph glyph-name="uni0915094D0916" horiz-adv-x="1199" 
d="M143 203q0 -52 53 -52q27 0 56 8v410h-286v94h1268v-94h-88v-569h-109v117q-28 -7 -62 -7q-82 0 -116 35.5t-34 109.5v95q0 75 32 111.5t113 36.5q40 0 67 -6v77h-263q8 -19 8 -55v-122q0 -154 -153 -154q-26 0 -53 5v-55q0 -92 121 -92q67 0 126 21v-104
q-59 -18 -135 -18q-107 0 -163 51t-56 141v169q0 27 -12 39.5t-42.5 12.5t-53.5 -6v-402h-109v66q-48 -8 -66 -8q-77 0 -113.5 34.5t-36.5 105.5v162q0 145 150 145q8 0 30 -3v-95l-16 1q-32 0 -44.5 -13t-12.5 -39v-153zM679 514q0 35 -11 55h-307v-71q22 7 59 7
q83 0 119.5 -37.5t36.5 -108.5v-19q21 -3 49 -3q54 0 54 57v120zM983 401q-32 0 -44.5 -13t-12.5 -37v-96q0 -25 12.5 -38t47 -13t51.5 7v184q-48 6 -54 6z" />
    <glyph glyph-name="uni0915094D091A" horiz-adv-x="915" 
d="M143 203q0 -52 53 -52q27 0 56 8v410h-286v94h982v-94h-87v-569h-111v66q-37 -10 -79 -10q-160 0 -160 153v48q0 39 7 63h-49v36q0 27 -12 39.5t-42.5 12.5t-53.5 -6v-402h-109v66q-48 -8 -66 -8q-77 0 -113.5 34.5t-36.5 105.5v162q0 145 150 145q8 0 30 -3v-95l-16 1
q-32 0 -44.5 -13t-12.5 -39v-153zM750 569h-389v-71q22 7 59 7q118 0 142 -85h145v-96h-74q-10 -19 -10 -67v-44q0 -58 67 -58q32 0 60 9v405z" />
    <glyph glyph-name="uni0915094D091C" horiz-adv-x="1112" 
d="M143 203q0 -52 53 -52q27 0 56 8v410h-286v94h1180v-94h-87v-569h-112v391h-104q9 -19 9 -55v-130q0 -79 -47 -119.5t-135 -40.5q-49 0 -88 10v101q47 -10 84 -10q74 0 74 62v121q0 33 -10 55h-71v102h288v82h-586v-71q22 7 59 7q161 0 161 -146v-89h-112v86
q0 27 -12 39.5t-42.5 12.5t-53.5 -6v-402h-109v66q-48 -8 -66 -8q-77 0 -113.5 34.5t-36.5 105.5v162q0 145 150 145q8 0 30 -3v-95l-16 1q-32 0 -44.5 -13t-12.5 -39v-153z" />
    <glyph glyph-name="uni0915094D091F" horiz-adv-x="835" 
d="M143 203q0 -52 53 -52q27 0 56 8v410h-286v94h902v-94h-90v-176h-125q-72 0 -72 -64v-164q0 -36 23 -52t73.5 -16t115.5 13v-100q-64 -15 -126 -15q-95 0 -146.5 43t-51.5 125v193q0 27 -12 39.5t-42.5 12.5t-53.5 -6v-402h-109v66q-48 -8 -66 -8q-77 0 -113.5 34.5
t-36.5 105.5v162q0 145 150 145q8 0 30 -3v-95l-16 1q-32 0 -44.5 -13t-12.5 -39v-153zM361 569v-71q22 7 59 7q78 0 113 -35q40 25 108 25h26v74h-306z" />
    <glyph glyph-name="uni0915094D0923" horiz-adv-x="1084" 
d="M143 203q0 -52 53 -52q27 0 56 8v410h-286v94h1153v-94h-88v-569h-111v569h-99v-309q0 -151 -165 -151t-165 151v64h-1v5q0 52 -65 52q-41 0 -64 -6v-375h-109v66q-48 -8 -66 -8q-77 0 -113.5 34.5t-36.5 105.5v162q0 145 150 145q8 0 30 -3v-95l-16 1q-32 0 -44.5 -13
t-12.5 -39v-153zM361 569v-99q38 8 69 8t61 -7v98h-130zM709 260v309h-107v-309q0 -25 11 -38t42.5 -13t42.5 13t11 38z" />
    <glyph glyph-name="uni0915094D0924" horiz-adv-x="658" 
d="M474 48q-5 0 -22 1v105q2 -1 21 -1t27.5 11.5t8.5 37.5v141q0 25 -12.5 38.5t-46 13.5t-49.5 -7v-388h-109v388q-32 4 -60 4t-39.5 -13t-11.5 -39v-142q0 -28 12 -38.5t47 -10.5v-103q-14 -2 -23 -2q-143 0 -143 148v148q0 30 12 54h-68v94h205q29 0 69 -5v86h-326v94
h726v-94h-291v-85q14 7 64 7q150 0 150 -145v-154q0 -71 -33 -107.5t-108 -36.5z" />
    <glyph glyph-name="uni0915094D0925" horiz-adv-x="1009" 
d="M143 203q0 -52 53 -52q27 0 56 8v410h-286v94h480v-94h-85v-122q22 7 59 7q92 0 125 -49h41q50 0 70 16t20 57v40q0 26 -8 38t-34 12t-34.5 -12.5t-8.5 -39.5l3 -38h-106q-4 19 -4 38q0 152 147 152q77 0 111.5 -37.5t34.5 -112.5v-57q0 -77 -43 -115t-134 -38h-17v-19
q0 -58 31.5 -83t105.5 -25t125 12v470h198v-94h-87v-569h-111v92q-51 -13 -128 -13q-118 0 -182.5 53t-64.5 153v16h-1v4q0 28 -12 40t-42.5 12t-53.5 -6v-351h-109v66q-48 -8 -66 -8q-77 0 -113.5 34.5t-36.5 105.5v162q0 145 150 145q8 0 30 -3v-95l-16 1q-32 0 -44.5 -13
t-12.5 -39v-153z" />
    <glyph glyph-name="uni0915094D0926" horiz-adv-x="854" 
d="M143 203q0 -52 53 -52q27 0 56 8v410h-286v94h922v-94h-91v-173h-159q-33 0 -45 -11.5t-12 -36.5v-132q0 -51 62 -51q25 0 55 7v91h111v-266h-111v76q-30 -7 -71 -7q-158 0 -158 147v143q0 27 -12 39.5t-42.5 12.5t-53.5 -6v-402h-109v66q-48 -8 -66 -8
q-77 0 -113.5 34.5t-36.5 105.5v162q0 145 150 145q8 0 30 -3v-95l-16 1q-32 0 -44.5 -13t-12.5 -39v-153zM361 569v-71q22 7 59 7q72 0 107 -29q40 22 111 22h48v71h-325z" />
    <glyph glyph-name="uni0915094D092A" horiz-adv-x="885" 
d="M143 203q0 -52 53 -52q27 0 56 8v410h-286v94h953v-94h-88v-569h-111v129q-35 -10 -73 -10q-157 0 -157 147v63q0 52 -65 52q-41 0 -64 -6v-375h-109v66q-48 -8 -66 -8q-77 0 -113.5 34.5t-36.5 105.5v162q0 145 150 145q8 0 30 -3v-95l-16 1q-32 0 -44.5 -13t-12.5 -39
v-153zM361 569v-99q38 8 68.5 8t60.5 -7v98h-129zM720 569h-118v-299q0 -51 61 -51q30 0 57 9v341z" />
    <glyph glyph-name="uni0915094D092B" horiz-adv-x="1074" 
d="M143 203q0 -52 53 -52q27 0 56 8v410h-286v94h1142v-94h-287v-77q27 9 63 9q78 0 116 -39t38 -110v-147q0 -144 -148 -144q-13 0 -17 1v103q31 -1 42 10.5t11 39.5v133q0 50 -56 50q-25 0 -49 -8v-390h-111v114q-42 -7 -64 -7q-81 0 -118.5 37t-37.5 110v75q0 52 -65 52
q-41 0 -64 -6v-375h-109v66q-48 -8 -66 -8q-77 0 -113.5 34.5t-36.5 105.5v162q0 145 150 145q8 0 30 -3v-95l-16 1q-32 0 -44.5 -13t-12.5 -39v-153zM361 569v-99q38 8 68.5 8t60.5 -7v98h-129zM710 569h-109v-311q0 -52 62 -52q17 0 47 6v357z" />
    <glyph glyph-name="uni0915094D092E" horiz-adv-x="1045" 
d="M143 203q0 -52 53 -52q27 0 56 8v410h-286v94h1113v-94h-88v-569h-109v345h-95v-147q0 -141 -159 -141t-159 141v158q0 27 -12 39.5t-42.5 12.5t-53.5 -6v-402h-109v66q-48 -8 -66 -8q-77 0 -113.5 34.5t-36.5 105.5v162q0 145 150 145q8 0 30 -3v-95l-16 1
q-32 0 -44.5 -13t-12.5 -39v-153zM680 202v143h-52q-31 0 -41.5 -11.5t-10.5 -36.5v-95q0 -25 10.5 -37t41.5 -12t41.5 12t10.5 37zM680 440v129h-319v-71q22 7 59 7q111 0 143 -72q33 7 65 7h52zM882 440v129h-95v-129h95z" />
    <glyph glyph-name="uni0915094D092F" horiz-adv-x="946" 
d="M143 203q0 -52 53 -52q27 0 56 8v410h-286v94h1014v-94h-87v-569h-112v96q-37 -10 -93 -10q-99 0 -159 45t-60 134v84q0 27 -12 39.5t-42.5 12.5t-53.5 -6v-395h-109v66q-48 -8 -66 -8q-77 0 -113.5 34.5t-36.5 105.5v162q0 145 150 145q8 0 30 -3v-95l-16 1
q-32 0 -44.5 -13t-12.5 -39v-153zM588 514q0 29 -7 55h-220v-78q22 7 59 7q125 0 144 -95q24 14 24 55v56zM781 569h-91q7 -21 7 -55v-76q0 -116 -119 -121v-38q0 -90 115 -90q48 0 88 10v370z" />
    <glyph glyph-name="uni0915094D0932" horiz-adv-x="1068" 
d="M143 203q0 -52 53 -52q27 0 56 8v410h-286v94h1136v-94h-87v-569h-112v377q-16 9 -48 9q-57 0 -57 -51v-125h-112v125q0 25 -11 38t-42 13t-41.5 -13t-10.5 -39v-159q0 -35 17 -54t53.5 -19t70.5 4v-102q-32 -4 -64 -4q-98 0 -143.5 42.5t-45.5 128.5v185q0 27 -12 39.5
t-42.5 12.5t-53.5 -6v-402h-109v66q-48 -8 -66 -8q-77 0 -113.5 34.5t-36.5 105.5v162q0 145 150 145q8 0 30 -3v-95l-16 1q-32 0 -44.5 -13t-12.5 -39v-153zM903 569h-542v-71q22 7 59 7q79 0 116 -37q36 21 94 21q79 0 110 -52q35 51 106 51q36 0 57 -8v89z" />
    <glyph glyph-name="uni0915094D0935" horiz-adv-x="874" 
d="M143 203q0 -52 53 -52q27 0 56 8v410h-286v94h942v-94h-87v-569h-112v68q-29 -9 -76 -9q-83 0 -120.5 37t-37.5 111v149q0 52 -65 52q-26 0 -49 -5v-403h-109v66q-48 -8 -66 -8q-77 0 -113.5 34.5t-36.5 105.5v162q0 145 150 145q8 0 30 -3v-95l-16 1q-32 0 -44.5 -13
t-12.5 -39v-153zM361 569v-71q28 7 58 7q68 0 106 -27q39 28 108 28q37 0 76 -9v72h-348zM651 411q-68 0 -68 -55v-146q0 -56 68 -56q41 0 63 9v240q-35 8 -63 8z" />
    <glyph glyph-name="uni0915094D0936" horiz-adv-x="1045" 
d="M880 663h199v-94h-87v-569h-112v663zM143 203q0 -52 53 -52q27 0 56 8v410h-286v94h453v-94h-58v-102q22 7 59 7q159 0 161 -141q24 -9 55.5 -9t43.5 13t12 38v139q0 24 -12 37.5t-44 13.5q-55 0 -55 -53l1 -17h-111q-2 6 -2 22q0 151 167.5 151t167.5 -151v-145
q0 -146 -156 -146q-43 0 -67 9v-58q0 -76 93 -76q55 0 119 23v-104q-58 -20 -143 -20t-133 48t-48 126v151q0 28 -12 40t-42.5 12t-53.5 -6v-371h-109v66q-48 -8 -66 -8q-77 0 -113.5 34.5t-36.5 105.5v162q0 145 150 145q8 0 30 -3v-95l-16 1q-32 0 -44.5 -13t-12.5 -39
v-153z" />
    <glyph glyph-name="uni0915094D0938" horiz-adv-x="1051" 
d="M143 203q0 -52 53 -52q27 0 56 8v410h-286v94h1119v-94h-88v-569h-111v272h-133q-36 -38 -114 -38q-24 0 -58 6v-75q0 -69 99 -69q60 0 122 23v-104q-60 -20 -146.5 -20t-136.5 44.5t-50 122.5v194q0 27 -12 39.5t-42.5 12.5t-53.5 -6v-402h-109v66q-48 -8 -66 -8
q-77 0 -113.5 34.5t-36.5 105.5v162q0 145 150 145q8 0 30 -3v-95l-16 1q-32 0 -44.5 -13t-12.5 -39v-153zM680 514q0 35 -9 55h-310v-71q22 7 59 7q161 0 161 -146v-20q21 -7 48 -7q51 0 51 52v130zM886 368v201h-103q6 -19 6 -55v-146h97z" />
    <glyph glyph-name="uni0916094D0916" horiz-adv-x="1337" 
d="M248 514q0 31 -11 55h-271v94h1405v-94h-87v-569h-109v117q-28 -7 -62 -7q-82 0 -116 35.5t-34 109.5v95q0 75 32 111.5t113 36.5q43 0 67 -6v77h-263q8 -19 8 -55v-122q0 -77 -37 -115.5t-116 -38.5q-26 0 -53 5v-55q0 -92 121 -92q66 0 127 21v-104q-61 -18 -135 -18
q-170 0 -210 121q-27 -6 -65 -6q-87 0 -122 34.5t-35 110.5v96q0 74 35 109.5t122 35.5t124.5 -36t37.5 -109v-11q22 -3 46 -3q57 0 57 57v120q0 35 -11 55h-463q8 -19 8 -55v-122q0 -154 -153 -154q-26 0 -53 5v-55q0 -92 121 -92q67 0 126 21v-104q-59 -18 -135 -18
q-107 0 -163 51t-56 141v261h107v-108q21 -3 49 -3q54 0 54 57v120zM496 351v-96q0 -26 12 -38.5t44 -12.5t43.5 12.5t11.5 38.5v96q0 25 -11.5 37.5t-43.5 12.5t-44 -12.5t-12 -37.5zM1121 401q-32 0 -44.5 -13t-12.5 -37v-96q0 -25 12.5 -38t47 -13t51.5 7v184
q-48 6 -54 6z" />
    <glyph glyph-name="uni0916094D0924" horiz-adv-x="1011" 
d="M248 514q0 31 -11 55h-271v94h1079v-94h-88v-569h-111v388q-32 8 -65 8q-69 0 -69 -58v-186q0 -27 14 -38t49 -11v-105h-27q-72 0 -103.5 28.5t-36.5 87.5q-21 -4 -56 -4q-87 0 -122 34.5t-35 110.5v96q0 74 35 109.5t113.5 35.5t117.5 -25q39 28 94 28t91 -9v79h-503
q8 -19 8 -55v-122q0 -154 -153 -154q-26 0 -53 5v-55q0 -92 121 -92q67 0 126 21v-104q-59 -18 -135 -18q-107 0 -163 51t-56 141v261h107v-108q21 -3 49 -3q54 0 54 57v120zM496 351v-96q0 -26 12 -38.5t44 -12.5t43.5 12.5t11.5 38.5v96q0 25 -11.5 37.5t-43.5 12.5
t-44 -12.5t-12 -37.5z" />
    <glyph glyph-name="uni0916094D092E" horiz-adv-x="1177" 
d="M248 514q0 31 -11 55h-271v94h1245v-94h-88v-569h-109v345h-95v-147q0 -141 -159 -141q-103 0 -136 61q-32 -8 -72 -8q-87 0 -122 34.5t-35 110.5v96q0 74 35 109.5t122 35.5q112 0 141 -64q30 8 67 8h52v129h-469q8 -19 8 -55v-122q0 -154 -153 -154q-26 0 -53 5v-55
q0 -92 121 -92q67 0 126 21v-104q-59 -18 -135 -18q-107 0 -163 51t-56 141v261h107v-108q21 -3 49 -3q54 0 54 57v120zM496 351v-96q0 -26 12 -38.5t44 -12.5t43.5 12.5t11.5 38.5v96q0 25 -11.5 37.5t-43.5 12.5t-44 -12.5t-12 -37.5zM812 202v143h-52q-31 0 -41.5 -11.5
t-10.5 -36.5v-95q0 -25 10.5 -37t41.5 -12t41.5 12t10.5 37zM1014 440v129h-95v-129h95z" />
    <glyph glyph-name="uni0916094D092F" horiz-adv-x="1084" 
d="M248 514q0 31 -11 55h-271v94h1152v-94h-87v-569h-112v96q-37 -10 -93 -10q-112 0 -170 55q-36 -31 -113.5 -31t-112.5 34.5t-35 110.5v96q0 74 35 109.5t122 35.5q122 0 139 -98q35 11 35 60v56q0 29 -7 55h-376q8 -19 8 -55v-122q0 -154 -153 -154q-26 0 -53 5v-55
q0 -92 121 -92q67 0 126 21v-104q-59 -18 -135 -18q-107 0 -163 51t-56 141v261h107v-108q21 -3 49 -3q54 0 54 57v120zM607 255v96q0 25 -11.5 37.5t-43.5 12.5t-44 -12.5t-12 -37.5v-96q0 -26 12 -38.5t44 -12.5t43.5 12.5t11.5 38.5zM919 569h-91q7 -21 7 -55v-76
q0 -116 -119 -121v-38q0 -90 115 -90q48 0 88 10v370z" />
    <glyph glyph-name="uni0916094D0935" horiz-adv-x="1007" 
d="M248 514q0 31 -11 55h-271v94h1075v-94h-87v-569h-112v68q-29 -9 -76 -9q-106 0 -140 64q-31 -13 -74 -13q-87 0 -122 34.5t-35 110.5v96q0 74 35 109.5t110.5 35.5t108.5 -25q40 35 117 35q37 0 76 -9v72h-499q8 -19 8 -55v-122q0 -154 -153 -154q-26 0 -53 5v-55
q0 -92 121 -92q67 0 126 21v-104q-59 -18 -135 -18q-107 0 -163 51t-56 141v261h107v-108q21 -3 49 -3q54 0 54 57v120zM607 255v96q0 25 -11.5 37.5t-43.5 12.5t-44 -12.5t-12 -37.5v-96q0 -26 12 -38.5t44 -12.5t43.5 12.5t11.5 38.5zM784 411q-68 0 -68 -55v-146
q0 -56 68 -56q40 0 63 9v240q-35 8 -63 8z" />
    <glyph glyph-name="uni0916094D0936" horiz-adv-x="1177" 
d="M1012 663h199v-94h-88v-569h-111v663zM601 517q0 151 167.5 151t167.5 -151v-131q0 -146 -157 -146q-40 0 -67 9v-72q0 -76 94 -76q56 0 118 23v-104q-58 -20 -134 -20q-144 0 -176 116q-26 -6 -62 -6q-87 0 -122 34.5t-35 110.5v62q0 74 35 109.5t118.5 35.5t118.5 -30
t40 -92q60 -2 61 -2q32 0 44 13t12 38v125q0 24 -12 37.5t-44 13.5q-56 0 -56 -53l2 -21h-111q-2 10 -2 26zM496 317v-62q0 -26 12 -38.5t44 -12.5t43.5 12.5t11.5 38.5v62q0 26 -11.5 38.5t-43.5 12.5t-44 -12.5t-12 -38.5zM248 514q0 31 -11 55h-271v94h577v-94h-200
q8 -19 8 -55v-122q0 -154 -153 -154q-26 0 -53 5v-55q0 -92 121 -92q67 0 126 21v-104q-59 -18 -135 -18q-107 0 -163 51t-56 141v261h107v-108q21 -3 49 -3q54 0 54 57v120z" />
    <glyph glyph-name="uni0917094D0917" horiz-adv-x="738" 
d="M772 663v-94h-87v-569h-111v569h-106v-240q0 -74 -40 -113t-113 -39q-39 0 -48 3v107q24 -2 32 -2q58 0 58 52v232h-139v-240q0 -74 -40 -113t-113 -39q-39 0 -48 3v107q24 -2 32 -2q58 0 58 52v232h-141v94h806z" />
    <glyph glyph-name="uni0917094D0918" horiz-adv-x="768" 
d="M320 514q0 33 6 55h-108v-240q0 -74 -40 -113t-113 -39q-39 0 -48 3v107q24 -2 32 -2q58 0 58 52v232h-141v94h836v-94h-87v-569h-112v71q-50 -12 -101 -12q-91 0 -139.5 41t-48.5 114v51q0 79 50 100q-44 25 -44 96v53zM603 569h-163q-9 -17 -9 -55v-50
q0 -24 11.5 -36.5t43.5 -12.5h40v-103h-45q-56 0 -56 -50v-35q0 -37 23 -52.5t68.5 -15.5t86.5 12v398z" />
    <glyph glyph-name="uni0917094D091C" horiz-adv-x="821" 
d="M449 330q0 33 -10 55h-103v102h320v82h-438v-240q0 -74 -40 -113t-113 -39q-39 0 -48 3v107q24 -2 32 -2q58 0 58 52v232h-141v94h888v-94h-87v-569h-111v391h-104q9 -19 9 -55v-130q0 -79 -47.5 -119.5t-135.5 -40.5q-47 0 -89 11v101q44 -11 85 -11q75 0 75 62v121z
" />
    <glyph glyph-name="uni0917094D0923" horiz-adv-x="913" 
d="M947 663v-94h-88v-569h-111v569h-99v-309q0 -151 -165 -151t-165 151v309h-101v-240q0 -74 -40 -113t-113 -39q-39 0 -48 3v107q24 -2 32 -2q58 0 58 52v232h-141v94h981zM537 260v309h-107v-309q0 -25 11 -38t42.5 -13t42.5 13t11 38z" />
    <glyph glyph-name="uni0917094D0926" horiz-adv-x="691" 
d="M634 396h-159q-33 0 -45 -11.5t-12 -36.5v-132q0 -51 62 -51q25 0 55 7v91h111v-266h-111v76q-30 -7 -71 -7q-158 0 -158 147v138q0 79 40.5 113t128.5 34h48v71h-305v-240q0 -74 -40 -113t-113 -39q-39 0 -48 3v107q24 -2 32 -2q58 0 58 52v232h-141v94h759v-94h-91
v-173z" />
    <glyph glyph-name="uni0917094D0927" horiz-adv-x="768" 
d="M320 514q0 33 10 55h-112v-240q0 -74 -40 -113t-113 -39q-39 0 -48 3v107q24 -2 32 -2q58 0 58 52v232h-141v94h551v-94h-72q-14 -17 -14 -55v-48q0 -25 11.5 -37.5t43.5 -12.5h40v-103h-45q-32 0 -44 -12.5t-12 -37.5v-37q0 -67 91 -67q44 0 87 12v492h199v-94h-87v-569
h-112v71q-39 -12 -101 -12q-91 0 -139.5 40.5t-48.5 114.5v53q0 77 50 100q-44 25 -44 95v52z" />
    <glyph glyph-name="uni0917094D092C" horiz-adv-x="716" 
d="M750 663v-94h-87v-569h-106v69q-30 -10 -77 -10q-89 0 -134 36t-45 118v139q0 83 43 118.5t132 35.5q45 0 81 -12v75h-339v-240q0 -74 -40 -113t-113 -39q-39 0 -48 3v107q24 -2 32 -2q58 0 58 52v232h-141v94h784zM487 413q-54 0 -70 -28l140 -126v142q-34 12 -70 12z
M408 217q0 -65 79 -65q25 0 70 8v17l-149 136v-96z" />
    <glyph glyph-name="uni0917094D092D" horiz-adv-x="889" 
d="M515 420v95q0 26 -9.5 38t-39 12t-39 -12t-9.5 -38l4 -39h-112q-4 25 -4 43q0 149 160.5 149t160.5 -149v-99h97v243h199v-94h-87v-569h-112v325h-101v-128q0 -140 -159.5 -140t-159.5 140v83q0 140 159 140h52zM515 201v124h-52q-31 0 -41 -12t-10 -36v-76q0 -24 10 -36
t41 -12t41.5 11.5t10.5 36.5zM218 569v-240q0 -74 -40 -113t-113 -39q-39 0 -48 3v107q24 -2 32 -2q58 0 58 52v232h-141v94h295v-94h-43z" />
    <glyph glyph-name="uni0917094D092E" horiz-adv-x="861" 
d="M896 663v-94h-88v-569h-109v345h-95v-147q0 -141 -159 -141t-159 141v103q0 139 159 139h52v129h-279v-240q0 -74 -40 -113t-113 -39q-39 0 -48 3v107q24 -2 32 -2q58 0 58 52v232h-141v94h930zM497 202v143h-52q-31 0 -41.5 -11.5t-10.5 -36.5v-95q0 -25 10.5 -37
t41.5 -12t41.5 12t10.5 37zM699 440v129h-95v-129h95z" />
    <glyph glyph-name="uni0917094D092F" horiz-adv-x="785" 
d="M427 514q0 36 -7 55h-202v-240q0 -74 -40 -113t-113 -39q-39 0 -48 3v107q24 -2 32 -2q58 0 58 52v232h-141v94h853v-94h-87v-569h-112v96q-37 -10 -93 -10q-99 0 -159 45t-60 134v127h23q56 0 76 13.5t20 52.5v56zM620 569h-91q7 -21 7 -55v-76q0 -116 -119 -121v-38
q0 -90 115 -90q48 0 88 10v370z" />
    <glyph glyph-name="uni0917094D0932" horiz-adv-x="901" 
d="M935 663v-94h-87v-569h-112v377q-16 9 -48 9q-57 0 -57 -51v-125h-112v125q0 25 -11 38t-42 13t-41.5 -13t-10.5 -39v-159q0 -35 17 -54t53.5 -19t70.5 4v-102q-32 -4 -64 -4q-98 0 -143.5 42.5t-45.5 128.5v167q0 72 41 111.5t120 39.5t110 -52q35 51 106 51q36 0 57 -8
v89h-518v-240q0 -74 -40 -113t-113 -39q-39 0 -48 3v107q24 -2 32 -2q58 0 58 52v232h-141v94h969z" />
    <glyph glyph-name="uni0917094D0935" horiz-adv-x="700" 
d="M734 663v-94h-87v-569h-112v68q-29 -9 -76 -9q-83 0 -120.5 37t-37.5 111v150q0 149 158 149q37 0 76 -9v72h-317v-240q0 -74 -40 -113t-113 -39q-39 0 -48 3v107q24 -2 32 -2q58 0 58 52v232h-141v94h768zM477 411q-68 0 -68 -55v-146q0 -56 68 -56q41 0 63 9v240
q-35 8 -63 8z" />
    <glyph glyph-name="uni0917094D0938" horiz-adv-x="891" 
d="M521 514q0 33 -10 55h-293v-240q0 -74 -40 -113t-113 -39q-39 0 -48 3v107q24 -2 32 -2q58 0 58 52v232h-141v94h959v-94h-87v-569h-111v272h-133q-36 -38 -115 -38q-24 0 -58 6v-75q0 -69 100 -69q61 0 121 23v-104q-58 -20 -145 -20t-137 44.5t-50 122.5v289h111v-112
q23 -7 44 -7q56 0 56 52v130zM727 368v201h-104q7 -19 7 -55v-146h97z" />
    <glyph glyph-name="uni0918094D092E" horiz-adv-x="917" 
d="M52 514q0 33 6 55h-92v94h985v-94h-88v-569h-109v345h-95v-147q0 -141 -159 -141q-69 0 -108 27q-80 -25 -144 -25q-101 0 -151.5 40.5t-50.5 114.5v51q0 79 50 100q-44 25 -44 96v53zM552 202v143h-52q-31 0 -41.5 -11.5t-10.5 -36.5v-95q0 -25 10.5 -37t41.5 -12
t41.5 12t10.5 37zM552 440v129h-380q-9 -17 -9 -55v-50q0 -24 11.5 -36.5t43.5 -12.5h40v-103h-45q-56 0 -56 -50v-35q0 -38 23.5 -53t69.5 -15t93 10q-2 20 -2 29v103q0 139 159 139h52zM754 440v129h-95v-129h95z" />
    <glyph glyph-name="uni0918094D092F" horiz-adv-x="818" 
d="M52 514q0 33 6 55h-92v94h886v-94h-87v-569h-112v96q-37 -10 -100 -10t-113 22q-84 -40 -188.5 -40t-155 40.5t-50.5 114.5v48q0 79 50 100q-44 25 -44 96v47zM460 514q0 29 -7 55h-281q-9 -17 -9 -55v-44q0 -24 11.5 -36.5t43.5 -12.5h40v-103h-45q-56 0 -56 -50v-32
q0 -38 23.5 -53t71 -15t107.5 15q-18 35 -18 82v127h23q56 0 76 13.5t20 52.5v56zM653 569h-91q7 -21 7 -55v-76q0 -116 -119 -121v-38q0 -90 115 -90q48 0 88 10v370z" />
    <glyph glyph-name="uni091A094D091A" horiz-adv-x="727" 
d="M324 324q0 30 7 67h-37v96h226v-96h-74q-11 -19 -11 -67v-111q0 -58 67 -58q33 0 60 9v405h-596v94h795v-94h-87v-569h-112v66q-35 -10 -87.5 -10t-91.5 22q-59 -22 -136 -22t-124.5 39.5t-47.5 113.5v115q0 35 8 63h-70v100h229v-96h-44q-11 -19 -11 -67v-111
q0 -58 78 -58q31 0 63 7q-4 19 -4 47v115z" />
    <glyph glyph-name="uni091A094D091B" horiz-adv-x="826" 
d="M339 514q0 35 11 55h-384v94h894v-94h-140v-87q61 -26 61 -126v-183q0 -89 -50 -128t-172 -39q-156 0 -201 65q-49 -15 -105 -15q-84 0 -131 39t-47 114v115q0 35 8 63h-70v100h258v-96h-73q-11 -19 -11 -67v-111q0 -58 77 -58q34 0 70 9v26q0 69 50 92q-45 23 -45 95
v137zM657 390q-15 16 -48.5 16t-55.5 -9v92q26 10 63 10v70h-154q-11 -17 -11 -55v-133q0 -25 11 -37.5t43 -12.5h68v-98h-64q-35 0 -49 -11t-14 -41v-13q0 -38 21 -50t91 -12t92 16t22 56v160q0 36 -15 52z" />
    <glyph glyph-name="uni091A094D092E" horiz-adv-x="897" 
d="M75 324q0 35 8 63h-70v100h258v-96h-73q-11 -19 -11 -67v-111q0 -58 77 -58q24 0 60 6q-3 18 -3 37v103q0 139 159 139h52v129h-566v94h965v-94h-88v-569h-109v345h-95v-147q0 -141 -159 -141q-62 0 -100 21q-55 -22 -133 -22t-125 39t-47 114v115zM532 202v143h-52
q-31 0 -41.5 -11.5t-10.5 -36.5v-95q0 -25 10.5 -37t41.5 -12t41.5 12t10.5 37zM734 440v129h-95v-129h95z" />
    <glyph glyph-name="uni091A094D092F" horiz-adv-x="812" 
d="M454 514q0 29 -7 55h-481v94h880v-94h-87v-569h-112v96q-37 -10 -101 -10t-113 23q-76 -47 -167.5 -47t-141 39t-49.5 114v109q0 35 8 63h-70v100h258v-96h-73q-11 -19 -11 -67v-105q0 -58 79 -58q43 0 90 15q-21 37 -21 89v127h23q56 0 76 13.5t20 52.5v56zM647 569h-91
q7 -21 7 -55v-76q0 -116 -119 -121v-38q0 -90 115 -90q48 0 88 10v370z" />
    <glyph glyph-name="uni091B094D092F" horiz-adv-x="1045" 
d="M1079 663v-94h-87v-569h-111v54q-60 -10 -109 -10q-97 0 -150.5 45t-53.5 134v78h62q33 0 45.5 9t12.5 34v5q0 23 -10 33.5t-38 10.5h-148q2 -18 2 -28v-192q0 -89 -49.5 -128t-171.5 -39t-173.5 36.5t-51.5 119.5v28q0 69 50 92q-45 23 -45 95v130q0 41 21 62h-108v94
h1113zM386 347q0 68 -64 68q-32 0 -56 -10v93q33 10 74.5 10t77.5 -14h219q83 0 121 -32.5t38 -102.5v-20q0 -116 -118 -116v-3q0 -37 23 -55t77 -18t103 11v411h-658q-35 0 -47 -15.5t-12 -48.5v-124q0 -25 11.5 -37.5t43.5 -12.5h68v-98h-65q-34 0 -48 -11t-14 -41v-13
q0 -37 21 -49.5t90.5 -12.5t92 16t22.5 56v169z" />
    <glyph glyph-name="uni091B094D0935" horiz-adv-x="537" 
d="M570 569h-140v-87q61 -26 61 -126v-183q0 -87 -46 -125v-321h-112v60q-35 -20 -87 -20q-165 0 -165 146v34q0 53 39 82q-76 34 -76 133v28q0 69 50 92q-45 23 -45 95v130q0 41 21 62h-104v94h604v-94zM367 390q-15 16 -48.5 16t-55.5 -10v93q25 10 63 10v70h-106
q-35 0 -47 -15.5t-12 -48.5v-124q0 -25 11.5 -37.5t42.5 -12.5h68v-98h-64q-35 0 -49 -11t-14 -41v-13q0 -37 21.5 -49.5t91 -12.5t91.5 16t22 56v160q0 36 -15 52zM269 6h-10q-39 0 -55.5 -14.5t-16.5 -44.5v-30q0 -29 16.5 -43t63.5 -14t67 31v118q-28 -3 -65 -3z" />
    <glyph glyph-name="uni091C094D0915" horiz-adv-x="990" 
d="M521 203q0 -52 53 -52q27 0 56 8v410h-664v94h1058v-94h-285v-71q21 7 64 7q151 0 151 -145v-151q0 -72 -33 -108.5t-108 -36.5q-6 0 -22 2v104l14 -1q25 1 33.5 12.5t8.5 37.5v138q0 25 -12.5 38t-42 13t-53.5 -6v-402h-109v66q-48 -8 -66 -8q-77 0 -113.5 34.5
t-36.5 105.5v162q0 11 2 31h-107q9 -19 9 -55v-130q0 -79 -47.5 -119.5t-135.5 -40.5q-47 0 -89 11v101q44 -11 85 -11q75 0 75 62v121q0 33 -10 55h-103v102h383q34 18 88 18q8 0 30 -3v-95l-16 1q-32 0 -44.5 -13t-12.5 -39v-153z" />
    <glyph glyph-name="uni091C094D091C" horiz-adv-x="923" 
d="M206 330q0 33 -10 55h-103v102h665v82h-792v94h991v-94h-87v-569h-112v391h-104q9 -19 9 -55v-130q0 -79 -47 -119.5t-135 -40.5q-46 0 -90 11v101q46 -11 86 -11q74 0 74 62v121q0 33 -10 61h-232q9 -19 9 -55v-130q0 -79 -47.5 -119.5t-135.5 -40.5q-47 0 -89 11v101
q44 -11 85 -11q75 0 75 62v121z" />
    <glyph glyph-name="uni091C094D091D" horiz-adv-x="984" 
d="M206 330q0 33 -10 55h-103v102h368q35 17 97 17h54v65h-646v94h1051v-94h-86v-569h-112v234h-104q19 -18 19 -58v-32q0 -75 -38 -107.5t-114 -32.5q-41 0 -76 7v-84h-109v238h109v-58q30 -6 58 -6q61 0 61 50v26q0 25 -12.5 38t-45.5 13h-9q-160 0 -160 133v9q0 14 1 21
h-90q9 -19 9 -55v-130q0 -79 -47.5 -119.5t-135.5 -40.5q-47 0 -89 11v101q44 -11 85 -11q75 0 75 62v121zM819 322v247h-96v-161h-165q-27 0 -38 -9.5t-11 -30.5v-4q0 -21 10.5 -31t37.5 -11h262z" />
    <glyph glyph-name="uni091C094D091F" horiz-adv-x="790" 
d="M206 330q0 33 -10 55h-103v102h431q30 8 67 8h25v74h-650v94h851v-94h-90v-176h-124q-73 0 -73 -64v-164q0 -36 23 -52t73 -16t117 13v-100q-64 -15 -127 -15q-95 0 -146 43t-51 125v174q0 30 6 54h-116q9 -19 9 -55v-130q0 -79 -47.5 -119.5t-135.5 -40.5q-47 0 -89 11
v101q44 -11 85 -11q75 0 75 62v121z" />
    <glyph glyph-name="uni091C094D0921" horiz-adv-x="778" 
d="M206 330q0 33 -10 55h-103v102h365q35 17 97 17h49v65h-638v94h844v-94h-94v-161h-161q-27 0 -37.5 -11t-10.5 -33v-19q0 -22 10.5 -33t37.5 -11h23q86 0 126.5 -34t40.5 -105v-18q0 -153 -197 -153q-69 0 -141 16v102q74 -17 129.5 -17t76.5 11.5t21 42.5v12
q0 23 -12 35.5t-44 12.5h-23q-80 0 -120 32t-40 102v30q0 14 1 21h-87q9 -19 9 -55v-130q0 -79 -47.5 -119.5t-135.5 -40.5q-47 0 -89 11v101q44 -11 85 -11q75 0 75 62v121z" />
    <glyph glyph-name="uni091C094D0924" horiz-adv-x="829" 
d="M206 330q0 33 -10 55h-103v102h416q32 12 75.5 12t79.5 -9v79h-698v94h897v-94h-87v-569h-112v388q-28 8 -65 8q-69 0 -69 -58v-186q0 -27 14 -38t49 -11v-105h-26q-81 0 -114.5 35.5t-33.5 108.5v199q0 25 5 50h-115q9 -19 9 -55v-130q0 -79 -47.5 -119.5t-135.5 -40.5
q-47 0 -89 11v101q44 -11 85 -11q75 0 75 62v121z" />
    <glyph glyph-name="uni091C094D0926" horiz-adv-x="798" 
d="M206 333q0 33 -10 55h-103v102h413q34 8 75 8h48v71h-663v94h865v-94h-91v-173h-159q-33 0 -45 -11.5t-12 -36.5v-132q0 -51 62 -51q25 0 55 7v91h111v-266h-111v76q-30 -7 -71 -7q-158 0 -158 147v138q0 26 4 43h-107q9 -19 9 -55v-133q0 -79 -47.5 -119.5t-135.5 -40.5
q-47 0 -89 11v101q44 -11 85 -11q75 0 75 62v124z" />
    <glyph glyph-name="uni091C094D092C" horiz-adv-x="831" 
d="M206 330q0 33 -10 55h-103v102h392q39 19 95 19t92 -12v75h-706v94h899v-94h-87v-569h-106v69q-30 -10 -77 -10q-89 0 -134 36t-45 118v139q0 21 3 39h-110q9 -19 9 -55v-130q0 -79 -47.5 -119.5t-135.5 -40.5q-47 0 -89 11v101q44 -11 85 -11q75 0 75 62v121zM602 413
q-54 0 -70 -28l140 -126v142q-34 12 -70 12zM523 217q0 -65 79 -65q25 0 70 8v17l-149 136v-96z" />
    <glyph glyph-name="uni091C094D092E" horiz-adv-x="977" 
d="M206 330q0 33 -10 55h-103v102h271q110 0 143 -52q27 5 53 5h52v129h-646v94h1045v-94h-88v-569h-109v345h-95v-147q0 -141 -159 -141t-159 141v103q0 44 16 75q-16 15 -74 15h-34q9 -19 9 -55v-130q0 -79 -47.5 -119.5t-135.5 -40.5q-47 0 -89 11v101q44 -11 85 -11
q75 0 75 62v121zM612 202v143h-52q-31 0 -41.5 -11.5t-10.5 -36.5v-95q0 -25 10.5 -37t41.5 -12t41.5 12t10.5 37zM814 440v129h-95v-129h95z" />
    </font>
</defs>
</svg>
